M48
; DRILL file {KiCad 5.1.9-73d0e3b20d~88~ubuntu20.04.1} date Tue Jan 12 14:06:51 2021
; FORMAT={-:-/ absolute / inch / decimal}
; #@! TF.CreationDate,2021-01-12T14:06:51+01:00
; #@! TF.GenerationSoftware,Kicad,Pcbnew,5.1.9-73d0e3b20d~88~ubuntu20.04.1
; #@! TF.FileFunction,Plated,1,2,PTH
FMAT,2
INCH
T1C0.0118
T2C0.0315
T3C0.1260
%
G90
G05
T1
X3.8583Y-3.7402
X3.937Y-3.3465
X3.937Y-3.3858
X3.937Y-3.4252
X3.937Y-3.4646
X3.937Y-3.5039
X3.937Y-3.5433
X3.937Y-4.1339
X3.9567Y-3.9173
X3.9764Y-3.7402
X3.9764Y-3.8976
X3.9961Y-3.878
X4.0157Y-3.8583
X4.0551Y-3.9764
X4.0551Y-4.0157
X4.0551Y-4.3504
X4.0748Y-3.9567
X4.0945Y-3.7402
X4.1339Y-3.3465
X4.1339Y-3.3858
X4.1339Y-3.4252
X4.1339Y-3.4646
X4.1339Y-3.5039
X4.1339Y-3.5433
X4.1535Y-3.8386
X4.1929Y-3.7008
X4.1929Y-3.8386
X4.2126Y-3.8189
X4.2205Y-3.7244
X4.2205Y-3.7559
X4.2244Y-3.6339
X4.2323Y-3.8386
X4.2323Y-3.937
X4.2323Y-4.0157
X4.2323Y-4.1732
X4.252Y-3.7087
X4.2717Y-3.8386
X4.2717Y-3.937
X4.311Y-3.937
X4.311Y-4.0157
X4.311Y-4.1732
X4.3307Y-3.3465
X4.3307Y-3.3858
X4.3307Y-3.4252
X4.3307Y-3.4646
X4.3307Y-3.5039
X4.3307Y-3.5433
X4.3307Y-4.3307
X4.3504Y-3.7008
X4.3504Y-3.7795
X4.3504Y-3.937
X4.3898Y-3.7402
X4.3898Y-3.937
X4.4291Y-3.7008
X4.4291Y-3.7795
X4.4291Y-3.937
X4.4291Y-4.0157
X4.4291Y-4.1732
X4.4488Y-3.9173
X4.4685Y-3.8976
X4.4882Y-3.878
X4.5276Y-2.7559
X4.5276Y-2.9528
X4.5276Y-3.937
X4.5276Y-4.1732
X4.5276Y-4.3307
X4.5276Y-4.5276
X4.5276Y-4.7244
X4.5472Y-3.6339
X4.5472Y-3.6713
X4.5472Y-3.7106
X4.5787Y-3.7126
X4.626Y-4.0945
X4.7244Y-2.7559
X4.7244Y-2.9528
X4.7244Y-3.1496
X4.7244Y-4.3307
X4.7244Y-4.5276
X4.7244Y-4.7244
X4.8425Y-3.3858
X4.8425Y-3.4646
X4.8425Y-3.5433
X4.8425Y-3.622
X4.8425Y-3.7008
X4.8425Y-3.7795
X4.8425Y-3.8583
X4.8425Y-3.937
X4.8425Y-4.0157
X4.8425Y-4.0945
X4.9213Y-2.7559
X4.9213Y-2.9528
X4.9213Y-3.1496
X4.9213Y-3.3465
X4.9213Y-4.1339
X4.9213Y-4.3307
X4.9213Y-4.5276
X4.9213Y-4.7244
X5.315Y-2.7559
X5.315Y-3.5433
X5.315Y-3.937
X5.315Y-4.7244
X5.7087Y-2.7559
X5.7087Y-3.1496
X5.7087Y-3.5433
X5.7087Y-3.937
X5.7087Y-4.3307
X5.7087Y-4.7244
X6.1024Y-2.7559
X6.1024Y-3.1496
X6.1024Y-3.5433
X6.1024Y-3.937
X6.1024Y-4.3307
X6.1024Y-4.7244
T2
X4.7244Y-3.3858
X4.7244Y-3.4646
X4.7244Y-3.5433
X4.7244Y-3.622
X4.7244Y-3.7008
X4.7244Y-3.7795
X4.7244Y-3.8583
X4.7244Y-3.937
X4.7244Y-4.0157
X4.7244Y-4.0945
T3
X5.3937Y-3.0906
X5.3937Y-4.3898
T0
M30
