%TF.GenerationSoftware,KiCad,Pcbnew,5.1.9-73d0e3b20d~88~ubuntu20.04.1*%
%TF.CreationDate,2021-01-12T14:06:49+01:00*%
%TF.ProjectId,MRS_Module_Host,4d52535f-4d6f-4647-956c-655f486f7374,1*%
%TF.SameCoordinates,Original*%
%TF.FileFunction,Copper,L2,Bot*%
%TF.FilePolarity,Positive*%
%FSLAX46Y46*%
G04 Gerber Fmt 4.6, Leading zero omitted, Abs format (unit mm)*
G04 Created by KiCad (PCBNEW 5.1.9-73d0e3b20d~88~ubuntu20.04.1) date 2021-01-12 14:06:49*
%MOMM*%
%LPD*%
G01*
G04 APERTURE LIST*
%TA.AperFunction,WasherPad*%
%ADD10C,2.000000*%
%TD*%
%TA.AperFunction,WasherPad*%
%ADD11C,1.800000*%
%TD*%
%TA.AperFunction,ComponentPad*%
%ADD12O,1.350000X1.350000*%
%TD*%
%TA.AperFunction,ComponentPad*%
%ADD13R,1.350000X1.350000*%
%TD*%
%TA.AperFunction,ComponentPad*%
%ADD14C,4.000000*%
%TD*%
%TA.AperFunction,ViaPad*%
%ADD15C,0.500000*%
%TD*%
%TA.AperFunction,Conductor*%
%ADD16C,0.250000*%
%TD*%
%TA.AperFunction,Conductor*%
%ADD17C,0.100000*%
%TD*%
G04 APERTURE END LIST*
D10*
%TO.P,J2,*%
%TO.N,*%
X106500000Y-84000000D03*
D11*
X102000000Y-84000000D03*
%TD*%
D12*
%TO.P,MODULE1,2*%
%TO.N,VBAT*%
X120000000Y-88000000D03*
%TO.P,MODULE1,10*%
%TO.N,GND*%
X120000000Y-104000000D03*
%TO.P,MODULE1,8*%
%TO.N,+5V*%
X120000000Y-100000000D03*
%TO.P,MODULE1,5*%
%TO.N,/FTDI_TX*%
X120000000Y-94000000D03*
%TO.P,MODULE1,9*%
%TO.N,+5V*%
X120000000Y-102000000D03*
%TO.P,MODULE1,6*%
%TO.N,/FTDI_RX*%
X120000000Y-96000000D03*
D13*
%TO.P,MODULE1,1*%
%TO.N,GND*%
X120000000Y-86000000D03*
D12*
%TO.P,MODULE1,7*%
X120000000Y-98000000D03*
%TO.P,MODULE1,3*%
%TO.N,VBAT*%
X120000000Y-90000000D03*
%TO.P,MODULE1,4*%
%TO.N,GND*%
X120000000Y-92000000D03*
D14*
%TO.P,MODULE1,0*%
X137000000Y-111500000D03*
X137000000Y-78500000D03*
%TD*%
D15*
%TO.N,+5V*%
X107300000Y-92300000D03*
X116300000Y-94300000D03*
%TO.N,GND*%
X110500000Y-94000000D03*
X112500000Y-96000000D03*
X110500000Y-96000000D03*
X112500000Y-94000000D03*
X111500000Y-95000000D03*
X115000000Y-70000000D03*
X120000000Y-70000000D03*
X125000000Y-70000000D03*
X135000000Y-70000000D03*
X145000000Y-70000000D03*
X155000000Y-70000000D03*
X145000000Y-80000000D03*
X155000000Y-80000000D03*
X125000000Y-85000000D03*
X120000000Y-80000000D03*
X125000000Y-80000000D03*
X125000000Y-75000000D03*
X115000000Y-75000000D03*
X120000000Y-75000000D03*
X110000000Y-85000000D03*
X105000000Y-85000000D03*
X100000000Y-85000000D03*
X104000000Y-95000000D03*
X115000000Y-100000000D03*
X100000000Y-105000000D03*
X115000000Y-120000000D03*
X115000000Y-115000000D03*
X115000000Y-110000000D03*
X110000000Y-110000000D03*
X120000000Y-110000000D03*
X125000000Y-110000000D03*
X125000000Y-115000000D03*
X120000000Y-115000000D03*
X120000000Y-120000000D03*
X125000000Y-120000000D03*
X135000000Y-120000000D03*
X145000000Y-120000000D03*
X155000000Y-120000000D03*
X125000000Y-105000000D03*
X155000000Y-110000000D03*
X145000000Y-110000000D03*
X155000000Y-100000000D03*
X145000000Y-100000000D03*
X135000000Y-100000000D03*
X145000000Y-90000000D03*
X155000000Y-90000000D03*
X135000000Y-90000000D03*
X101000000Y-95000000D03*
X98000000Y-95000000D03*
X107000000Y-97000000D03*
X101000000Y-99000000D03*
X105500000Y-97500000D03*
X106500000Y-97500000D03*
X107500000Y-97500000D03*
X108500000Y-97500000D03*
X102000000Y-98000000D03*
X101500000Y-98500000D03*
X100500000Y-99500000D03*
X103500000Y-100500000D03*
X103000000Y-101000000D03*
X103000000Y-102000000D03*
X107500000Y-100000000D03*
X108500000Y-100000000D03*
X109500000Y-100000000D03*
X110500000Y-100000000D03*
X111500000Y-100000000D03*
X112500000Y-100000000D03*
X113000000Y-99500000D03*
X113500000Y-99000000D03*
X114000000Y-98500000D03*
X107500000Y-102000000D03*
X109500000Y-102000000D03*
X112500000Y-102000000D03*
X109500000Y-106000000D03*
X107500000Y-106000000D03*
X112500000Y-106000000D03*
X115000000Y-106000000D03*
X117500000Y-104000000D03*
X103000000Y-110500000D03*
X123000000Y-100000000D03*
X123000000Y-102000000D03*
X123000000Y-104000000D03*
X123000000Y-98000000D03*
X123000000Y-86000000D03*
X123000000Y-88000000D03*
X123000000Y-90000000D03*
X123000000Y-92000000D03*
X123000000Y-94000000D03*
X123000000Y-96000000D03*
X106500000Y-94000000D03*
X105000000Y-87000000D03*
X110000000Y-87000000D03*
X105000000Y-90000000D03*
X110000000Y-90000000D03*
X100000000Y-90000000D03*
X100000000Y-89000000D03*
X105000000Y-89000000D03*
X110000000Y-89000000D03*
X100000000Y-87000000D03*
X100000000Y-88000000D03*
X105000000Y-88000000D03*
X110000000Y-88000000D03*
X110000000Y-86000000D03*
X105000000Y-86000000D03*
X100000000Y-86000000D03*
%TO.N,/FTDI_RX*%
X108000000Y-94200000D03*
X115500000Y-92300000D03*
%TO.N,/TXLED*%
X115500000Y-93250000D03*
X107199996Y-94600000D03*
%TO.N,/RXLED*%
X115500000Y-94250000D03*
X107200000Y-95400000D03*
%TD*%
D16*
%TO.N,+5V*%
X116300000Y-92100000D02*
X116300000Y-94300000D01*
X115300000Y-91100000D02*
X116300000Y-92100000D01*
X109700000Y-91100000D02*
X115300000Y-91100000D01*
X108500000Y-92300000D02*
X109700000Y-91100000D01*
X107300000Y-92300000D02*
X108500000Y-92300000D01*
%TO.N,/FTDI_RX*%
X114750000Y-91550000D02*
X115500000Y-92300000D01*
X109950000Y-91550000D02*
X114750000Y-91550000D01*
X108000000Y-93500000D02*
X109950000Y-91550000D01*
X108000000Y-94200000D02*
X108000000Y-93500000D01*
%TO.N,/TXLED*%
X115500000Y-93250000D02*
X114250000Y-92000000D01*
X110200000Y-92000000D02*
X108900000Y-93300000D01*
X114250000Y-92000000D02*
X110200000Y-92000000D01*
X108900000Y-93300000D02*
X108900000Y-94500000D01*
X108900000Y-94500000D02*
X108600000Y-94800000D01*
X108600000Y-94800000D02*
X107399996Y-94800000D01*
X107399996Y-94800000D02*
X107199996Y-94600000D01*
%TO.N,/RXLED*%
X108850000Y-95250000D02*
X108950000Y-95250000D01*
X113750000Y-92500000D02*
X115500000Y-94250000D01*
X110500000Y-92500000D02*
X113750000Y-92500000D01*
X109400000Y-93600000D02*
X110500000Y-92500000D01*
X109400000Y-94700000D02*
X109400000Y-93600000D01*
X108850000Y-95250000D02*
X109400000Y-94700000D01*
X108850000Y-95250000D02*
X107350000Y-95250000D01*
X107350000Y-95250000D02*
X107200000Y-95400000D01*
%TD*%
%TO.N,GND*%
X155261611Y-65678769D02*
X155513258Y-65754745D01*
X155745353Y-65878152D01*
X155949060Y-66044292D01*
X156116616Y-66246832D01*
X156241641Y-66478062D01*
X156319373Y-66729172D01*
X156350000Y-67020567D01*
X156350001Y-122968197D01*
X156321231Y-123261612D01*
X156245255Y-123513256D01*
X156121846Y-123745354D01*
X155955709Y-123949058D01*
X155753168Y-124116616D01*
X155521938Y-124241641D01*
X155270828Y-124319373D01*
X154979433Y-124350000D01*
X99031793Y-124350000D01*
X98738388Y-124321231D01*
X98486744Y-124245255D01*
X98254646Y-124121846D01*
X98050942Y-123955709D01*
X97883384Y-123753168D01*
X97758359Y-123521938D01*
X97680627Y-123270828D01*
X97650000Y-122979433D01*
X97650000Y-108089197D01*
X101875000Y-108089197D01*
X101875000Y-108310803D01*
X101918233Y-108528150D01*
X102003038Y-108732887D01*
X102126156Y-108917145D01*
X102282855Y-109073844D01*
X102467113Y-109196962D01*
X102671850Y-109281767D01*
X102889197Y-109325000D01*
X103110803Y-109325000D01*
X103328150Y-109281767D01*
X103532887Y-109196962D01*
X103717145Y-109073844D01*
X103873844Y-108917145D01*
X103996962Y-108732887D01*
X104081767Y-108528150D01*
X104125000Y-108310803D01*
X104125000Y-108089197D01*
X104081767Y-107871850D01*
X103996962Y-107667113D01*
X103873844Y-107482855D01*
X103717145Y-107326156D01*
X103532887Y-107203038D01*
X103328150Y-107118233D01*
X103110803Y-107075000D01*
X102889197Y-107075000D01*
X102671850Y-107118233D01*
X102467113Y-107203038D01*
X102282855Y-107326156D01*
X102126156Y-107482855D01*
X102003038Y-107667113D01*
X101918233Y-107871850D01*
X101875000Y-108089197D01*
X97650000Y-108089197D01*
X97650000Y-103689197D01*
X101875000Y-103689197D01*
X101875000Y-103910803D01*
X101918233Y-104128150D01*
X102003038Y-104332887D01*
X102126156Y-104517145D01*
X102282855Y-104673844D01*
X102467113Y-104796962D01*
X102671850Y-104881767D01*
X102889197Y-104925000D01*
X103110803Y-104925000D01*
X103328150Y-104881767D01*
X103532887Y-104796962D01*
X103717145Y-104673844D01*
X103873844Y-104517145D01*
X103996962Y-104332887D01*
X104081767Y-104128150D01*
X104125000Y-103910803D01*
X104125000Y-103689197D01*
X104081767Y-103471850D01*
X103996962Y-103267113D01*
X103873844Y-103082855D01*
X103717145Y-102926156D01*
X103532887Y-102803038D01*
X103328150Y-102718233D01*
X103110803Y-102675000D01*
X102889197Y-102675000D01*
X102671850Y-102718233D01*
X102467113Y-102803038D01*
X102282855Y-102926156D01*
X102126156Y-103082855D01*
X102003038Y-103267113D01*
X101918233Y-103471850D01*
X101875000Y-103689197D01*
X97650000Y-103689197D01*
X97650000Y-99871961D01*
X118700000Y-99871961D01*
X118700000Y-100128039D01*
X118749958Y-100379196D01*
X118847955Y-100615781D01*
X118990224Y-100828702D01*
X119161522Y-101000000D01*
X118990224Y-101171298D01*
X118847955Y-101384219D01*
X118749958Y-101620804D01*
X118700000Y-101871961D01*
X118700000Y-102128039D01*
X118749958Y-102379196D01*
X118847955Y-102615781D01*
X118990224Y-102828702D01*
X119171298Y-103009776D01*
X119384219Y-103152045D01*
X119620804Y-103250042D01*
X119871961Y-103300000D01*
X120128039Y-103300000D01*
X120379196Y-103250042D01*
X120615781Y-103152045D01*
X120828702Y-103009776D01*
X121009776Y-102828702D01*
X121152045Y-102615781D01*
X121250042Y-102379196D01*
X121300000Y-102128039D01*
X121300000Y-101871961D01*
X121250042Y-101620804D01*
X121152045Y-101384219D01*
X121009776Y-101171298D01*
X120838478Y-101000000D01*
X121009776Y-100828702D01*
X121152045Y-100615781D01*
X121250042Y-100379196D01*
X121300000Y-100128039D01*
X121300000Y-99871961D01*
X121250042Y-99620804D01*
X121152045Y-99384219D01*
X121009776Y-99171298D01*
X120828702Y-98990224D01*
X120615781Y-98847955D01*
X120379196Y-98749958D01*
X120128039Y-98700000D01*
X119871961Y-98700000D01*
X119620804Y-98749958D01*
X119384219Y-98847955D01*
X119171298Y-98990224D01*
X118990224Y-99171298D01*
X118847955Y-99384219D01*
X118749958Y-99620804D01*
X118700000Y-99871961D01*
X97650000Y-99871961D01*
X97650000Y-94513820D01*
X106324996Y-94513820D01*
X106324996Y-94686180D01*
X106358622Y-94855228D01*
X106418590Y-95000005D01*
X106358626Y-95144772D01*
X106325000Y-95313820D01*
X106325000Y-95486180D01*
X106358626Y-95655228D01*
X106424585Y-95814468D01*
X106520343Y-95957780D01*
X106642220Y-96079657D01*
X106785532Y-96175415D01*
X106944772Y-96241374D01*
X107113820Y-96275000D01*
X107286180Y-96275000D01*
X107455228Y-96241374D01*
X107614468Y-96175415D01*
X107757780Y-96079657D01*
X107837437Y-96000000D01*
X108813173Y-96000000D01*
X108850000Y-96003627D01*
X108886827Y-96000000D01*
X108986835Y-96000000D01*
X109097026Y-95989147D01*
X109238401Y-95946261D01*
X109368693Y-95876619D01*
X109482895Y-95782895D01*
X109576619Y-95668693D01*
X109646261Y-95538401D01*
X109656712Y-95503948D01*
X109904292Y-95256369D01*
X109932895Y-95232895D01*
X109956369Y-95204292D01*
X109956376Y-95204285D01*
X110026618Y-95118694D01*
X110026619Y-95118693D01*
X110096261Y-94988401D01*
X110139147Y-94847026D01*
X110150000Y-94736835D01*
X110150000Y-94736826D01*
X110153627Y-94700001D01*
X110150000Y-94663176D01*
X110150000Y-93910659D01*
X110810660Y-93250000D01*
X113439341Y-93250000D01*
X114649701Y-94460361D01*
X114658626Y-94505228D01*
X114724585Y-94664468D01*
X114820343Y-94807780D01*
X114942220Y-94929657D01*
X115085532Y-95025415D01*
X115244772Y-95091374D01*
X115413820Y-95125000D01*
X115586180Y-95125000D01*
X115755228Y-95091374D01*
X115850411Y-95051948D01*
X115885532Y-95075415D01*
X116044772Y-95141374D01*
X116213820Y-95175000D01*
X116386180Y-95175000D01*
X116555228Y-95141374D01*
X116714468Y-95075415D01*
X116857780Y-94979657D01*
X116979657Y-94857780D01*
X117075415Y-94714468D01*
X117141374Y-94555228D01*
X117175000Y-94386180D01*
X117175000Y-94213820D01*
X117141374Y-94044772D01*
X117075415Y-93885532D01*
X117066348Y-93871961D01*
X118700000Y-93871961D01*
X118700000Y-94128039D01*
X118749958Y-94379196D01*
X118847955Y-94615781D01*
X118990224Y-94828702D01*
X119161522Y-95000000D01*
X118990224Y-95171298D01*
X118847955Y-95384219D01*
X118749958Y-95620804D01*
X118700000Y-95871961D01*
X118700000Y-96128039D01*
X118749958Y-96379196D01*
X118847955Y-96615781D01*
X118990224Y-96828702D01*
X119171298Y-97009776D01*
X119384219Y-97152045D01*
X119620804Y-97250042D01*
X119871961Y-97300000D01*
X120128039Y-97300000D01*
X120379196Y-97250042D01*
X120615781Y-97152045D01*
X120828702Y-97009776D01*
X121009776Y-96828702D01*
X121152045Y-96615781D01*
X121250042Y-96379196D01*
X121300000Y-96128039D01*
X121300000Y-95871961D01*
X121250042Y-95620804D01*
X121152045Y-95384219D01*
X121009776Y-95171298D01*
X120838478Y-95000000D01*
X121009776Y-94828702D01*
X121152045Y-94615781D01*
X121250042Y-94379196D01*
X121300000Y-94128039D01*
X121300000Y-93871961D01*
X121250042Y-93620804D01*
X121152045Y-93384219D01*
X121009776Y-93171298D01*
X120828702Y-92990224D01*
X120615781Y-92847955D01*
X120379196Y-92749958D01*
X120128039Y-92700000D01*
X119871961Y-92700000D01*
X119620804Y-92749958D01*
X119384219Y-92847955D01*
X119171298Y-92990224D01*
X118990224Y-93171298D01*
X118847955Y-93384219D01*
X118749958Y-93620804D01*
X118700000Y-93871961D01*
X117066348Y-93871961D01*
X117050000Y-93847496D01*
X117050000Y-92136828D01*
X117053627Y-92100000D01*
X117050000Y-92063172D01*
X117050000Y-92063165D01*
X117039147Y-91952974D01*
X116996261Y-91811599D01*
X116926619Y-91681307D01*
X116863408Y-91604285D01*
X116856376Y-91595716D01*
X116856374Y-91595714D01*
X116832895Y-91567105D01*
X116804287Y-91543627D01*
X115856378Y-90595719D01*
X115832895Y-90567105D01*
X115718693Y-90473381D01*
X115588401Y-90403739D01*
X115447026Y-90360853D01*
X115336835Y-90350000D01*
X115336827Y-90350000D01*
X115300000Y-90346373D01*
X115263173Y-90350000D01*
X109736827Y-90350000D01*
X109699999Y-90346373D01*
X109663171Y-90350000D01*
X109663165Y-90350000D01*
X109567817Y-90359391D01*
X109552973Y-90360853D01*
X109520069Y-90370835D01*
X109411599Y-90403739D01*
X109281307Y-90473381D01*
X109241849Y-90505764D01*
X109195715Y-90543624D01*
X109195708Y-90543631D01*
X109167105Y-90567105D01*
X109143630Y-90595709D01*
X108189341Y-91550000D01*
X107752504Y-91550000D01*
X107714468Y-91524585D01*
X107555228Y-91458626D01*
X107386180Y-91425000D01*
X107213820Y-91425000D01*
X107044772Y-91458626D01*
X106885532Y-91524585D01*
X106742220Y-91620343D01*
X106620343Y-91742220D01*
X106524585Y-91885532D01*
X106458626Y-92044772D01*
X106425000Y-92213820D01*
X106425000Y-92386180D01*
X106458626Y-92555228D01*
X106524585Y-92714468D01*
X106620343Y-92857780D01*
X106742220Y-92979657D01*
X106885532Y-93075415D01*
X107044772Y-93141374D01*
X107213820Y-93175000D01*
X107323302Y-93175000D01*
X107303739Y-93211600D01*
X107276923Y-93300000D01*
X107260853Y-93352974D01*
X107250000Y-93463165D01*
X107250000Y-93463173D01*
X107246373Y-93500000D01*
X107250000Y-93536827D01*
X107250000Y-93725000D01*
X107113816Y-93725000D01*
X106944768Y-93758626D01*
X106785528Y-93824585D01*
X106642216Y-93920343D01*
X106520339Y-94042220D01*
X106424581Y-94185532D01*
X106358622Y-94344772D01*
X106324996Y-94513820D01*
X97650000Y-94513820D01*
X97650000Y-87871961D01*
X118700000Y-87871961D01*
X118700000Y-88128039D01*
X118749958Y-88379196D01*
X118847955Y-88615781D01*
X118990224Y-88828702D01*
X119161522Y-89000000D01*
X118990224Y-89171298D01*
X118847955Y-89384219D01*
X118749958Y-89620804D01*
X118700000Y-89871961D01*
X118700000Y-90128039D01*
X118749958Y-90379196D01*
X118847955Y-90615781D01*
X118990224Y-90828702D01*
X119171298Y-91009776D01*
X119384219Y-91152045D01*
X119620804Y-91250042D01*
X119871961Y-91300000D01*
X120128039Y-91300000D01*
X120379196Y-91250042D01*
X120615781Y-91152045D01*
X120828702Y-91009776D01*
X121009776Y-90828702D01*
X121152045Y-90615781D01*
X121250042Y-90379196D01*
X121300000Y-90128039D01*
X121300000Y-89871961D01*
X121250042Y-89620804D01*
X121152045Y-89384219D01*
X121009776Y-89171298D01*
X120838478Y-89000000D01*
X121009776Y-88828702D01*
X121152045Y-88615781D01*
X121250042Y-88379196D01*
X121300000Y-88128039D01*
X121300000Y-87871961D01*
X121250042Y-87620804D01*
X121152045Y-87384219D01*
X121009776Y-87171298D01*
X120828702Y-86990224D01*
X120615781Y-86847955D01*
X120379196Y-86749958D01*
X120128039Y-86700000D01*
X119871961Y-86700000D01*
X119620804Y-86749958D01*
X119384219Y-86847955D01*
X119171298Y-86990224D01*
X118990224Y-87171298D01*
X118847955Y-87384219D01*
X118749958Y-87620804D01*
X118700000Y-87871961D01*
X97650000Y-87871961D01*
X97650000Y-83849801D01*
X100475000Y-83849801D01*
X100475000Y-84150199D01*
X100533605Y-84444826D01*
X100648562Y-84722358D01*
X100815455Y-84972131D01*
X101027869Y-85184545D01*
X101277642Y-85351438D01*
X101555174Y-85466395D01*
X101849801Y-85525000D01*
X102150199Y-85525000D01*
X102444826Y-85466395D01*
X102722358Y-85351438D01*
X102972131Y-85184545D01*
X103184545Y-84972131D01*
X103351438Y-84722358D01*
X103466395Y-84444826D01*
X103525000Y-84150199D01*
X103525000Y-83849801D01*
X103523041Y-83839951D01*
X104875000Y-83839951D01*
X104875000Y-84160049D01*
X104937448Y-84473995D01*
X105059943Y-84769726D01*
X105237780Y-85035877D01*
X105464123Y-85262220D01*
X105730274Y-85440057D01*
X106026005Y-85562552D01*
X106339951Y-85625000D01*
X106660049Y-85625000D01*
X106973995Y-85562552D01*
X107269726Y-85440057D01*
X107535877Y-85262220D01*
X107762220Y-85035877D01*
X107940057Y-84769726D01*
X108062552Y-84473995D01*
X108125000Y-84160049D01*
X108125000Y-83839951D01*
X108062552Y-83526005D01*
X107940057Y-83230274D01*
X107762220Y-82964123D01*
X107535877Y-82737780D01*
X107269726Y-82559943D01*
X106973995Y-82437448D01*
X106660049Y-82375000D01*
X106339951Y-82375000D01*
X106026005Y-82437448D01*
X105730274Y-82559943D01*
X105464123Y-82737780D01*
X105237780Y-82964123D01*
X105059943Y-83230274D01*
X104937448Y-83526005D01*
X104875000Y-83839951D01*
X103523041Y-83839951D01*
X103466395Y-83555174D01*
X103351438Y-83277642D01*
X103184545Y-83027869D01*
X102972131Y-82815455D01*
X102722358Y-82648562D01*
X102444826Y-82533605D01*
X102150199Y-82475000D01*
X101849801Y-82475000D01*
X101555174Y-82533605D01*
X101277642Y-82648562D01*
X101027869Y-82815455D01*
X100815455Y-83027869D01*
X100648562Y-83277642D01*
X100533605Y-83555174D01*
X100475000Y-83849801D01*
X97650000Y-83849801D01*
X97650000Y-67031793D01*
X97678769Y-66738389D01*
X97754745Y-66486742D01*
X97878152Y-66254647D01*
X98044292Y-66050940D01*
X98246832Y-65883384D01*
X98478062Y-65758359D01*
X98729172Y-65680627D01*
X99020567Y-65650000D01*
X154968207Y-65650000D01*
X155261611Y-65678769D01*
%TA.AperFunction,Conductor*%
D17*
G36*
X155261611Y-65678769D02*
G01*
X155513258Y-65754745D01*
X155745353Y-65878152D01*
X155949060Y-66044292D01*
X156116616Y-66246832D01*
X156241641Y-66478062D01*
X156319373Y-66729172D01*
X156350000Y-67020567D01*
X156350001Y-122968197D01*
X156321231Y-123261612D01*
X156245255Y-123513256D01*
X156121846Y-123745354D01*
X155955709Y-123949058D01*
X155753168Y-124116616D01*
X155521938Y-124241641D01*
X155270828Y-124319373D01*
X154979433Y-124350000D01*
X99031793Y-124350000D01*
X98738388Y-124321231D01*
X98486744Y-124245255D01*
X98254646Y-124121846D01*
X98050942Y-123955709D01*
X97883384Y-123753168D01*
X97758359Y-123521938D01*
X97680627Y-123270828D01*
X97650000Y-122979433D01*
X97650000Y-108089197D01*
X101875000Y-108089197D01*
X101875000Y-108310803D01*
X101918233Y-108528150D01*
X102003038Y-108732887D01*
X102126156Y-108917145D01*
X102282855Y-109073844D01*
X102467113Y-109196962D01*
X102671850Y-109281767D01*
X102889197Y-109325000D01*
X103110803Y-109325000D01*
X103328150Y-109281767D01*
X103532887Y-109196962D01*
X103717145Y-109073844D01*
X103873844Y-108917145D01*
X103996962Y-108732887D01*
X104081767Y-108528150D01*
X104125000Y-108310803D01*
X104125000Y-108089197D01*
X104081767Y-107871850D01*
X103996962Y-107667113D01*
X103873844Y-107482855D01*
X103717145Y-107326156D01*
X103532887Y-107203038D01*
X103328150Y-107118233D01*
X103110803Y-107075000D01*
X102889197Y-107075000D01*
X102671850Y-107118233D01*
X102467113Y-107203038D01*
X102282855Y-107326156D01*
X102126156Y-107482855D01*
X102003038Y-107667113D01*
X101918233Y-107871850D01*
X101875000Y-108089197D01*
X97650000Y-108089197D01*
X97650000Y-103689197D01*
X101875000Y-103689197D01*
X101875000Y-103910803D01*
X101918233Y-104128150D01*
X102003038Y-104332887D01*
X102126156Y-104517145D01*
X102282855Y-104673844D01*
X102467113Y-104796962D01*
X102671850Y-104881767D01*
X102889197Y-104925000D01*
X103110803Y-104925000D01*
X103328150Y-104881767D01*
X103532887Y-104796962D01*
X103717145Y-104673844D01*
X103873844Y-104517145D01*
X103996962Y-104332887D01*
X104081767Y-104128150D01*
X104125000Y-103910803D01*
X104125000Y-103689197D01*
X104081767Y-103471850D01*
X103996962Y-103267113D01*
X103873844Y-103082855D01*
X103717145Y-102926156D01*
X103532887Y-102803038D01*
X103328150Y-102718233D01*
X103110803Y-102675000D01*
X102889197Y-102675000D01*
X102671850Y-102718233D01*
X102467113Y-102803038D01*
X102282855Y-102926156D01*
X102126156Y-103082855D01*
X102003038Y-103267113D01*
X101918233Y-103471850D01*
X101875000Y-103689197D01*
X97650000Y-103689197D01*
X97650000Y-99871961D01*
X118700000Y-99871961D01*
X118700000Y-100128039D01*
X118749958Y-100379196D01*
X118847955Y-100615781D01*
X118990224Y-100828702D01*
X119161522Y-101000000D01*
X118990224Y-101171298D01*
X118847955Y-101384219D01*
X118749958Y-101620804D01*
X118700000Y-101871961D01*
X118700000Y-102128039D01*
X118749958Y-102379196D01*
X118847955Y-102615781D01*
X118990224Y-102828702D01*
X119171298Y-103009776D01*
X119384219Y-103152045D01*
X119620804Y-103250042D01*
X119871961Y-103300000D01*
X120128039Y-103300000D01*
X120379196Y-103250042D01*
X120615781Y-103152045D01*
X120828702Y-103009776D01*
X121009776Y-102828702D01*
X121152045Y-102615781D01*
X121250042Y-102379196D01*
X121300000Y-102128039D01*
X121300000Y-101871961D01*
X121250042Y-101620804D01*
X121152045Y-101384219D01*
X121009776Y-101171298D01*
X120838478Y-101000000D01*
X121009776Y-100828702D01*
X121152045Y-100615781D01*
X121250042Y-100379196D01*
X121300000Y-100128039D01*
X121300000Y-99871961D01*
X121250042Y-99620804D01*
X121152045Y-99384219D01*
X121009776Y-99171298D01*
X120828702Y-98990224D01*
X120615781Y-98847955D01*
X120379196Y-98749958D01*
X120128039Y-98700000D01*
X119871961Y-98700000D01*
X119620804Y-98749958D01*
X119384219Y-98847955D01*
X119171298Y-98990224D01*
X118990224Y-99171298D01*
X118847955Y-99384219D01*
X118749958Y-99620804D01*
X118700000Y-99871961D01*
X97650000Y-99871961D01*
X97650000Y-94513820D01*
X106324996Y-94513820D01*
X106324996Y-94686180D01*
X106358622Y-94855228D01*
X106418590Y-95000005D01*
X106358626Y-95144772D01*
X106325000Y-95313820D01*
X106325000Y-95486180D01*
X106358626Y-95655228D01*
X106424585Y-95814468D01*
X106520343Y-95957780D01*
X106642220Y-96079657D01*
X106785532Y-96175415D01*
X106944772Y-96241374D01*
X107113820Y-96275000D01*
X107286180Y-96275000D01*
X107455228Y-96241374D01*
X107614468Y-96175415D01*
X107757780Y-96079657D01*
X107837437Y-96000000D01*
X108813173Y-96000000D01*
X108850000Y-96003627D01*
X108886827Y-96000000D01*
X108986835Y-96000000D01*
X109097026Y-95989147D01*
X109238401Y-95946261D01*
X109368693Y-95876619D01*
X109482895Y-95782895D01*
X109576619Y-95668693D01*
X109646261Y-95538401D01*
X109656712Y-95503948D01*
X109904292Y-95256369D01*
X109932895Y-95232895D01*
X109956369Y-95204292D01*
X109956376Y-95204285D01*
X110026618Y-95118694D01*
X110026619Y-95118693D01*
X110096261Y-94988401D01*
X110139147Y-94847026D01*
X110150000Y-94736835D01*
X110150000Y-94736826D01*
X110153627Y-94700001D01*
X110150000Y-94663176D01*
X110150000Y-93910659D01*
X110810660Y-93250000D01*
X113439341Y-93250000D01*
X114649701Y-94460361D01*
X114658626Y-94505228D01*
X114724585Y-94664468D01*
X114820343Y-94807780D01*
X114942220Y-94929657D01*
X115085532Y-95025415D01*
X115244772Y-95091374D01*
X115413820Y-95125000D01*
X115586180Y-95125000D01*
X115755228Y-95091374D01*
X115850411Y-95051948D01*
X115885532Y-95075415D01*
X116044772Y-95141374D01*
X116213820Y-95175000D01*
X116386180Y-95175000D01*
X116555228Y-95141374D01*
X116714468Y-95075415D01*
X116857780Y-94979657D01*
X116979657Y-94857780D01*
X117075415Y-94714468D01*
X117141374Y-94555228D01*
X117175000Y-94386180D01*
X117175000Y-94213820D01*
X117141374Y-94044772D01*
X117075415Y-93885532D01*
X117066348Y-93871961D01*
X118700000Y-93871961D01*
X118700000Y-94128039D01*
X118749958Y-94379196D01*
X118847955Y-94615781D01*
X118990224Y-94828702D01*
X119161522Y-95000000D01*
X118990224Y-95171298D01*
X118847955Y-95384219D01*
X118749958Y-95620804D01*
X118700000Y-95871961D01*
X118700000Y-96128039D01*
X118749958Y-96379196D01*
X118847955Y-96615781D01*
X118990224Y-96828702D01*
X119171298Y-97009776D01*
X119384219Y-97152045D01*
X119620804Y-97250042D01*
X119871961Y-97300000D01*
X120128039Y-97300000D01*
X120379196Y-97250042D01*
X120615781Y-97152045D01*
X120828702Y-97009776D01*
X121009776Y-96828702D01*
X121152045Y-96615781D01*
X121250042Y-96379196D01*
X121300000Y-96128039D01*
X121300000Y-95871961D01*
X121250042Y-95620804D01*
X121152045Y-95384219D01*
X121009776Y-95171298D01*
X120838478Y-95000000D01*
X121009776Y-94828702D01*
X121152045Y-94615781D01*
X121250042Y-94379196D01*
X121300000Y-94128039D01*
X121300000Y-93871961D01*
X121250042Y-93620804D01*
X121152045Y-93384219D01*
X121009776Y-93171298D01*
X120828702Y-92990224D01*
X120615781Y-92847955D01*
X120379196Y-92749958D01*
X120128039Y-92700000D01*
X119871961Y-92700000D01*
X119620804Y-92749958D01*
X119384219Y-92847955D01*
X119171298Y-92990224D01*
X118990224Y-93171298D01*
X118847955Y-93384219D01*
X118749958Y-93620804D01*
X118700000Y-93871961D01*
X117066348Y-93871961D01*
X117050000Y-93847496D01*
X117050000Y-92136828D01*
X117053627Y-92100000D01*
X117050000Y-92063172D01*
X117050000Y-92063165D01*
X117039147Y-91952974D01*
X116996261Y-91811599D01*
X116926619Y-91681307D01*
X116863408Y-91604285D01*
X116856376Y-91595716D01*
X116856374Y-91595714D01*
X116832895Y-91567105D01*
X116804287Y-91543627D01*
X115856378Y-90595719D01*
X115832895Y-90567105D01*
X115718693Y-90473381D01*
X115588401Y-90403739D01*
X115447026Y-90360853D01*
X115336835Y-90350000D01*
X115336827Y-90350000D01*
X115300000Y-90346373D01*
X115263173Y-90350000D01*
X109736827Y-90350000D01*
X109699999Y-90346373D01*
X109663171Y-90350000D01*
X109663165Y-90350000D01*
X109567817Y-90359391D01*
X109552973Y-90360853D01*
X109520069Y-90370835D01*
X109411599Y-90403739D01*
X109281307Y-90473381D01*
X109241849Y-90505764D01*
X109195715Y-90543624D01*
X109195708Y-90543631D01*
X109167105Y-90567105D01*
X109143630Y-90595709D01*
X108189341Y-91550000D01*
X107752504Y-91550000D01*
X107714468Y-91524585D01*
X107555228Y-91458626D01*
X107386180Y-91425000D01*
X107213820Y-91425000D01*
X107044772Y-91458626D01*
X106885532Y-91524585D01*
X106742220Y-91620343D01*
X106620343Y-91742220D01*
X106524585Y-91885532D01*
X106458626Y-92044772D01*
X106425000Y-92213820D01*
X106425000Y-92386180D01*
X106458626Y-92555228D01*
X106524585Y-92714468D01*
X106620343Y-92857780D01*
X106742220Y-92979657D01*
X106885532Y-93075415D01*
X107044772Y-93141374D01*
X107213820Y-93175000D01*
X107323302Y-93175000D01*
X107303739Y-93211600D01*
X107276923Y-93300000D01*
X107260853Y-93352974D01*
X107250000Y-93463165D01*
X107250000Y-93463173D01*
X107246373Y-93500000D01*
X107250000Y-93536827D01*
X107250000Y-93725000D01*
X107113816Y-93725000D01*
X106944768Y-93758626D01*
X106785528Y-93824585D01*
X106642216Y-93920343D01*
X106520339Y-94042220D01*
X106424581Y-94185532D01*
X106358622Y-94344772D01*
X106324996Y-94513820D01*
X97650000Y-94513820D01*
X97650000Y-87871961D01*
X118700000Y-87871961D01*
X118700000Y-88128039D01*
X118749958Y-88379196D01*
X118847955Y-88615781D01*
X118990224Y-88828702D01*
X119161522Y-89000000D01*
X118990224Y-89171298D01*
X118847955Y-89384219D01*
X118749958Y-89620804D01*
X118700000Y-89871961D01*
X118700000Y-90128039D01*
X118749958Y-90379196D01*
X118847955Y-90615781D01*
X118990224Y-90828702D01*
X119171298Y-91009776D01*
X119384219Y-91152045D01*
X119620804Y-91250042D01*
X119871961Y-91300000D01*
X120128039Y-91300000D01*
X120379196Y-91250042D01*
X120615781Y-91152045D01*
X120828702Y-91009776D01*
X121009776Y-90828702D01*
X121152045Y-90615781D01*
X121250042Y-90379196D01*
X121300000Y-90128039D01*
X121300000Y-89871961D01*
X121250042Y-89620804D01*
X121152045Y-89384219D01*
X121009776Y-89171298D01*
X120838478Y-89000000D01*
X121009776Y-88828702D01*
X121152045Y-88615781D01*
X121250042Y-88379196D01*
X121300000Y-88128039D01*
X121300000Y-87871961D01*
X121250042Y-87620804D01*
X121152045Y-87384219D01*
X121009776Y-87171298D01*
X120828702Y-86990224D01*
X120615781Y-86847955D01*
X120379196Y-86749958D01*
X120128039Y-86700000D01*
X119871961Y-86700000D01*
X119620804Y-86749958D01*
X119384219Y-86847955D01*
X119171298Y-86990224D01*
X118990224Y-87171298D01*
X118847955Y-87384219D01*
X118749958Y-87620804D01*
X118700000Y-87871961D01*
X97650000Y-87871961D01*
X97650000Y-83849801D01*
X100475000Y-83849801D01*
X100475000Y-84150199D01*
X100533605Y-84444826D01*
X100648562Y-84722358D01*
X100815455Y-84972131D01*
X101027869Y-85184545D01*
X101277642Y-85351438D01*
X101555174Y-85466395D01*
X101849801Y-85525000D01*
X102150199Y-85525000D01*
X102444826Y-85466395D01*
X102722358Y-85351438D01*
X102972131Y-85184545D01*
X103184545Y-84972131D01*
X103351438Y-84722358D01*
X103466395Y-84444826D01*
X103525000Y-84150199D01*
X103525000Y-83849801D01*
X103523041Y-83839951D01*
X104875000Y-83839951D01*
X104875000Y-84160049D01*
X104937448Y-84473995D01*
X105059943Y-84769726D01*
X105237780Y-85035877D01*
X105464123Y-85262220D01*
X105730274Y-85440057D01*
X106026005Y-85562552D01*
X106339951Y-85625000D01*
X106660049Y-85625000D01*
X106973995Y-85562552D01*
X107269726Y-85440057D01*
X107535877Y-85262220D01*
X107762220Y-85035877D01*
X107940057Y-84769726D01*
X108062552Y-84473995D01*
X108125000Y-84160049D01*
X108125000Y-83839951D01*
X108062552Y-83526005D01*
X107940057Y-83230274D01*
X107762220Y-82964123D01*
X107535877Y-82737780D01*
X107269726Y-82559943D01*
X106973995Y-82437448D01*
X106660049Y-82375000D01*
X106339951Y-82375000D01*
X106026005Y-82437448D01*
X105730274Y-82559943D01*
X105464123Y-82737780D01*
X105237780Y-82964123D01*
X105059943Y-83230274D01*
X104937448Y-83526005D01*
X104875000Y-83839951D01*
X103523041Y-83839951D01*
X103466395Y-83555174D01*
X103351438Y-83277642D01*
X103184545Y-83027869D01*
X102972131Y-82815455D01*
X102722358Y-82648562D01*
X102444826Y-82533605D01*
X102150199Y-82475000D01*
X101849801Y-82475000D01*
X101555174Y-82533605D01*
X101277642Y-82648562D01*
X101027869Y-82815455D01*
X100815455Y-83027869D01*
X100648562Y-83277642D01*
X100533605Y-83555174D01*
X100475000Y-83849801D01*
X97650000Y-83849801D01*
X97650000Y-67031793D01*
X97678769Y-66738389D01*
X97754745Y-66486742D01*
X97878152Y-66254647D01*
X98044292Y-66050940D01*
X98246832Y-65883384D01*
X98478062Y-65758359D01*
X98729172Y-65680627D01*
X99020567Y-65650000D01*
X154968207Y-65650000D01*
X155261611Y-65678769D01*
G37*
%TD.AperFunction*%
%TD*%
M02*
