%TF.GenerationSoftware,KiCad,Pcbnew,5.1.9-73d0e3b20d~88~ubuntu20.04.1*%
%TF.CreationDate,2021-01-12T14:06:49+01:00*%
%TF.ProjectId,MRS_Module_Host,4d52535f-4d6f-4647-956c-655f486f7374,1*%
%TF.SameCoordinates,Original*%
%TF.FileFunction,Legend,Top*%
%TF.FilePolarity,Positive*%
%FSLAX46Y46*%
G04 Gerber Fmt 4.6, Leading zero omitted, Abs format (unit mm)*
G04 Created by KiCad (PCBNEW 5.1.9-73d0e3b20d~88~ubuntu20.04.1) date 2021-01-12 14:06:49*
%MOMM*%
%LPD*%
G01*
G04 APERTURE LIST*
%ADD10C,0.150000*%
%ADD11C,0.250000*%
%ADD12C,0.120000*%
%ADD13C,0.010000*%
%ADD14C,0.500000*%
G04 APERTURE END LIST*
D10*
X99683333Y-113616666D02*
X100150000Y-113616666D01*
X100016666Y-113616666D02*
X100083333Y-113650000D01*
X100116666Y-113683333D01*
X100150000Y-113750000D01*
X100150000Y-113816666D01*
X99716666Y-114316666D02*
X99683333Y-114250000D01*
X99683333Y-114116666D01*
X99716666Y-114050000D01*
X99783333Y-114016666D01*
X100050000Y-114016666D01*
X100116666Y-114050000D01*
X100150000Y-114116666D01*
X100150000Y-114250000D01*
X100116666Y-114316666D01*
X100050000Y-114350000D01*
X99983333Y-114350000D01*
X99916666Y-114016666D01*
X100150000Y-114583333D02*
X99683333Y-114750000D01*
X100150000Y-114916666D01*
X99750000Y-115183333D02*
X99716666Y-115216666D01*
X99683333Y-115183333D01*
X99716666Y-115150000D01*
X99750000Y-115183333D01*
X99683333Y-115183333D01*
X99683333Y-116416666D02*
X99683333Y-116016666D01*
X99683333Y-116216666D02*
X100383333Y-116216666D01*
X100283333Y-116150000D01*
X100216666Y-116083333D01*
X100183333Y-116016666D01*
D11*
X101047619Y-113476190D02*
X102047619Y-113476190D01*
X101333333Y-113809523D01*
X102047619Y-114142857D01*
X101047619Y-114142857D01*
X102047619Y-114809523D02*
X102047619Y-115000000D01*
X102000000Y-115095238D01*
X101904761Y-115190476D01*
X101714285Y-115238095D01*
X101380952Y-115238095D01*
X101190476Y-115190476D01*
X101095238Y-115095238D01*
X101047619Y-115000000D01*
X101047619Y-114809523D01*
X101095238Y-114714285D01*
X101190476Y-114619047D01*
X101380952Y-114571428D01*
X101714285Y-114571428D01*
X101904761Y-114619047D01*
X102000000Y-114714285D01*
X102047619Y-114809523D01*
X101047619Y-115666666D02*
X102047619Y-115666666D01*
X102047619Y-115904761D01*
X102000000Y-116047619D01*
X101904761Y-116142857D01*
X101809523Y-116190476D01*
X101619047Y-116238095D01*
X101476190Y-116238095D01*
X101285714Y-116190476D01*
X101190476Y-116142857D01*
X101095238Y-116047619D01*
X101047619Y-115904761D01*
X101047619Y-115666666D01*
X102047619Y-116666666D02*
X101238095Y-116666666D01*
X101142857Y-116714285D01*
X101095238Y-116761904D01*
X101047619Y-116857142D01*
X101047619Y-117047619D01*
X101095238Y-117142857D01*
X101142857Y-117190476D01*
X101238095Y-117238095D01*
X102047619Y-117238095D01*
X101047619Y-118190476D02*
X101047619Y-117714285D01*
X102047619Y-117714285D01*
X101571428Y-118523809D02*
X101571428Y-118857142D01*
X101047619Y-119000000D02*
X101047619Y-118523809D01*
X102047619Y-118523809D01*
X102047619Y-119000000D01*
X101047619Y-120190476D02*
X102047619Y-120190476D01*
X101571428Y-120190476D02*
X101571428Y-120761904D01*
X101047619Y-120761904D02*
X102047619Y-120761904D01*
X102047619Y-121428571D02*
X102047619Y-121619047D01*
X102000000Y-121714285D01*
X101904761Y-121809523D01*
X101714285Y-121857142D01*
X101380952Y-121857142D01*
X101190476Y-121809523D01*
X101095238Y-121714285D01*
X101047619Y-121619047D01*
X101047619Y-121428571D01*
X101095238Y-121333333D01*
X101190476Y-121238095D01*
X101380952Y-121190476D01*
X101714285Y-121190476D01*
X101904761Y-121238095D01*
X102000000Y-121333333D01*
X102047619Y-121428571D01*
X101095238Y-122238095D02*
X101047619Y-122380952D01*
X101047619Y-122619047D01*
X101095238Y-122714285D01*
X101142857Y-122761904D01*
X101238095Y-122809523D01*
X101333333Y-122809523D01*
X101428571Y-122761904D01*
X101476190Y-122714285D01*
X101523809Y-122619047D01*
X101571428Y-122428571D01*
X101619047Y-122333333D01*
X101666666Y-122285714D01*
X101761904Y-122238095D01*
X101857142Y-122238095D01*
X101952380Y-122285714D01*
X102000000Y-122333333D01*
X102047619Y-122428571D01*
X102047619Y-122666666D01*
X102000000Y-122809523D01*
X102047619Y-123095238D02*
X102047619Y-123666666D01*
X101047619Y-123380952D02*
X102047619Y-123380952D01*
D10*
X97833333Y-97202380D02*
X97500000Y-96726190D01*
X97261904Y-97202380D02*
X97261904Y-96202380D01*
X97642857Y-96202380D01*
X97738095Y-96250000D01*
X97785714Y-96297619D01*
X97833333Y-96392857D01*
X97833333Y-96535714D01*
X97785714Y-96630952D01*
X97738095Y-96678571D01*
X97642857Y-96726190D01*
X97261904Y-96726190D01*
X98166666Y-96202380D02*
X98833333Y-97202380D01*
X98833333Y-96202380D02*
X98166666Y-97202380D01*
X97238095Y-92702380D02*
X97809523Y-92702380D01*
X97523809Y-93702380D02*
X97523809Y-92702380D01*
X98047619Y-92702380D02*
X98714285Y-93702380D01*
X98714285Y-92702380D02*
X98047619Y-93702380D01*
%TO.C,J2*%
X112000000Y-79500000D02*
X112000000Y-88500000D01*
X112000000Y-88500000D02*
X109250000Y-88500000D01*
X112000000Y-79500000D02*
X109250000Y-79500000D01*
X103250000Y-79500000D02*
X106750000Y-79500000D01*
X103250000Y-88500000D02*
X106750000Y-88500000D01*
X97500000Y-88500000D02*
X100750000Y-88500000D01*
X97500000Y-79500000D02*
X100750000Y-79500000D01*
X97000000Y-88000000D02*
X97000000Y-80000000D01*
X97000000Y-80000000D02*
G75*
G02*
X97500000Y-79500000I500000J0D01*
G01*
X97500000Y-88500000D02*
G75*
G02*
X97000000Y-88000000I0J500000D01*
G01*
D12*
%TO.C,MODULE1*%
X120000000Y-84940000D02*
X121060000Y-84940000D01*
X121060000Y-87000000D02*
X121060000Y-105060000D01*
X121060000Y-84940000D02*
X121060000Y-86000000D01*
X118940000Y-105060000D02*
X121060000Y-105060000D01*
X118940000Y-87000000D02*
X118940000Y-105060000D01*
X118940000Y-87000000D02*
X121060000Y-87000000D01*
D13*
%TO.C,LOGO2*%
G36*
X102090440Y-67219909D02*
G01*
X102064501Y-67272412D01*
X102019300Y-67337158D01*
X101970009Y-67384347D01*
X101908115Y-67416665D01*
X101825104Y-67436797D01*
X101712462Y-67447430D01*
X101561676Y-67451247D01*
X101496851Y-67451470D01*
X101354779Y-67450818D01*
X101253243Y-67448112D01*
X101182985Y-67442224D01*
X101134744Y-67432027D01*
X101099262Y-67416394D01*
X101075057Y-67400128D01*
X100972071Y-67296295D01*
X100910126Y-67174021D01*
X100891494Y-67042114D01*
X100918451Y-66909384D01*
X100937514Y-66867333D01*
X100989985Y-66766666D01*
X100167741Y-66766666D01*
X100205733Y-66840135D01*
X100235128Y-66936941D01*
X100242658Y-67055928D01*
X100228755Y-67174745D01*
X100197524Y-67264473D01*
X100138046Y-67338899D01*
X100052934Y-67402490D01*
X100044195Y-67407271D01*
X100003034Y-67427437D01*
X99961546Y-67442165D01*
X99911287Y-67452303D01*
X99843816Y-67458699D01*
X99750691Y-67462201D01*
X99623469Y-67463658D01*
X99480299Y-67463921D01*
X99023529Y-67463921D01*
X99023529Y-67190000D01*
X99865769Y-67190000D01*
X99930237Y-67113383D01*
X99981806Y-67033793D01*
X99991182Y-66958422D01*
X99967053Y-66882633D01*
X99943426Y-66842241D01*
X99909773Y-66812179D01*
X99858913Y-66790797D01*
X99783666Y-66776450D01*
X99676854Y-66767490D01*
X99531296Y-66762270D01*
X99434412Y-66760431D01*
X99035980Y-66754215D01*
X99028453Y-66623480D01*
X99020927Y-66492745D01*
X101493418Y-66492745D01*
X101493418Y-66766666D01*
X101355577Y-66773650D01*
X101259893Y-66797182D01*
X101200359Y-66841135D01*
X101170971Y-66909382D01*
X101165098Y-66978333D01*
X101171846Y-67056386D01*
X101198406Y-67108189D01*
X101233501Y-67140583D01*
X101271248Y-67166084D01*
X101313300Y-67181265D01*
X101372221Y-67188019D01*
X101460572Y-67188241D01*
X101534552Y-67185968D01*
X101646000Y-67180749D01*
X101719167Y-67172979D01*
X101765578Y-67159895D01*
X101796756Y-67138732D01*
X101814777Y-67118760D01*
X101854075Y-67035314D01*
X101860421Y-66936551D01*
X101846884Y-66879841D01*
X101798767Y-66823692D01*
X101705167Y-66786499D01*
X101566746Y-66768472D01*
X101493418Y-66766666D01*
X101493418Y-66492745D01*
X102111372Y-66492745D01*
X102111372Y-66629705D01*
X102108121Y-66711935D01*
X102096574Y-66754360D01*
X102074048Y-66766661D01*
X102073380Y-66766666D01*
X102051319Y-66772374D01*
X102053824Y-66797547D01*
X102078065Y-66847598D01*
X102115149Y-66964219D01*
X102119047Y-67095429D01*
X102090440Y-67219909D01*
G37*
X102090440Y-67219909D02*
X102064501Y-67272412D01*
X102019300Y-67337158D01*
X101970009Y-67384347D01*
X101908115Y-67416665D01*
X101825104Y-67436797D01*
X101712462Y-67447430D01*
X101561676Y-67451247D01*
X101496851Y-67451470D01*
X101354779Y-67450818D01*
X101253243Y-67448112D01*
X101182985Y-67442224D01*
X101134744Y-67432027D01*
X101099262Y-67416394D01*
X101075057Y-67400128D01*
X100972071Y-67296295D01*
X100910126Y-67174021D01*
X100891494Y-67042114D01*
X100918451Y-66909384D01*
X100937514Y-66867333D01*
X100989985Y-66766666D01*
X100167741Y-66766666D01*
X100205733Y-66840135D01*
X100235128Y-66936941D01*
X100242658Y-67055928D01*
X100228755Y-67174745D01*
X100197524Y-67264473D01*
X100138046Y-67338899D01*
X100052934Y-67402490D01*
X100044195Y-67407271D01*
X100003034Y-67427437D01*
X99961546Y-67442165D01*
X99911287Y-67452303D01*
X99843816Y-67458699D01*
X99750691Y-67462201D01*
X99623469Y-67463658D01*
X99480299Y-67463921D01*
X99023529Y-67463921D01*
X99023529Y-67190000D01*
X99865769Y-67190000D01*
X99930237Y-67113383D01*
X99981806Y-67033793D01*
X99991182Y-66958422D01*
X99967053Y-66882633D01*
X99943426Y-66842241D01*
X99909773Y-66812179D01*
X99858913Y-66790797D01*
X99783666Y-66776450D01*
X99676854Y-66767490D01*
X99531296Y-66762270D01*
X99434412Y-66760431D01*
X99035980Y-66754215D01*
X99028453Y-66623480D01*
X99020927Y-66492745D01*
X101493418Y-66492745D01*
X101493418Y-66766666D01*
X101355577Y-66773650D01*
X101259893Y-66797182D01*
X101200359Y-66841135D01*
X101170971Y-66909382D01*
X101165098Y-66978333D01*
X101171846Y-67056386D01*
X101198406Y-67108189D01*
X101233501Y-67140583D01*
X101271248Y-67166084D01*
X101313300Y-67181265D01*
X101372221Y-67188019D01*
X101460572Y-67188241D01*
X101534552Y-67185968D01*
X101646000Y-67180749D01*
X101719167Y-67172979D01*
X101765578Y-67159895D01*
X101796756Y-67138732D01*
X101814777Y-67118760D01*
X101854075Y-67035314D01*
X101860421Y-66936551D01*
X101846884Y-66879841D01*
X101798767Y-66823692D01*
X101705167Y-66786499D01*
X101566746Y-66768472D01*
X101493418Y-66766666D01*
X101493418Y-66492745D01*
X102111372Y-66492745D01*
X102111372Y-66629705D01*
X102108121Y-66711935D01*
X102096574Y-66754360D01*
X102074048Y-66766661D01*
X102073380Y-66766666D01*
X102051319Y-66772374D01*
X102053824Y-66797547D01*
X102078065Y-66847598D01*
X102115149Y-66964219D01*
X102119047Y-67095429D01*
X102090440Y-67219909D01*
G36*
X100234078Y-68258720D02*
G01*
X100202820Y-68375870D01*
X100146163Y-68465051D01*
X100071955Y-68527984D01*
X100040284Y-68547548D01*
X100007109Y-68561992D01*
X99964671Y-68572089D01*
X99905212Y-68578615D01*
X99820971Y-68582342D01*
X99704190Y-68584046D01*
X99547110Y-68584500D01*
X99505435Y-68584509D01*
X99023529Y-68584509D01*
X99023529Y-68464980D01*
X99028869Y-68388739D01*
X99042396Y-68332366D01*
X99050738Y-68318242D01*
X99065136Y-68279630D01*
X99050738Y-68240192D01*
X99032763Y-68175262D01*
X99025528Y-68080945D01*
X99028667Y-67976407D01*
X99041814Y-67880811D01*
X99058682Y-67825000D01*
X99128014Y-67716998D01*
X99224228Y-67649503D01*
X99352156Y-67619159D01*
X99355441Y-67618877D01*
X99412192Y-67621540D01*
X99412192Y-67862353D01*
X99347642Y-67883405D01*
X99311314Y-67917697D01*
X99283838Y-67986532D01*
X99272871Y-68077390D01*
X99278269Y-68170042D01*
X99299890Y-68244256D01*
X99313761Y-68265049D01*
X99377857Y-68301381D01*
X99450722Y-68310588D01*
X99546470Y-68310588D01*
X99546470Y-68172827D01*
X99536395Y-68041953D01*
X99507852Y-67942741D01*
X99463361Y-67881023D01*
X99412192Y-67862353D01*
X99412192Y-67621540D01*
X99495210Y-67625436D01*
X99605718Y-67671534D01*
X99689288Y-67758200D01*
X99696890Y-67770179D01*
X99721643Y-67821655D01*
X99736632Y-67885368D01*
X99743918Y-67974435D01*
X99745593Y-68080245D01*
X99745686Y-68310588D01*
X99842245Y-68310588D01*
X99917164Y-68300817D01*
X99967356Y-68275884D01*
X99970028Y-68272965D01*
X99991985Y-68217481D01*
X100000495Y-68133727D01*
X99996313Y-68041167D01*
X99980191Y-67959270D01*
X99956010Y-67910673D01*
X99936641Y-67884341D01*
X99932943Y-67856535D01*
X99948812Y-67818161D01*
X99988145Y-67760125D01*
X100054836Y-67673331D01*
X100061084Y-67665365D01*
X100084200Y-67669447D01*
X100122648Y-67703501D01*
X100165373Y-67755260D01*
X100201321Y-67812455D01*
X100209809Y-67830425D01*
X100226748Y-67895972D01*
X100238830Y-67992020D01*
X100243677Y-68099329D01*
X100243687Y-68104347D01*
X100234078Y-68258720D01*
G37*
X100234078Y-68258720D02*
X100202820Y-68375870D01*
X100146163Y-68465051D01*
X100071955Y-68527984D01*
X100040284Y-68547548D01*
X100007109Y-68561992D01*
X99964671Y-68572089D01*
X99905212Y-68578615D01*
X99820971Y-68582342D01*
X99704190Y-68584046D01*
X99547110Y-68584500D01*
X99505435Y-68584509D01*
X99023529Y-68584509D01*
X99023529Y-68464980D01*
X99028869Y-68388739D01*
X99042396Y-68332366D01*
X99050738Y-68318242D01*
X99065136Y-68279630D01*
X99050738Y-68240192D01*
X99032763Y-68175262D01*
X99025528Y-68080945D01*
X99028667Y-67976407D01*
X99041814Y-67880811D01*
X99058682Y-67825000D01*
X99128014Y-67716998D01*
X99224228Y-67649503D01*
X99352156Y-67619159D01*
X99355441Y-67618877D01*
X99412192Y-67621540D01*
X99412192Y-67862353D01*
X99347642Y-67883405D01*
X99311314Y-67917697D01*
X99283838Y-67986532D01*
X99272871Y-68077390D01*
X99278269Y-68170042D01*
X99299890Y-68244256D01*
X99313761Y-68265049D01*
X99377857Y-68301381D01*
X99450722Y-68310588D01*
X99546470Y-68310588D01*
X99546470Y-68172827D01*
X99536395Y-68041953D01*
X99507852Y-67942741D01*
X99463361Y-67881023D01*
X99412192Y-67862353D01*
X99412192Y-67621540D01*
X99495210Y-67625436D01*
X99605718Y-67671534D01*
X99689288Y-67758200D01*
X99696890Y-67770179D01*
X99721643Y-67821655D01*
X99736632Y-67885368D01*
X99743918Y-67974435D01*
X99745593Y-68080245D01*
X99745686Y-68310588D01*
X99842245Y-68310588D01*
X99917164Y-68300817D01*
X99967356Y-68275884D01*
X99970028Y-68272965D01*
X99991985Y-68217481D01*
X100000495Y-68133727D01*
X99996313Y-68041167D01*
X99980191Y-67959270D01*
X99956010Y-67910673D01*
X99936641Y-67884341D01*
X99932943Y-67856535D01*
X99948812Y-67818161D01*
X99988145Y-67760125D01*
X100054836Y-67673331D01*
X100061084Y-67665365D01*
X100084200Y-67669447D01*
X100122648Y-67703501D01*
X100165373Y-67755260D01*
X100201321Y-67812455D01*
X100209809Y-67830425D01*
X100226748Y-67895972D01*
X100238830Y-67992020D01*
X100243677Y-68099329D01*
X100243687Y-68104347D01*
X100234078Y-68258720D01*
G36*
X100241079Y-69032764D02*
G01*
X100229909Y-69070030D01*
X100205367Y-69082043D01*
X100194288Y-69082549D01*
X100163428Y-69084704D01*
X100158583Y-69099551D01*
X100179740Y-69139657D01*
X100194194Y-69163480D01*
X100225150Y-69238638D01*
X100240456Y-69328406D01*
X100241633Y-69422529D01*
X100230201Y-69510754D01*
X100207680Y-69582826D01*
X100175591Y-69628492D01*
X100135455Y-69637498D01*
X100124585Y-69632953D01*
X100079466Y-69599821D01*
X100023974Y-69548445D01*
X100015004Y-69539152D01*
X99973755Y-69490182D01*
X99960428Y-69447931D01*
X99969729Y-69388841D01*
X99975910Y-69365169D01*
X99990754Y-69291504D01*
X99984079Y-69239710D01*
X99960535Y-69195969D01*
X99928939Y-69155902D01*
X99889202Y-69126392D01*
X99833748Y-69105884D01*
X99754997Y-69092824D01*
X99645371Y-69085656D01*
X99497294Y-69082824D01*
X99407889Y-69082549D01*
X99023529Y-69082549D01*
X99023529Y-68833529D01*
X100243725Y-68833529D01*
X100243725Y-68958039D01*
X100241079Y-69032764D01*
G37*
X100241079Y-69032764D02*
X100229909Y-69070030D01*
X100205367Y-69082043D01*
X100194288Y-69082549D01*
X100163428Y-69084704D01*
X100158583Y-69099551D01*
X100179740Y-69139657D01*
X100194194Y-69163480D01*
X100225150Y-69238638D01*
X100240456Y-69328406D01*
X100241633Y-69422529D01*
X100230201Y-69510754D01*
X100207680Y-69582826D01*
X100175591Y-69628492D01*
X100135455Y-69637498D01*
X100124585Y-69632953D01*
X100079466Y-69599821D01*
X100023974Y-69548445D01*
X100015004Y-69539152D01*
X99973755Y-69490182D01*
X99960428Y-69447931D01*
X99969729Y-69388841D01*
X99975910Y-69365169D01*
X99990754Y-69291504D01*
X99984079Y-69239710D01*
X99960535Y-69195969D01*
X99928939Y-69155902D01*
X99889202Y-69126392D01*
X99833748Y-69105884D01*
X99754997Y-69092824D01*
X99645371Y-69085656D01*
X99497294Y-69082824D01*
X99407889Y-69082549D01*
X99023529Y-69082549D01*
X99023529Y-68833529D01*
X100243725Y-68833529D01*
X100243725Y-68958039D01*
X100241079Y-69032764D01*
G36*
X99023529Y-70601568D02*
G01*
X99023529Y-70464607D01*
X99025860Y-70385111D01*
X99035512Y-70343708D01*
X99056475Y-70328801D01*
X99070649Y-70327647D01*
X99099073Y-70325133D01*
X99104525Y-70309280D01*
X99087002Y-70267621D01*
X99070649Y-70235224D01*
X99031897Y-70110849D01*
X99029654Y-69975646D01*
X99058556Y-69865726D01*
X99128381Y-69763366D01*
X99231445Y-69685340D01*
X99353011Y-69642614D01*
X99359808Y-69641526D01*
X99433968Y-69635178D01*
X99540430Y-69632021D01*
X99620948Y-69632275D01*
X99620948Y-69904289D01*
X99513930Y-69910590D01*
X99425722Y-69924925D01*
X99375910Y-69944331D01*
X99307838Y-70017746D01*
X99283436Y-70104914D01*
X99303169Y-70194804D01*
X99362032Y-70271617D01*
X99401621Y-70300708D01*
X99448862Y-70317717D01*
X99517819Y-70325684D01*
X99621393Y-70327647D01*
X99723961Y-70324134D01*
X99814079Y-70314857D01*
X99874387Y-70301706D01*
X99879792Y-70299514D01*
X99944060Y-70246478D01*
X99979344Y-70169067D01*
X99985041Y-70082454D01*
X99960547Y-70001807D01*
X99905258Y-69942297D01*
X99894257Y-69936124D01*
X99827173Y-69916801D01*
X99730716Y-69906274D01*
X99620948Y-69904289D01*
X99620948Y-69632275D01*
X99661775Y-69632404D01*
X99727082Y-69634194D01*
X99888645Y-69646373D01*
X100009947Y-69671685D01*
X100099621Y-69713793D01*
X100166301Y-69776359D01*
X100205443Y-69837100D01*
X100232960Y-69921964D01*
X100242397Y-70027515D01*
X100234710Y-70135598D01*
X100210854Y-70228058D01*
X100182315Y-70276910D01*
X100136399Y-70327647D01*
X100716863Y-70327647D01*
X100716863Y-70601568D01*
X99023529Y-70601568D01*
G37*
X99023529Y-70601568D02*
X99023529Y-70464607D01*
X99025860Y-70385111D01*
X99035512Y-70343708D01*
X99056475Y-70328801D01*
X99070649Y-70327647D01*
X99099073Y-70325133D01*
X99104525Y-70309280D01*
X99087002Y-70267621D01*
X99070649Y-70235224D01*
X99031897Y-70110849D01*
X99029654Y-69975646D01*
X99058556Y-69865726D01*
X99128381Y-69763366D01*
X99231445Y-69685340D01*
X99353011Y-69642614D01*
X99359808Y-69641526D01*
X99433968Y-69635178D01*
X99540430Y-69632021D01*
X99620948Y-69632275D01*
X99620948Y-69904289D01*
X99513930Y-69910590D01*
X99425722Y-69924925D01*
X99375910Y-69944331D01*
X99307838Y-70017746D01*
X99283436Y-70104914D01*
X99303169Y-70194804D01*
X99362032Y-70271617D01*
X99401621Y-70300708D01*
X99448862Y-70317717D01*
X99517819Y-70325684D01*
X99621393Y-70327647D01*
X99723961Y-70324134D01*
X99814079Y-70314857D01*
X99874387Y-70301706D01*
X99879792Y-70299514D01*
X99944060Y-70246478D01*
X99979344Y-70169067D01*
X99985041Y-70082454D01*
X99960547Y-70001807D01*
X99905258Y-69942297D01*
X99894257Y-69936124D01*
X99827173Y-69916801D01*
X99730716Y-69906274D01*
X99620948Y-69904289D01*
X99620948Y-69632275D01*
X99661775Y-69632404D01*
X99727082Y-69634194D01*
X99888645Y-69646373D01*
X100009947Y-69671685D01*
X100099621Y-69713793D01*
X100166301Y-69776359D01*
X100205443Y-69837100D01*
X100232960Y-69921964D01*
X100242397Y-70027515D01*
X100234710Y-70135598D01*
X100210854Y-70228058D01*
X100182315Y-70276910D01*
X100136399Y-70327647D01*
X100716863Y-70327647D01*
X100716863Y-70601568D01*
X99023529Y-70601568D01*
G36*
X100238668Y-71557528D02*
G01*
X100231274Y-71656014D01*
X99845294Y-71784776D01*
X99459314Y-71913537D01*
X99596274Y-71953911D01*
X99680917Y-71978207D01*
X99795303Y-72010167D01*
X99921037Y-72044679D01*
X99988480Y-72062928D01*
X100243725Y-72131571D01*
X100243725Y-72414773D01*
X99976029Y-72330122D01*
X99844362Y-72288435D01*
X99685542Y-72238074D01*
X99519872Y-72185481D01*
X99372157Y-72138530D01*
X99035980Y-72031589D01*
X99020956Y-71800661D01*
X99227684Y-71738050D01*
X99356104Y-71699438D01*
X99497678Y-71657300D01*
X99622715Y-71620472D01*
X99627691Y-71619018D01*
X99712414Y-71591511D01*
X99770222Y-71567242D01*
X99792082Y-71550243D01*
X99789554Y-71546750D01*
X99755664Y-71534490D01*
X99683070Y-71511195D01*
X99580899Y-71479700D01*
X99458280Y-71442842D01*
X99390833Y-71422899D01*
X99023529Y-71314895D01*
X99023529Y-71085679D01*
X99602500Y-70902439D01*
X99764909Y-70850963D01*
X99912398Y-70804070D01*
X100038040Y-70763977D01*
X100134905Y-70732897D01*
X100196066Y-70713045D01*
X100213935Y-70707011D01*
X100232232Y-70711788D01*
X100240245Y-70749297D01*
X100239443Y-70827355D01*
X100238837Y-70839574D01*
X100231274Y-70984326D01*
X99882647Y-71079130D01*
X99755503Y-71113977D01*
X99643735Y-71145117D01*
X99557047Y-71169809D01*
X99505144Y-71185312D01*
X99496682Y-71188176D01*
X99506413Y-71200046D01*
X99556828Y-71223983D01*
X99641065Y-71257239D01*
X99752259Y-71297064D01*
X99852703Y-71330730D01*
X100246061Y-71459041D01*
X100238668Y-71557528D01*
G37*
X100238668Y-71557528D02*
X100231274Y-71656014D01*
X99845294Y-71784776D01*
X99459314Y-71913537D01*
X99596274Y-71953911D01*
X99680917Y-71978207D01*
X99795303Y-72010167D01*
X99921037Y-72044679D01*
X99988480Y-72062928D01*
X100243725Y-72131571D01*
X100243725Y-72414773D01*
X99976029Y-72330122D01*
X99844362Y-72288435D01*
X99685542Y-72238074D01*
X99519872Y-72185481D01*
X99372157Y-72138530D01*
X99035980Y-72031589D01*
X99020956Y-71800661D01*
X99227684Y-71738050D01*
X99356104Y-71699438D01*
X99497678Y-71657300D01*
X99622715Y-71620472D01*
X99627691Y-71619018D01*
X99712414Y-71591511D01*
X99770222Y-71567242D01*
X99792082Y-71550243D01*
X99789554Y-71546750D01*
X99755664Y-71534490D01*
X99683070Y-71511195D01*
X99580899Y-71479700D01*
X99458280Y-71442842D01*
X99390833Y-71422899D01*
X99023529Y-71314895D01*
X99023529Y-71085679D01*
X99602500Y-70902439D01*
X99764909Y-70850963D01*
X99912398Y-70804070D01*
X100038040Y-70763977D01*
X100134905Y-70732897D01*
X100196066Y-70713045D01*
X100213935Y-70707011D01*
X100232232Y-70711788D01*
X100240245Y-70749297D01*
X100239443Y-70827355D01*
X100238837Y-70839574D01*
X100231274Y-70984326D01*
X99882647Y-71079130D01*
X99755503Y-71113977D01*
X99643735Y-71145117D01*
X99557047Y-71169809D01*
X99505144Y-71185312D01*
X99496682Y-71188176D01*
X99506413Y-71200046D01*
X99556828Y-71223983D01*
X99641065Y-71257239D01*
X99752259Y-71297064D01*
X99852703Y-71330730D01*
X100246061Y-71459041D01*
X100238668Y-71557528D01*
G36*
X100236331Y-73056459D02*
G01*
X100210837Y-73161420D01*
X100197331Y-73191761D01*
X100161954Y-73250573D01*
X100122110Y-73295709D01*
X100070880Y-73329106D01*
X100001346Y-73352701D01*
X99906591Y-73368433D01*
X99779695Y-73378239D01*
X99613742Y-73384057D01*
X99502892Y-73386266D01*
X99023529Y-73394396D01*
X99023529Y-73255531D01*
X99027062Y-73171287D01*
X99039134Y-73127884D01*
X99059406Y-73116666D01*
X99081326Y-73110744D01*
X99077135Y-73084266D01*
X99059559Y-73048186D01*
X99032618Y-72957862D01*
X99025358Y-72841777D01*
X99037233Y-72719680D01*
X99067695Y-72611321D01*
X99071923Y-72601602D01*
X99141495Y-72502568D01*
X99238211Y-72437281D01*
X99351262Y-72407240D01*
X99391878Y-72409535D01*
X99391878Y-72654633D01*
X99337218Y-72676229D01*
X99298048Y-72740259D01*
X99277026Y-72843565D01*
X99274234Y-72898774D01*
X99281380Y-72990782D01*
X99309152Y-73051941D01*
X99322353Y-73066862D01*
X99394171Y-73107287D01*
X99459314Y-73116666D01*
X99546470Y-73116666D01*
X99546470Y-72995269D01*
X99539278Y-72854153D01*
X99516655Y-72755173D01*
X99477036Y-72692633D01*
X99459372Y-72678631D01*
X99391878Y-72654633D01*
X99391878Y-72409535D01*
X99469843Y-72413941D01*
X99583145Y-72458880D01*
X99659715Y-72520196D01*
X99692819Y-72557332D01*
X99714575Y-72593687D01*
X99727839Y-72640990D01*
X99735472Y-72710973D01*
X99740330Y-72815364D01*
X99741727Y-72856770D01*
X99750220Y-73116666D01*
X99828884Y-73116285D01*
X99911572Y-73106219D01*
X99961569Y-73069829D01*
X99993511Y-72996311D01*
X99994080Y-72994339D01*
X100006639Y-72890105D01*
X99990234Y-72788108D01*
X99950343Y-72712305D01*
X99930646Y-72681890D01*
X99933371Y-72649132D01*
X99961909Y-72598721D01*
X99982050Y-72569119D01*
X100025081Y-72511218D01*
X100057338Y-72475352D01*
X100066573Y-72469597D01*
X100114364Y-72493295D01*
X100171438Y-72563313D01*
X100190695Y-72593725D01*
X100223860Y-72681155D01*
X100242650Y-72798983D01*
X100246871Y-72929866D01*
X100236331Y-73056459D01*
G37*
X100236331Y-73056459D02*
X100210837Y-73161420D01*
X100197331Y-73191761D01*
X100161954Y-73250573D01*
X100122110Y-73295709D01*
X100070880Y-73329106D01*
X100001346Y-73352701D01*
X99906591Y-73368433D01*
X99779695Y-73378239D01*
X99613742Y-73384057D01*
X99502892Y-73386266D01*
X99023529Y-73394396D01*
X99023529Y-73255531D01*
X99027062Y-73171287D01*
X99039134Y-73127884D01*
X99059406Y-73116666D01*
X99081326Y-73110744D01*
X99077135Y-73084266D01*
X99059559Y-73048186D01*
X99032618Y-72957862D01*
X99025358Y-72841777D01*
X99037233Y-72719680D01*
X99067695Y-72611321D01*
X99071923Y-72601602D01*
X99141495Y-72502568D01*
X99238211Y-72437281D01*
X99351262Y-72407240D01*
X99391878Y-72409535D01*
X99391878Y-72654633D01*
X99337218Y-72676229D01*
X99298048Y-72740259D01*
X99277026Y-72843565D01*
X99274234Y-72898774D01*
X99281380Y-72990782D01*
X99309152Y-73051941D01*
X99322353Y-73066862D01*
X99394171Y-73107287D01*
X99459314Y-73116666D01*
X99546470Y-73116666D01*
X99546470Y-72995269D01*
X99539278Y-72854153D01*
X99516655Y-72755173D01*
X99477036Y-72692633D01*
X99459372Y-72678631D01*
X99391878Y-72654633D01*
X99391878Y-72409535D01*
X99469843Y-72413941D01*
X99583145Y-72458880D01*
X99659715Y-72520196D01*
X99692819Y-72557332D01*
X99714575Y-72593687D01*
X99727839Y-72640990D01*
X99735472Y-72710973D01*
X99740330Y-72815364D01*
X99741727Y-72856770D01*
X99750220Y-73116666D01*
X99828884Y-73116285D01*
X99911572Y-73106219D01*
X99961569Y-73069829D01*
X99993511Y-72996311D01*
X99994080Y-72994339D01*
X100006639Y-72890105D01*
X99990234Y-72788108D01*
X99950343Y-72712305D01*
X99930646Y-72681890D01*
X99933371Y-72649132D01*
X99961909Y-72598721D01*
X99982050Y-72569119D01*
X100025081Y-72511218D01*
X100057338Y-72475352D01*
X100066573Y-72469597D01*
X100114364Y-72493295D01*
X100171438Y-72563313D01*
X100190695Y-72593725D01*
X100223860Y-72681155D01*
X100242650Y-72798983D01*
X100246871Y-72929866D01*
X100236331Y-73056459D01*
G36*
X100244117Y-74238446D02*
G01*
X100225245Y-74334177D01*
X100197301Y-74388677D01*
X100150877Y-74446008D01*
X100047889Y-74364441D01*
X99985521Y-74314150D01*
X99955093Y-74280001D01*
X99950445Y-74246063D01*
X99965414Y-74196406D01*
X99973883Y-74173096D01*
X99986378Y-74078063D01*
X99959594Y-73991032D01*
X99899085Y-73927138D01*
X99879792Y-73916759D01*
X99828686Y-73905456D01*
X99734500Y-73896732D01*
X99603911Y-73890997D01*
X99443595Y-73888660D01*
X99420789Y-73888627D01*
X99023529Y-73888627D01*
X99023529Y-73614705D01*
X100243725Y-73614705D01*
X100243725Y-73751666D01*
X100241663Y-73830638D01*
X100232487Y-73871779D01*
X100211710Y-73886992D01*
X100192114Y-73888627D01*
X100140503Y-73888627D01*
X100192114Y-73954240D01*
X100227325Y-74029475D01*
X100244735Y-74130544D01*
X100244117Y-74238446D01*
G37*
X100244117Y-74238446D02*
X100225245Y-74334177D01*
X100197301Y-74388677D01*
X100150877Y-74446008D01*
X100047889Y-74364441D01*
X99985521Y-74314150D01*
X99955093Y-74280001D01*
X99950445Y-74246063D01*
X99965414Y-74196406D01*
X99973883Y-74173096D01*
X99986378Y-74078063D01*
X99959594Y-73991032D01*
X99899085Y-73927138D01*
X99879792Y-73916759D01*
X99828686Y-73905456D01*
X99734500Y-73896732D01*
X99603911Y-73890997D01*
X99443595Y-73888660D01*
X99420789Y-73888627D01*
X99023529Y-73888627D01*
X99023529Y-73614705D01*
X100243725Y-73614705D01*
X100243725Y-73751666D01*
X100241663Y-73830638D01*
X100232487Y-73871779D01*
X100211710Y-73886992D01*
X100192114Y-73888627D01*
X100140503Y-73888627D01*
X100192114Y-73954240D01*
X100227325Y-74029475D01*
X100244735Y-74130544D01*
X100244117Y-74238446D01*
G36*
X100237216Y-75025307D02*
G01*
X100206269Y-75144337D01*
X100142400Y-75244021D01*
X100094687Y-75292288D01*
X99981894Y-75371408D01*
X99851050Y-75416752D01*
X99690208Y-75432330D01*
X99677206Y-75432410D01*
X99546470Y-75432549D01*
X99546470Y-74680091D01*
X99477990Y-74696130D01*
X99415969Y-74725091D01*
X99351346Y-74775778D01*
X99341029Y-74786379D01*
X99285195Y-74877494D01*
X99275725Y-74981400D01*
X99312460Y-75101000D01*
X99322353Y-75121274D01*
X99352426Y-75183456D01*
X99369560Y-75225106D01*
X99371145Y-75232373D01*
X99355758Y-75257740D01*
X99318113Y-75306120D01*
X99297541Y-75330679D01*
X99250286Y-75381570D01*
X99219083Y-75398281D01*
X99190380Y-75386683D01*
X99182532Y-75380483D01*
X99148181Y-75338493D01*
X99106435Y-75269206D01*
X99082065Y-75220882D01*
X99039127Y-75083711D01*
X99025214Y-74931847D01*
X99041700Y-74788024D01*
X99053504Y-74747745D01*
X99120311Y-74623078D01*
X99223108Y-74530671D01*
X99362895Y-74469990D01*
X99540670Y-74440498D01*
X99633627Y-74437260D01*
X99768967Y-74446714D01*
X99768967Y-74685490D01*
X99758962Y-74708584D01*
X99751112Y-74770662D01*
X99746479Y-74860914D01*
X99745686Y-74922058D01*
X99746451Y-75032040D01*
X99750030Y-75101457D01*
X99758351Y-75139538D01*
X99773343Y-75155515D01*
X99795097Y-75158627D01*
X99862108Y-75137278D01*
X99928336Y-75083529D01*
X99979168Y-75012822D01*
X99999962Y-74942089D01*
X99981516Y-74846016D01*
X99928189Y-74762849D01*
X99851323Y-74705186D01*
X99768967Y-74685490D01*
X99768967Y-74446714D01*
X99830709Y-74451028D01*
X99987729Y-74493520D01*
X100105931Y-74565635D01*
X100186560Y-74668273D01*
X100230861Y-74802332D01*
X100239393Y-74874957D01*
X100237216Y-75025307D01*
G37*
X100237216Y-75025307D02*
X100206269Y-75144337D01*
X100142400Y-75244021D01*
X100094687Y-75292288D01*
X99981894Y-75371408D01*
X99851050Y-75416752D01*
X99690208Y-75432330D01*
X99677206Y-75432410D01*
X99546470Y-75432549D01*
X99546470Y-74680091D01*
X99477990Y-74696130D01*
X99415969Y-74725091D01*
X99351346Y-74775778D01*
X99341029Y-74786379D01*
X99285195Y-74877494D01*
X99275725Y-74981400D01*
X99312460Y-75101000D01*
X99322353Y-75121274D01*
X99352426Y-75183456D01*
X99369560Y-75225106D01*
X99371145Y-75232373D01*
X99355758Y-75257740D01*
X99318113Y-75306120D01*
X99297541Y-75330679D01*
X99250286Y-75381570D01*
X99219083Y-75398281D01*
X99190380Y-75386683D01*
X99182532Y-75380483D01*
X99148181Y-75338493D01*
X99106435Y-75269206D01*
X99082065Y-75220882D01*
X99039127Y-75083711D01*
X99025214Y-74931847D01*
X99041700Y-74788024D01*
X99053504Y-74747745D01*
X99120311Y-74623078D01*
X99223108Y-74530671D01*
X99362895Y-74469990D01*
X99540670Y-74440498D01*
X99633627Y-74437260D01*
X99768967Y-74446714D01*
X99768967Y-74685490D01*
X99758962Y-74708584D01*
X99751112Y-74770662D01*
X99746479Y-74860914D01*
X99745686Y-74922058D01*
X99746451Y-75032040D01*
X99750030Y-75101457D01*
X99758351Y-75139538D01*
X99773343Y-75155515D01*
X99795097Y-75158627D01*
X99862108Y-75137278D01*
X99928336Y-75083529D01*
X99979168Y-75012822D01*
X99999962Y-74942089D01*
X99981516Y-74846016D01*
X99928189Y-74762849D01*
X99851323Y-74705186D01*
X99768967Y-74685490D01*
X99768967Y-74446714D01*
X99830709Y-74451028D01*
X99987729Y-74493520D01*
X100105931Y-74565635D01*
X100186560Y-74668273D01*
X100230861Y-74802332D01*
X100239393Y-74874957D01*
X100237216Y-75025307D01*
G36*
X102098432Y-65973247D02*
G01*
X102040837Y-66103522D01*
X101944666Y-66202419D01*
X101809771Y-66270082D01*
X101636004Y-66306655D01*
X101608874Y-66309276D01*
X101417592Y-66311330D01*
X101249927Y-66284699D01*
X101114033Y-66231001D01*
X101070319Y-66202247D01*
X100977802Y-66102091D01*
X100917881Y-65974537D01*
X100893015Y-65831837D01*
X100905661Y-65686240D01*
X100944609Y-65575562D01*
X101010245Y-65480384D01*
X101096301Y-65402594D01*
X101098315Y-65401249D01*
X101151430Y-65369657D01*
X101204840Y-65349127D01*
X101272246Y-65336695D01*
X101367347Y-65329397D01*
X101445334Y-65326182D01*
X101516056Y-65324844D01*
X101516056Y-65573814D01*
X101445652Y-65576247D01*
X101351932Y-65585080D01*
X101291786Y-65600664D01*
X101248994Y-65628766D01*
X101223998Y-65655086D01*
X101171662Y-65748392D01*
X101164667Y-65846020D01*
X101202324Y-65936942D01*
X101244521Y-65982402D01*
X101287044Y-66015162D01*
X101327733Y-66034323D01*
X101380686Y-66042733D01*
X101460003Y-66043237D01*
X101533050Y-66040645D01*
X101637399Y-66035071D01*
X101705080Y-66026234D01*
X101749226Y-66010307D01*
X101782969Y-65983462D01*
X101802254Y-65962189D01*
X101852914Y-65873206D01*
X101855440Y-65777211D01*
X101825433Y-65696719D01*
X101762769Y-65628053D01*
X101659832Y-65587144D01*
X101516056Y-65573814D01*
X101516056Y-65324844D01*
X101600418Y-65323246D01*
X101716400Y-65328260D01*
X101803633Y-65343283D01*
X101872470Y-65370376D01*
X101933263Y-65411600D01*
X101951314Y-65426885D01*
X102041254Y-65522454D01*
X102093789Y-65624961D01*
X102115799Y-65750321D01*
X102117598Y-65811450D01*
X102098432Y-65973247D01*
G37*
X102098432Y-65973247D02*
X102040837Y-66103522D01*
X101944666Y-66202419D01*
X101809771Y-66270082D01*
X101636004Y-66306655D01*
X101608874Y-66309276D01*
X101417592Y-66311330D01*
X101249927Y-66284699D01*
X101114033Y-66231001D01*
X101070319Y-66202247D01*
X100977802Y-66102091D01*
X100917881Y-65974537D01*
X100893015Y-65831837D01*
X100905661Y-65686240D01*
X100944609Y-65575562D01*
X101010245Y-65480384D01*
X101096301Y-65402594D01*
X101098315Y-65401249D01*
X101151430Y-65369657D01*
X101204840Y-65349127D01*
X101272246Y-65336695D01*
X101367347Y-65329397D01*
X101445334Y-65326182D01*
X101516056Y-65324844D01*
X101516056Y-65573814D01*
X101445652Y-65576247D01*
X101351932Y-65585080D01*
X101291786Y-65600664D01*
X101248994Y-65628766D01*
X101223998Y-65655086D01*
X101171662Y-65748392D01*
X101164667Y-65846020D01*
X101202324Y-65936942D01*
X101244521Y-65982402D01*
X101287044Y-66015162D01*
X101327733Y-66034323D01*
X101380686Y-66042733D01*
X101460003Y-66043237D01*
X101533050Y-66040645D01*
X101637399Y-66035071D01*
X101705080Y-66026234D01*
X101749226Y-66010307D01*
X101782969Y-65983462D01*
X101802254Y-65962189D01*
X101852914Y-65873206D01*
X101855440Y-65777211D01*
X101825433Y-65696719D01*
X101762769Y-65628053D01*
X101659832Y-65587144D01*
X101516056Y-65573814D01*
X101516056Y-65324844D01*
X101600418Y-65323246D01*
X101716400Y-65328260D01*
X101803633Y-65343283D01*
X101872470Y-65370376D01*
X101933263Y-65411600D01*
X101951314Y-65426885D01*
X102041254Y-65522454D01*
X102093789Y-65624961D01*
X102115799Y-65750321D01*
X102117598Y-65811450D01*
X102098432Y-65973247D01*
G36*
X102083646Y-68313204D02*
G01*
X102071963Y-68338019D01*
X102009049Y-68423906D01*
X101917231Y-68505121D01*
X101816132Y-68565764D01*
X101769651Y-68583012D01*
X101686624Y-68598749D01*
X101586287Y-68608133D01*
X101544853Y-68609272D01*
X101414118Y-68609411D01*
X101414118Y-67856953D01*
X101345637Y-67872993D01*
X101264645Y-67912363D01*
X101194649Y-67981194D01*
X101149559Y-68063081D01*
X101140196Y-68115263D01*
X101151559Y-68186029D01*
X101180057Y-68270460D01*
X101193169Y-68299142D01*
X101246142Y-68405209D01*
X101177099Y-68495728D01*
X101130403Y-68547961D01*
X101091860Y-68575753D01*
X101080548Y-68577160D01*
X101053132Y-68552332D01*
X101011468Y-68497917D01*
X100978963Y-68448528D01*
X100920532Y-68315252D01*
X100894085Y-68165839D01*
X100900961Y-68017751D01*
X100936904Y-67899705D01*
X101013899Y-67778018D01*
X101115272Y-67691540D01*
X101246430Y-67637441D01*
X101412776Y-67612891D01*
X101488892Y-67610714D01*
X101663315Y-67619427D01*
X101668389Y-67620497D01*
X101668389Y-67869827D01*
X101652032Y-67876694D01*
X101643012Y-67904917D01*
X101639146Y-67963127D01*
X101638251Y-68059958D01*
X101638235Y-68097243D01*
X101639587Y-68210683D01*
X101644495Y-68282622D01*
X101654240Y-68321313D01*
X101670101Y-68335005D01*
X101675195Y-68335490D01*
X101715674Y-68319863D01*
X101772379Y-68280753D01*
X101792234Y-68263939D01*
X101848389Y-68201519D01*
X101870468Y-68136453D01*
X101872314Y-68101397D01*
X101849234Y-68006558D01*
X101787241Y-67927027D01*
X101697198Y-67876577D01*
X101694265Y-67875683D01*
X101668389Y-67869827D01*
X101668389Y-67620497D01*
X101800657Y-67648399D01*
X101910539Y-67700590D01*
X101988539Y-67764421D01*
X102073118Y-67882433D01*
X102118314Y-68021158D01*
X102122400Y-68168710D01*
X102083646Y-68313204D01*
G37*
X102083646Y-68313204D02*
X102071963Y-68338019D01*
X102009049Y-68423906D01*
X101917231Y-68505121D01*
X101816132Y-68565764D01*
X101769651Y-68583012D01*
X101686624Y-68598749D01*
X101586287Y-68608133D01*
X101544853Y-68609272D01*
X101414118Y-68609411D01*
X101414118Y-67856953D01*
X101345637Y-67872993D01*
X101264645Y-67912363D01*
X101194649Y-67981194D01*
X101149559Y-68063081D01*
X101140196Y-68115263D01*
X101151559Y-68186029D01*
X101180057Y-68270460D01*
X101193169Y-68299142D01*
X101246142Y-68405209D01*
X101177099Y-68495728D01*
X101130403Y-68547961D01*
X101091860Y-68575753D01*
X101080548Y-68577160D01*
X101053132Y-68552332D01*
X101011468Y-68497917D01*
X100978963Y-68448528D01*
X100920532Y-68315252D01*
X100894085Y-68165839D01*
X100900961Y-68017751D01*
X100936904Y-67899705D01*
X101013899Y-67778018D01*
X101115272Y-67691540D01*
X101246430Y-67637441D01*
X101412776Y-67612891D01*
X101488892Y-67610714D01*
X101663315Y-67619427D01*
X101668389Y-67620497D01*
X101668389Y-67869827D01*
X101652032Y-67876694D01*
X101643012Y-67904917D01*
X101639146Y-67963127D01*
X101638251Y-68059958D01*
X101638235Y-68097243D01*
X101639587Y-68210683D01*
X101644495Y-68282622D01*
X101654240Y-68321313D01*
X101670101Y-68335005D01*
X101675195Y-68335490D01*
X101715674Y-68319863D01*
X101772379Y-68280753D01*
X101792234Y-68263939D01*
X101848389Y-68201519D01*
X101870468Y-68136453D01*
X101872314Y-68101397D01*
X101849234Y-68006558D01*
X101787241Y-67927027D01*
X101697198Y-67876577D01*
X101694265Y-67875683D01*
X101668389Y-67869827D01*
X101668389Y-67620497D01*
X101800657Y-67648399D01*
X101910539Y-67700590D01*
X101988539Y-67764421D01*
X102073118Y-67882433D01*
X102118314Y-68021158D01*
X102122400Y-68168710D01*
X102083646Y-68313204D01*
G36*
X102115655Y-71027759D02*
G01*
X102097771Y-71122059D01*
X102060367Y-71219890D01*
X102055598Y-71230343D01*
X102016588Y-71304531D01*
X101980336Y-71355910D01*
X101957113Y-71372517D01*
X101919239Y-71356702D01*
X101863356Y-71318288D01*
X101842495Y-71301237D01*
X101760382Y-71230969D01*
X101813832Y-71140379D01*
X101849439Y-71054164D01*
X101868471Y-70954549D01*
X101869674Y-70859019D01*
X101851790Y-70785061D01*
X101840627Y-70767312D01*
X101789447Y-70733512D01*
X101730491Y-70729404D01*
X101684433Y-70754696D01*
X101675501Y-70769656D01*
X101664408Y-70814486D01*
X101651370Y-70893286D01*
X101638912Y-70990426D01*
X101636958Y-71008346D01*
X101609970Y-71164365D01*
X101564127Y-71277523D01*
X101495197Y-71352569D01*
X101398946Y-71394253D01*
X101281383Y-71407238D01*
X101147746Y-71389299D01*
X101042805Y-71331050D01*
X100966370Y-71232255D01*
X100918252Y-71092682D01*
X100899268Y-70937745D01*
X100899496Y-70811398D01*
X100916738Y-70708913D01*
X100940543Y-70638921D01*
X100982022Y-70550483D01*
X101030158Y-70468754D01*
X101051345Y-70439705D01*
X101112324Y-70365000D01*
X101203492Y-70455098D01*
X101294661Y-70545196D01*
X101226872Y-70647632D01*
X101175958Y-70750374D01*
X101149327Y-70860087D01*
X101146517Y-70965551D01*
X101167065Y-71055546D01*
X101210507Y-71118854D01*
X101247162Y-71139296D01*
X101305947Y-71136229D01*
X101350901Y-71085434D01*
X101381943Y-70987048D01*
X101396290Y-70879256D01*
X101423663Y-70713365D01*
X101475307Y-70590124D01*
X101552734Y-70507886D01*
X101657456Y-70465001D01*
X101781613Y-70459060D01*
X101911298Y-70488406D01*
X102009323Y-70555309D01*
X102076134Y-70660371D01*
X102112180Y-70804190D01*
X102119246Y-70910738D01*
X102115655Y-71027759D01*
G37*
X102115655Y-71027759D02*
X102097771Y-71122059D01*
X102060367Y-71219890D01*
X102055598Y-71230343D01*
X102016588Y-71304531D01*
X101980336Y-71355910D01*
X101957113Y-71372517D01*
X101919239Y-71356702D01*
X101863356Y-71318288D01*
X101842495Y-71301237D01*
X101760382Y-71230969D01*
X101813832Y-71140379D01*
X101849439Y-71054164D01*
X101868471Y-70954549D01*
X101869674Y-70859019D01*
X101851790Y-70785061D01*
X101840627Y-70767312D01*
X101789447Y-70733512D01*
X101730491Y-70729404D01*
X101684433Y-70754696D01*
X101675501Y-70769656D01*
X101664408Y-70814486D01*
X101651370Y-70893286D01*
X101638912Y-70990426D01*
X101636958Y-71008346D01*
X101609970Y-71164365D01*
X101564127Y-71277523D01*
X101495197Y-71352569D01*
X101398946Y-71394253D01*
X101281383Y-71407238D01*
X101147746Y-71389299D01*
X101042805Y-71331050D01*
X100966370Y-71232255D01*
X100918252Y-71092682D01*
X100899268Y-70937745D01*
X100899496Y-70811398D01*
X100916738Y-70708913D01*
X100940543Y-70638921D01*
X100982022Y-70550483D01*
X101030158Y-70468754D01*
X101051345Y-70439705D01*
X101112324Y-70365000D01*
X101203492Y-70455098D01*
X101294661Y-70545196D01*
X101226872Y-70647632D01*
X101175958Y-70750374D01*
X101149327Y-70860087D01*
X101146517Y-70965551D01*
X101167065Y-71055546D01*
X101210507Y-71118854D01*
X101247162Y-71139296D01*
X101305947Y-71136229D01*
X101350901Y-71085434D01*
X101381943Y-70987048D01*
X101396290Y-70879256D01*
X101423663Y-70713365D01*
X101475307Y-70590124D01*
X101552734Y-70507886D01*
X101657456Y-70465001D01*
X101781613Y-70459060D01*
X101911298Y-70488406D01*
X102009323Y-70555309D01*
X102076134Y-70660371D01*
X102112180Y-70804190D01*
X102119246Y-70910738D01*
X102115655Y-71027759D01*
G36*
X102096636Y-72209547D02*
G01*
X102028041Y-72335502D01*
X101919755Y-72434047D01*
X101831685Y-72480478D01*
X101753899Y-72500412D01*
X101643007Y-72513328D01*
X101515262Y-72518863D01*
X101386916Y-72516654D01*
X101274221Y-72506337D01*
X101214031Y-72494286D01*
X101131689Y-72453634D01*
X101044230Y-72383230D01*
X100967749Y-72298382D01*
X100918345Y-72214397D01*
X100917561Y-72212349D01*
X100895973Y-72108134D01*
X100895438Y-71984627D01*
X100915092Y-71867261D01*
X100930845Y-71821942D01*
X100997034Y-71705220D01*
X101083754Y-71621624D01*
X101198562Y-71566701D01*
X101349018Y-71535995D01*
X101427827Y-71529047D01*
X101526855Y-71529933D01*
X101526855Y-71796862D01*
X101382355Y-71805854D01*
X101272240Y-71831736D01*
X101201884Y-71872868D01*
X101181765Y-71902172D01*
X101167735Y-71977251D01*
X101171889Y-72066494D01*
X101192078Y-72143650D01*
X101203185Y-72163883D01*
X101267877Y-72217265D01*
X101366881Y-72252500D01*
X101487368Y-72267498D01*
X101616506Y-72260172D01*
X101694225Y-72243799D01*
X101784229Y-72196790D01*
X101840491Y-72122582D01*
X101859943Y-72033209D01*
X101839519Y-71940707D01*
X101789563Y-71869653D01*
X101748345Y-71832312D01*
X101707719Y-71810518D01*
X101652736Y-71800130D01*
X101568451Y-71797006D01*
X101526855Y-71796862D01*
X101526855Y-71529933D01*
X101638126Y-71530930D01*
X101810577Y-71565180D01*
X101945186Y-71631802D01*
X102041960Y-71730799D01*
X102100906Y-71862175D01*
X102107741Y-71890385D01*
X102123787Y-72059926D01*
X102096636Y-72209547D01*
G37*
X102096636Y-72209547D02*
X102028041Y-72335502D01*
X101919755Y-72434047D01*
X101831685Y-72480478D01*
X101753899Y-72500412D01*
X101643007Y-72513328D01*
X101515262Y-72518863D01*
X101386916Y-72516654D01*
X101274221Y-72506337D01*
X101214031Y-72494286D01*
X101131689Y-72453634D01*
X101044230Y-72383230D01*
X100967749Y-72298382D01*
X100918345Y-72214397D01*
X100917561Y-72212349D01*
X100895973Y-72108134D01*
X100895438Y-71984627D01*
X100915092Y-71867261D01*
X100930845Y-71821942D01*
X100997034Y-71705220D01*
X101083754Y-71621624D01*
X101198562Y-71566701D01*
X101349018Y-71535995D01*
X101427827Y-71529047D01*
X101526855Y-71529933D01*
X101526855Y-71796862D01*
X101382355Y-71805854D01*
X101272240Y-71831736D01*
X101201884Y-71872868D01*
X101181765Y-71902172D01*
X101167735Y-71977251D01*
X101171889Y-72066494D01*
X101192078Y-72143650D01*
X101203185Y-72163883D01*
X101267877Y-72217265D01*
X101366881Y-72252500D01*
X101487368Y-72267498D01*
X101616506Y-72260172D01*
X101694225Y-72243799D01*
X101784229Y-72196790D01*
X101840491Y-72122582D01*
X101859943Y-72033209D01*
X101839519Y-71940707D01*
X101789563Y-71869653D01*
X101748345Y-71832312D01*
X101707719Y-71810518D01*
X101652736Y-71800130D01*
X101568451Y-71797006D01*
X101526855Y-71796862D01*
X101526855Y-71529933D01*
X101638126Y-71530930D01*
X101810577Y-71565180D01*
X101945186Y-71631802D01*
X102041960Y-71730799D01*
X102100906Y-71862175D01*
X102107741Y-71890385D01*
X102123787Y-72059926D01*
X102096636Y-72209547D01*
G36*
X101723755Y-72967254D02*
G01*
X101541121Y-72969608D01*
X101402400Y-72978207D01*
X101301853Y-72995360D01*
X101233746Y-73023374D01*
X101192341Y-73064557D01*
X101171903Y-73121217D01*
X101166682Y-73191372D01*
X101172532Y-73264848D01*
X101193907Y-73320657D01*
X101236542Y-73361109D01*
X101306175Y-73388509D01*
X101408540Y-73405167D01*
X101549376Y-73413389D01*
X101723755Y-73415490D01*
X102111372Y-73415490D01*
X102111372Y-73689411D01*
X100916078Y-73689411D01*
X100916078Y-73552451D01*
X100919424Y-73469884D01*
X100931174Y-73427368D01*
X100953480Y-73415490D01*
X100973346Y-73408336D01*
X100969143Y-73379865D01*
X100941029Y-73322476D01*
X100897658Y-73190945D01*
X100900730Y-73051438D01*
X100947826Y-72917765D01*
X100985029Y-72854108D01*
X101025309Y-72805553D01*
X101075709Y-72770081D01*
X101143271Y-72745674D01*
X101235035Y-72730313D01*
X101358045Y-72721982D01*
X101519341Y-72718662D01*
X101644072Y-72718235D01*
X102111372Y-72718235D01*
X102111372Y-72967254D01*
X101723755Y-72967254D01*
G37*
X101723755Y-72967254D02*
X101541121Y-72969608D01*
X101402400Y-72978207D01*
X101301853Y-72995360D01*
X101233746Y-73023374D01*
X101192341Y-73064557D01*
X101171903Y-73121217D01*
X101166682Y-73191372D01*
X101172532Y-73264848D01*
X101193907Y-73320657D01*
X101236542Y-73361109D01*
X101306175Y-73388509D01*
X101408540Y-73405167D01*
X101549376Y-73413389D01*
X101723755Y-73415490D01*
X102111372Y-73415490D01*
X102111372Y-73689411D01*
X100916078Y-73689411D01*
X100916078Y-73552451D01*
X100919424Y-73469884D01*
X100931174Y-73427368D01*
X100953480Y-73415490D01*
X100973346Y-73408336D01*
X100969143Y-73379865D01*
X100941029Y-73322476D01*
X100897658Y-73190945D01*
X100900730Y-73051438D01*
X100947826Y-72917765D01*
X100985029Y-72854108D01*
X101025309Y-72805553D01*
X101075709Y-72770081D01*
X101143271Y-72745674D01*
X101235035Y-72730313D01*
X101358045Y-72721982D01*
X101519341Y-72718662D01*
X101644072Y-72718235D01*
X102111372Y-72718235D01*
X102111372Y-72967254D01*
X101723755Y-72967254D01*
G36*
X102100944Y-75390976D02*
G01*
X102039652Y-75535256D01*
X102009815Y-75580699D01*
X101963964Y-75638779D01*
X101927911Y-75675238D01*
X101916168Y-75681568D01*
X101890111Y-75663693D01*
X101845895Y-75617950D01*
X101815035Y-75581328D01*
X101734480Y-75481088D01*
X101801082Y-75401935D01*
X101844079Y-75340769D01*
X101858921Y-75281129D01*
X101855296Y-75212872D01*
X101828348Y-75104482D01*
X101772413Y-75029872D01*
X101681986Y-74984530D01*
X101551565Y-74963947D01*
X101551483Y-74963942D01*
X101405710Y-74965722D01*
X101298755Y-74993387D01*
X101225936Y-75048571D01*
X101201277Y-75086192D01*
X101170569Y-75186105D01*
X101170551Y-75292822D01*
X101200345Y-75385669D01*
X101214902Y-75407647D01*
X101252086Y-75462765D01*
X101258180Y-75505859D01*
X101230504Y-75552335D01*
X101180795Y-75603716D01*
X101096884Y-75685046D01*
X101022454Y-75594749D01*
X100938451Y-75455236D01*
X100897053Y-75297912D01*
X100900050Y-75133503D01*
X100927500Y-75025531D01*
X100995380Y-74899331D01*
X101102169Y-74798401D01*
X101177549Y-74752548D01*
X101285703Y-74715410D01*
X101422682Y-74696827D01*
X101571136Y-74696684D01*
X101713719Y-74714865D01*
X101833082Y-74751255D01*
X101845320Y-74756987D01*
X101965345Y-74841865D01*
X102052733Y-74956782D01*
X102105671Y-75092659D01*
X102122346Y-75240417D01*
X102100944Y-75390976D01*
G37*
X102100944Y-75390976D02*
X102039652Y-75535256D01*
X102009815Y-75580699D01*
X101963964Y-75638779D01*
X101927911Y-75675238D01*
X101916168Y-75681568D01*
X101890111Y-75663693D01*
X101845895Y-75617950D01*
X101815035Y-75581328D01*
X101734480Y-75481088D01*
X101801082Y-75401935D01*
X101844079Y-75340769D01*
X101858921Y-75281129D01*
X101855296Y-75212872D01*
X101828348Y-75104482D01*
X101772413Y-75029872D01*
X101681986Y-74984530D01*
X101551565Y-74963947D01*
X101551483Y-74963942D01*
X101405710Y-74965722D01*
X101298755Y-74993387D01*
X101225936Y-75048571D01*
X101201277Y-75086192D01*
X101170569Y-75186105D01*
X101170551Y-75292822D01*
X101200345Y-75385669D01*
X101214902Y-75407647D01*
X101252086Y-75462765D01*
X101258180Y-75505859D01*
X101230504Y-75552335D01*
X101180795Y-75603716D01*
X101096884Y-75685046D01*
X101022454Y-75594749D01*
X100938451Y-75455236D01*
X100897053Y-75297912D01*
X100900050Y-75133503D01*
X100927500Y-75025531D01*
X100995380Y-74899331D01*
X101102169Y-74798401D01*
X101177549Y-74752548D01*
X101285703Y-74715410D01*
X101422682Y-74696827D01*
X101571136Y-74696684D01*
X101713719Y-74714865D01*
X101833082Y-74751255D01*
X101845320Y-74756987D01*
X101965345Y-74841865D01*
X102052733Y-74956782D01*
X102105671Y-75092659D01*
X102122346Y-75240417D01*
X102100944Y-75390976D01*
G36*
X102115645Y-76303287D02*
G01*
X102100155Y-76367051D01*
X102043431Y-76489300D01*
X101956798Y-76593834D01*
X101852926Y-76666180D01*
X101829604Y-76676119D01*
X101768516Y-76689754D01*
X101678147Y-76699298D01*
X101586810Y-76702549D01*
X101414118Y-76702549D01*
X101414118Y-76341470D01*
X101413555Y-76192546D01*
X101410136Y-76087632D01*
X101401269Y-76020937D01*
X101384359Y-75986666D01*
X101356811Y-75979028D01*
X101316032Y-75992229D01*
X101268317Y-76015877D01*
X101188686Y-76081843D01*
X101149013Y-76173512D01*
X101150305Y-76285555D01*
X101193486Y-76412472D01*
X101246776Y-76522158D01*
X101174809Y-76613173D01*
X101102843Y-76704188D01*
X101023731Y-76618563D01*
X100948983Y-76504250D01*
X100903916Y-76363666D01*
X100891304Y-76212449D01*
X100913921Y-76066236D01*
X100921595Y-76042647D01*
X100988704Y-75914141D01*
X101088753Y-75818551D01*
X101224729Y-75753861D01*
X101399620Y-75718057D01*
X101403368Y-75717640D01*
X101593968Y-75714434D01*
X101661965Y-75727393D01*
X101661965Y-75980392D01*
X101651509Y-76003627D01*
X101643500Y-76066710D01*
X101638927Y-76159706D01*
X101638235Y-76218638D01*
X101638668Y-76328537D01*
X101641422Y-76397252D01*
X101648679Y-76433405D01*
X101662624Y-76445615D01*
X101685438Y-76442504D01*
X101694265Y-76439894D01*
X101777200Y-76395344D01*
X101844040Y-76325279D01*
X101873411Y-76263446D01*
X101871638Y-76181301D01*
X101835010Y-76098062D01*
X101774366Y-76028238D01*
X101700544Y-75986337D01*
X101661965Y-75980392D01*
X101661965Y-75727393D01*
X101761605Y-75746385D01*
X101902289Y-75809773D01*
X102012026Y-75900878D01*
X102086826Y-76015978D01*
X102122696Y-76151355D01*
X102115645Y-76303287D01*
G37*
X102115645Y-76303287D02*
X102100155Y-76367051D01*
X102043431Y-76489300D01*
X101956798Y-76593834D01*
X101852926Y-76666180D01*
X101829604Y-76676119D01*
X101768516Y-76689754D01*
X101678147Y-76699298D01*
X101586810Y-76702549D01*
X101414118Y-76702549D01*
X101414118Y-76341470D01*
X101413555Y-76192546D01*
X101410136Y-76087632D01*
X101401269Y-76020937D01*
X101384359Y-75986666D01*
X101356811Y-75979028D01*
X101316032Y-75992229D01*
X101268317Y-76015877D01*
X101188686Y-76081843D01*
X101149013Y-76173512D01*
X101150305Y-76285555D01*
X101193486Y-76412472D01*
X101246776Y-76522158D01*
X101174809Y-76613173D01*
X101102843Y-76704188D01*
X101023731Y-76618563D01*
X100948983Y-76504250D01*
X100903916Y-76363666D01*
X100891304Y-76212449D01*
X100913921Y-76066236D01*
X100921595Y-76042647D01*
X100988704Y-75914141D01*
X101088753Y-75818551D01*
X101224729Y-75753861D01*
X101399620Y-75718057D01*
X101403368Y-75717640D01*
X101593968Y-75714434D01*
X101661965Y-75727393D01*
X101661965Y-75980392D01*
X101651509Y-76003627D01*
X101643500Y-76066710D01*
X101638927Y-76159706D01*
X101638235Y-76218638D01*
X101638668Y-76328537D01*
X101641422Y-76397252D01*
X101648679Y-76433405D01*
X101662624Y-76445615D01*
X101685438Y-76442504D01*
X101694265Y-76439894D01*
X101777200Y-76395344D01*
X101844040Y-76325279D01*
X101873411Y-76263446D01*
X101871638Y-76181301D01*
X101835010Y-76098062D01*
X101774366Y-76028238D01*
X101700544Y-75986337D01*
X101661965Y-75980392D01*
X101661965Y-75727393D01*
X101761605Y-75746385D01*
X101902289Y-75809773D01*
X102012026Y-75900878D01*
X102086826Y-76015978D01*
X102122696Y-76151355D01*
X102115645Y-76303287D01*
G36*
X102090801Y-69506760D02*
G01*
X102061198Y-69568736D01*
X102018439Y-69628759D01*
X101969225Y-69674486D01*
X101906456Y-69707793D01*
X101823029Y-69730555D01*
X101711841Y-69744647D01*
X101565791Y-69751942D01*
X101377777Y-69754318D01*
X101358088Y-69754355D01*
X100916078Y-69754902D01*
X100916078Y-69480980D01*
X101323565Y-69480980D01*
X101474529Y-69480785D01*
X101583944Y-69479436D01*
X101660067Y-69475788D01*
X101711152Y-69468696D01*
X101745455Y-69457013D01*
X101771232Y-69439594D01*
X101796702Y-69415329D01*
X101851429Y-69330435D01*
X101861584Y-69237761D01*
X101826983Y-69149473D01*
X101801230Y-69118770D01*
X101777018Y-69096229D01*
X101751088Y-69080046D01*
X101715292Y-69069168D01*
X101661481Y-69062542D01*
X101581507Y-69059115D01*
X101467221Y-69057834D01*
X101328093Y-69057647D01*
X100916078Y-69057647D01*
X100916078Y-68783725D01*
X102111372Y-68783725D01*
X102111372Y-68920686D01*
X102108121Y-69002916D01*
X102096574Y-69045340D01*
X102074048Y-69057641D01*
X102073380Y-69057647D01*
X102051319Y-69063354D01*
X102053823Y-69088527D01*
X102078063Y-69138578D01*
X102113729Y-69252094D01*
X102117695Y-69381945D01*
X102090801Y-69506760D01*
G37*
X102090801Y-69506760D02*
X102061198Y-69568736D01*
X102018439Y-69628759D01*
X101969225Y-69674486D01*
X101906456Y-69707793D01*
X101823029Y-69730555D01*
X101711841Y-69744647D01*
X101565791Y-69751942D01*
X101377777Y-69754318D01*
X101358088Y-69754355D01*
X100916078Y-69754902D01*
X100916078Y-69480980D01*
X101323565Y-69480980D01*
X101474529Y-69480785D01*
X101583944Y-69479436D01*
X101660067Y-69475788D01*
X101711152Y-69468696D01*
X101745455Y-69457013D01*
X101771232Y-69439594D01*
X101796702Y-69415329D01*
X101851429Y-69330435D01*
X101861584Y-69237761D01*
X101826983Y-69149473D01*
X101801230Y-69118770D01*
X101777018Y-69096229D01*
X101751088Y-69080046D01*
X101715292Y-69069168D01*
X101661481Y-69062542D01*
X101581507Y-69059115D01*
X101467221Y-69057834D01*
X101328093Y-69057647D01*
X100916078Y-69057647D01*
X100916078Y-68783725D01*
X102111372Y-68783725D01*
X102111372Y-68920686D01*
X102108121Y-69002916D01*
X102096574Y-69045340D01*
X102074048Y-69057641D01*
X102073380Y-69057647D01*
X102051319Y-69063354D01*
X102053823Y-69088527D01*
X102078063Y-69138578D01*
X102113729Y-69252094D01*
X102117695Y-69381945D01*
X102090801Y-69506760D01*
G36*
X102112528Y-74563637D02*
G01*
X102086359Y-74649290D01*
X102053293Y-74704437D01*
X102027145Y-74722401D01*
X101996148Y-74717457D01*
X101947453Y-74685372D01*
X101912965Y-74658243D01*
X101850617Y-74602317D01*
X101824385Y-74560299D01*
X101826097Y-74524480D01*
X101853137Y-74418224D01*
X101851909Y-74340189D01*
X101821265Y-74276820D01*
X101803330Y-74255546D01*
X101740221Y-74187451D01*
X100916078Y-74187451D01*
X100916078Y-73913529D01*
X102111372Y-73913529D01*
X102111372Y-74050490D01*
X102108121Y-74132719D01*
X102096574Y-74175144D01*
X102074048Y-74187445D01*
X102073380Y-74187451D01*
X102049785Y-74193260D01*
X102052862Y-74219531D01*
X102069885Y-74255931D01*
X102101561Y-74331111D01*
X102120619Y-74392158D01*
X102125504Y-74470708D01*
X102112528Y-74563637D01*
G37*
X102112528Y-74563637D02*
X102086359Y-74649290D01*
X102053293Y-74704437D01*
X102027145Y-74722401D01*
X101996148Y-74717457D01*
X101947453Y-74685372D01*
X101912965Y-74658243D01*
X101850617Y-74602317D01*
X101824385Y-74560299D01*
X101826097Y-74524480D01*
X101853137Y-74418224D01*
X101851909Y-74340189D01*
X101821265Y-74276820D01*
X101803330Y-74255546D01*
X101740221Y-74187451D01*
X100916078Y-74187451D01*
X100916078Y-73913529D01*
X102111372Y-73913529D01*
X102111372Y-74050490D01*
X102108121Y-74132719D01*
X102096574Y-74175144D01*
X102074048Y-74187445D01*
X102073380Y-74187451D01*
X102049785Y-74193260D01*
X102052862Y-74219531D01*
X102069885Y-74255931D01*
X102101561Y-74331111D01*
X102120619Y-74392158D01*
X102125504Y-74470708D01*
X102112528Y-74563637D01*
G36*
X110366828Y-71746535D02*
G01*
X109769637Y-71859117D01*
X109598390Y-72274531D01*
X109427143Y-72689944D01*
X109766022Y-73188302D01*
X109860378Y-73327868D01*
X109944625Y-73454028D01*
X110014917Y-73560895D01*
X110067408Y-73642582D01*
X110098251Y-73693201D01*
X110104902Y-73706986D01*
X110087797Y-73731820D01*
X110040511Y-73784888D01*
X109969083Y-73860240D01*
X109879555Y-73951929D01*
X109777966Y-74054007D01*
X109670357Y-74160526D01*
X109562768Y-74265536D01*
X109461240Y-74363091D01*
X109371814Y-74447242D01*
X109300529Y-74512040D01*
X109253427Y-74551538D01*
X109237663Y-74560980D01*
X109208602Y-74547391D01*
X109144934Y-74509293D01*
X109052888Y-74450694D01*
X108938691Y-74375597D01*
X108808571Y-74288009D01*
X108734354Y-74237254D01*
X108598833Y-74144745D01*
X108476539Y-74062540D01*
X108373560Y-73994630D01*
X108295982Y-73945000D01*
X108249894Y-73917640D01*
X108240208Y-73913529D01*
X108212681Y-73922849D01*
X108148527Y-73948254D01*
X108056765Y-73985911D01*
X107946416Y-74031986D01*
X107826500Y-74082646D01*
X107706036Y-74134059D01*
X107594046Y-74182389D01*
X107499548Y-74223806D01*
X107431563Y-74254474D01*
X107399112Y-74270562D01*
X107397835Y-74271511D01*
X107391638Y-74296772D01*
X107377815Y-74364046D01*
X107357723Y-74466360D01*
X107332721Y-74596741D01*
X107304169Y-74748216D01*
X107287704Y-74836594D01*
X107256886Y-74998452D01*
X107227561Y-75144649D01*
X107201334Y-75267787D01*
X107179809Y-75360469D01*
X107164590Y-75415301D01*
X107159762Y-75426323D01*
X107127081Y-75437119D01*
X107053270Y-75445829D01*
X106946963Y-75452460D01*
X106816788Y-75457018D01*
X106671379Y-75459509D01*
X106519365Y-75459938D01*
X106369378Y-75458311D01*
X106230049Y-75454635D01*
X106110010Y-75448915D01*
X106017890Y-75441158D01*
X105962323Y-75431368D01*
X105950755Y-75425496D01*
X105936890Y-75390399D01*
X105917067Y-75316028D01*
X105893616Y-75212223D01*
X105868864Y-75088819D01*
X105860857Y-75045741D01*
X105822814Y-74838047D01*
X105792176Y-74673984D01*
X105767726Y-74548130D01*
X105748246Y-74455065D01*
X105732519Y-74389367D01*
X105719327Y-74345617D01*
X105707451Y-74318392D01*
X105695675Y-74302272D01*
X105693347Y-74300017D01*
X105655855Y-74277503D01*
X105582890Y-74243158D01*
X105483388Y-74200411D01*
X105366282Y-74152692D01*
X105240507Y-74103430D01*
X105114998Y-74056055D01*
X104998690Y-74013995D01*
X104900516Y-73980680D01*
X104829412Y-73959541D01*
X104794313Y-73954005D01*
X104793083Y-73954466D01*
X104764394Y-73973223D01*
X104701270Y-74015776D01*
X104610282Y-74077653D01*
X104498000Y-74154382D01*
X104370995Y-74241491D01*
X104334902Y-74266299D01*
X104204052Y-74354753D01*
X104084664Y-74432588D01*
X103983593Y-74495566D01*
X103907696Y-74539445D01*
X103863828Y-74559985D01*
X103858438Y-74560980D01*
X103830111Y-74543722D01*
X103773994Y-74496036D01*
X103696118Y-74424050D01*
X103602515Y-74333897D01*
X103499214Y-74231705D01*
X103392249Y-74123606D01*
X103287649Y-74015728D01*
X103191446Y-73914204D01*
X103109671Y-73825162D01*
X103048355Y-73754733D01*
X103013529Y-73709047D01*
X103007843Y-73696409D01*
X103021235Y-73666991D01*
X103057356Y-73606761D01*
X103110119Y-73525530D01*
X103152588Y-73463030D01*
X103230515Y-73349785D01*
X103322271Y-73215674D01*
X103413880Y-73081155D01*
X103462909Y-73008833D01*
X103628485Y-72764038D01*
X103517380Y-72558551D01*
X103468707Y-72464936D01*
X103430874Y-72385330D01*
X103409297Y-72331467D01*
X103406294Y-72317757D01*
X103428462Y-72301270D01*
X103491106Y-72268745D01*
X103588446Y-72222609D01*
X103714706Y-72165290D01*
X103864105Y-72099216D01*
X104030867Y-72026815D01*
X104209213Y-71950516D01*
X104393364Y-71872746D01*
X104577543Y-71795934D01*
X104755970Y-71722506D01*
X104922868Y-71654892D01*
X105072458Y-71595520D01*
X105198962Y-71546816D01*
X105296601Y-71511210D01*
X105359598Y-71491130D01*
X105381234Y-71487900D01*
X105408831Y-71513496D01*
X105453630Y-71569539D01*
X105506321Y-71644311D01*
X105510490Y-71650587D01*
X105665186Y-71843845D01*
X105845664Y-71999674D01*
X106046153Y-72116724D01*
X106260881Y-72193645D01*
X106484078Y-72229086D01*
X106709974Y-72221697D01*
X106932796Y-72170127D01*
X107146776Y-72073026D01*
X107193591Y-72044458D01*
X107382637Y-71895868D01*
X107534443Y-71720327D01*
X107648221Y-71523910D01*
X107723180Y-71312693D01*
X107758533Y-71092753D01*
X107753488Y-70870163D01*
X107707256Y-70651001D01*
X107619049Y-70441342D01*
X107488076Y-70247261D01*
X107434918Y-70187226D01*
X107268516Y-70034435D01*
X107093343Y-69923097D01*
X106896989Y-69846723D01*
X106702538Y-69804187D01*
X106483913Y-69793686D01*
X106264203Y-69828701D01*
X106050835Y-69905673D01*
X105851233Y-70021047D01*
X105672826Y-70171266D01*
X105523038Y-70352773D01*
X105507249Y-70376627D01*
X105455543Y-70452201D01*
X105410743Y-70509651D01*
X105382138Y-70537117D01*
X105381234Y-70537517D01*
X105350291Y-70531620D01*
X105280064Y-70508245D01*
X105176330Y-70469821D01*
X105044865Y-70418777D01*
X104891448Y-70357542D01*
X104721854Y-70288544D01*
X104541862Y-70214214D01*
X104357247Y-70136978D01*
X104173787Y-70059268D01*
X103997259Y-69983511D01*
X103833441Y-69912137D01*
X103688108Y-69847574D01*
X103567038Y-69792252D01*
X103476008Y-69748600D01*
X103420795Y-69719046D01*
X103406294Y-69707144D01*
X103417586Y-69670777D01*
X103447870Y-69602730D01*
X103491735Y-69514737D01*
X103517380Y-69466351D01*
X103628485Y-69260863D01*
X103462909Y-69016068D01*
X103378085Y-68891106D01*
X103284739Y-68754295D01*
X103196847Y-68626089D01*
X103152588Y-68561871D01*
X103091937Y-68471551D01*
X103043874Y-68395071D01*
X103014485Y-68342407D01*
X103008273Y-68325302D01*
X103025032Y-68300405D01*
X103071819Y-68245305D01*
X103143775Y-68165343D01*
X103236043Y-68065861D01*
X103343765Y-67952200D01*
X103412929Y-67880315D01*
X103536498Y-67754551D01*
X103647021Y-67645863D01*
X103739770Y-67558645D01*
X103810018Y-67497289D01*
X103853035Y-67466191D01*
X103861765Y-67463208D01*
X103894971Y-67477053D01*
X103962113Y-67515312D01*
X104056392Y-67573742D01*
X104171010Y-67648097D01*
X104299172Y-67734135D01*
X104334902Y-67758603D01*
X104464766Y-67847755D01*
X104581686Y-67927738D01*
X104679093Y-67994080D01*
X104750416Y-68042311D01*
X104789085Y-68067957D01*
X104793083Y-68070435D01*
X104823900Y-68066729D01*
X104891656Y-68047061D01*
X104987416Y-68014860D01*
X105102246Y-67973555D01*
X105227211Y-67926575D01*
X105353376Y-67877349D01*
X105471807Y-67829308D01*
X105573570Y-67785881D01*
X105649729Y-67750496D01*
X105691351Y-67726584D01*
X105693347Y-67724884D01*
X105705242Y-67710262D01*
X105717005Y-67685565D01*
X105729854Y-67645372D01*
X105745006Y-67584263D01*
X105763679Y-67496817D01*
X105787090Y-67377612D01*
X105816458Y-67221227D01*
X105853000Y-67022243D01*
X105860857Y-66979160D01*
X105885528Y-66851471D01*
X105909662Y-66740153D01*
X105930931Y-66655045D01*
X105947007Y-66605983D01*
X105950755Y-66599405D01*
X105983982Y-66588564D01*
X106058234Y-66579753D01*
X106164879Y-66572976D01*
X106295288Y-66568240D01*
X106440828Y-66565550D01*
X106592869Y-66564913D01*
X106742779Y-66566334D01*
X106881927Y-66569820D01*
X107001683Y-66575376D01*
X107093414Y-66583008D01*
X107148489Y-66592722D01*
X107159762Y-66598578D01*
X107171132Y-66631180D01*
X107189631Y-66705418D01*
X107213653Y-66813896D01*
X107241593Y-66949217D01*
X107271847Y-67103985D01*
X107287704Y-67188308D01*
X107317611Y-67348296D01*
X107344705Y-67490967D01*
X107367624Y-67609348D01*
X107385012Y-67696465D01*
X107395508Y-67745345D01*
X107397835Y-67753390D01*
X107424069Y-67766987D01*
X107487260Y-67795729D01*
X107578378Y-67835785D01*
X107688398Y-67883324D01*
X107808290Y-67934515D01*
X107929028Y-67985526D01*
X108041584Y-68032526D01*
X108136929Y-68071684D01*
X108206038Y-68099169D01*
X108239881Y-68111149D01*
X108241360Y-68111372D01*
X108268058Y-68097791D01*
X108329495Y-68059715D01*
X108419566Y-68001147D01*
X108532165Y-67926088D01*
X108661185Y-67838540D01*
X108735294Y-67787647D01*
X108871178Y-67694909D01*
X108994546Y-67612541D01*
X109099158Y-67544561D01*
X109178772Y-67494988D01*
X109227148Y-67467842D01*
X109237993Y-67463921D01*
X109263235Y-67480775D01*
X109317131Y-67527368D01*
X109393642Y-67597749D01*
X109486732Y-67685965D01*
X109590360Y-67786065D01*
X109698491Y-67892098D01*
X109805085Y-67998111D01*
X109904105Y-68098152D01*
X109989513Y-68186270D01*
X110055270Y-68256513D01*
X110095339Y-68302928D01*
X110104902Y-68318456D01*
X110091455Y-68343739D01*
X110053680Y-68404211D01*
X109995420Y-68493992D01*
X109920521Y-68607203D01*
X109832830Y-68737964D01*
X109766022Y-68836600D01*
X109427143Y-69334957D01*
X109598390Y-69750371D01*
X109769637Y-70165784D01*
X110366828Y-70278366D01*
X110964020Y-70390949D01*
X110964020Y-71633952D01*
X110366828Y-71746535D01*
G37*
X110366828Y-71746535D02*
X109769637Y-71859117D01*
X109598390Y-72274531D01*
X109427143Y-72689944D01*
X109766022Y-73188302D01*
X109860378Y-73327868D01*
X109944625Y-73454028D01*
X110014917Y-73560895D01*
X110067408Y-73642582D01*
X110098251Y-73693201D01*
X110104902Y-73706986D01*
X110087797Y-73731820D01*
X110040511Y-73784888D01*
X109969083Y-73860240D01*
X109879555Y-73951929D01*
X109777966Y-74054007D01*
X109670357Y-74160526D01*
X109562768Y-74265536D01*
X109461240Y-74363091D01*
X109371814Y-74447242D01*
X109300529Y-74512040D01*
X109253427Y-74551538D01*
X109237663Y-74560980D01*
X109208602Y-74547391D01*
X109144934Y-74509293D01*
X109052888Y-74450694D01*
X108938691Y-74375597D01*
X108808571Y-74288009D01*
X108734354Y-74237254D01*
X108598833Y-74144745D01*
X108476539Y-74062540D01*
X108373560Y-73994630D01*
X108295982Y-73945000D01*
X108249894Y-73917640D01*
X108240208Y-73913529D01*
X108212681Y-73922849D01*
X108148527Y-73948254D01*
X108056765Y-73985911D01*
X107946416Y-74031986D01*
X107826500Y-74082646D01*
X107706036Y-74134059D01*
X107594046Y-74182389D01*
X107499548Y-74223806D01*
X107431563Y-74254474D01*
X107399112Y-74270562D01*
X107397835Y-74271511D01*
X107391638Y-74296772D01*
X107377815Y-74364046D01*
X107357723Y-74466360D01*
X107332721Y-74596741D01*
X107304169Y-74748216D01*
X107287704Y-74836594D01*
X107256886Y-74998452D01*
X107227561Y-75144649D01*
X107201334Y-75267787D01*
X107179809Y-75360469D01*
X107164590Y-75415301D01*
X107159762Y-75426323D01*
X107127081Y-75437119D01*
X107053270Y-75445829D01*
X106946963Y-75452460D01*
X106816788Y-75457018D01*
X106671379Y-75459509D01*
X106519365Y-75459938D01*
X106369378Y-75458311D01*
X106230049Y-75454635D01*
X106110010Y-75448915D01*
X106017890Y-75441158D01*
X105962323Y-75431368D01*
X105950755Y-75425496D01*
X105936890Y-75390399D01*
X105917067Y-75316028D01*
X105893616Y-75212223D01*
X105868864Y-75088819D01*
X105860857Y-75045741D01*
X105822814Y-74838047D01*
X105792176Y-74673984D01*
X105767726Y-74548130D01*
X105748246Y-74455065D01*
X105732519Y-74389367D01*
X105719327Y-74345617D01*
X105707451Y-74318392D01*
X105695675Y-74302272D01*
X105693347Y-74300017D01*
X105655855Y-74277503D01*
X105582890Y-74243158D01*
X105483388Y-74200411D01*
X105366282Y-74152692D01*
X105240507Y-74103430D01*
X105114998Y-74056055D01*
X104998690Y-74013995D01*
X104900516Y-73980680D01*
X104829412Y-73959541D01*
X104794313Y-73954005D01*
X104793083Y-73954466D01*
X104764394Y-73973223D01*
X104701270Y-74015776D01*
X104610282Y-74077653D01*
X104498000Y-74154382D01*
X104370995Y-74241491D01*
X104334902Y-74266299D01*
X104204052Y-74354753D01*
X104084664Y-74432588D01*
X103983593Y-74495566D01*
X103907696Y-74539445D01*
X103863828Y-74559985D01*
X103858438Y-74560980D01*
X103830111Y-74543722D01*
X103773994Y-74496036D01*
X103696118Y-74424050D01*
X103602515Y-74333897D01*
X103499214Y-74231705D01*
X103392249Y-74123606D01*
X103287649Y-74015728D01*
X103191446Y-73914204D01*
X103109671Y-73825162D01*
X103048355Y-73754733D01*
X103013529Y-73709047D01*
X103007843Y-73696409D01*
X103021235Y-73666991D01*
X103057356Y-73606761D01*
X103110119Y-73525530D01*
X103152588Y-73463030D01*
X103230515Y-73349785D01*
X103322271Y-73215674D01*
X103413880Y-73081155D01*
X103462909Y-73008833D01*
X103628485Y-72764038D01*
X103517380Y-72558551D01*
X103468707Y-72464936D01*
X103430874Y-72385330D01*
X103409297Y-72331467D01*
X103406294Y-72317757D01*
X103428462Y-72301270D01*
X103491106Y-72268745D01*
X103588446Y-72222609D01*
X103714706Y-72165290D01*
X103864105Y-72099216D01*
X104030867Y-72026815D01*
X104209213Y-71950516D01*
X104393364Y-71872746D01*
X104577543Y-71795934D01*
X104755970Y-71722506D01*
X104922868Y-71654892D01*
X105072458Y-71595520D01*
X105198962Y-71546816D01*
X105296601Y-71511210D01*
X105359598Y-71491130D01*
X105381234Y-71487900D01*
X105408831Y-71513496D01*
X105453630Y-71569539D01*
X105506321Y-71644311D01*
X105510490Y-71650587D01*
X105665186Y-71843845D01*
X105845664Y-71999674D01*
X106046153Y-72116724D01*
X106260881Y-72193645D01*
X106484078Y-72229086D01*
X106709974Y-72221697D01*
X106932796Y-72170127D01*
X107146776Y-72073026D01*
X107193591Y-72044458D01*
X107382637Y-71895868D01*
X107534443Y-71720327D01*
X107648221Y-71523910D01*
X107723180Y-71312693D01*
X107758533Y-71092753D01*
X107753488Y-70870163D01*
X107707256Y-70651001D01*
X107619049Y-70441342D01*
X107488076Y-70247261D01*
X107434918Y-70187226D01*
X107268516Y-70034435D01*
X107093343Y-69923097D01*
X106896989Y-69846723D01*
X106702538Y-69804187D01*
X106483913Y-69793686D01*
X106264203Y-69828701D01*
X106050835Y-69905673D01*
X105851233Y-70021047D01*
X105672826Y-70171266D01*
X105523038Y-70352773D01*
X105507249Y-70376627D01*
X105455543Y-70452201D01*
X105410743Y-70509651D01*
X105382138Y-70537117D01*
X105381234Y-70537517D01*
X105350291Y-70531620D01*
X105280064Y-70508245D01*
X105176330Y-70469821D01*
X105044865Y-70418777D01*
X104891448Y-70357542D01*
X104721854Y-70288544D01*
X104541862Y-70214214D01*
X104357247Y-70136978D01*
X104173787Y-70059268D01*
X103997259Y-69983511D01*
X103833441Y-69912137D01*
X103688108Y-69847574D01*
X103567038Y-69792252D01*
X103476008Y-69748600D01*
X103420795Y-69719046D01*
X103406294Y-69707144D01*
X103417586Y-69670777D01*
X103447870Y-69602730D01*
X103491735Y-69514737D01*
X103517380Y-69466351D01*
X103628485Y-69260863D01*
X103462909Y-69016068D01*
X103378085Y-68891106D01*
X103284739Y-68754295D01*
X103196847Y-68626089D01*
X103152588Y-68561871D01*
X103091937Y-68471551D01*
X103043874Y-68395071D01*
X103014485Y-68342407D01*
X103008273Y-68325302D01*
X103025032Y-68300405D01*
X103071819Y-68245305D01*
X103143775Y-68165343D01*
X103236043Y-68065861D01*
X103343765Y-67952200D01*
X103412929Y-67880315D01*
X103536498Y-67754551D01*
X103647021Y-67645863D01*
X103739770Y-67558645D01*
X103810018Y-67497289D01*
X103853035Y-67466191D01*
X103861765Y-67463208D01*
X103894971Y-67477053D01*
X103962113Y-67515312D01*
X104056392Y-67573742D01*
X104171010Y-67648097D01*
X104299172Y-67734135D01*
X104334902Y-67758603D01*
X104464766Y-67847755D01*
X104581686Y-67927738D01*
X104679093Y-67994080D01*
X104750416Y-68042311D01*
X104789085Y-68067957D01*
X104793083Y-68070435D01*
X104823900Y-68066729D01*
X104891656Y-68047061D01*
X104987416Y-68014860D01*
X105102246Y-67973555D01*
X105227211Y-67926575D01*
X105353376Y-67877349D01*
X105471807Y-67829308D01*
X105573570Y-67785881D01*
X105649729Y-67750496D01*
X105691351Y-67726584D01*
X105693347Y-67724884D01*
X105705242Y-67710262D01*
X105717005Y-67685565D01*
X105729854Y-67645372D01*
X105745006Y-67584263D01*
X105763679Y-67496817D01*
X105787090Y-67377612D01*
X105816458Y-67221227D01*
X105853000Y-67022243D01*
X105860857Y-66979160D01*
X105885528Y-66851471D01*
X105909662Y-66740153D01*
X105930931Y-66655045D01*
X105947007Y-66605983D01*
X105950755Y-66599405D01*
X105983982Y-66588564D01*
X106058234Y-66579753D01*
X106164879Y-66572976D01*
X106295288Y-66568240D01*
X106440828Y-66565550D01*
X106592869Y-66564913D01*
X106742779Y-66566334D01*
X106881927Y-66569820D01*
X107001683Y-66575376D01*
X107093414Y-66583008D01*
X107148489Y-66592722D01*
X107159762Y-66598578D01*
X107171132Y-66631180D01*
X107189631Y-66705418D01*
X107213653Y-66813896D01*
X107241593Y-66949217D01*
X107271847Y-67103985D01*
X107287704Y-67188308D01*
X107317611Y-67348296D01*
X107344705Y-67490967D01*
X107367624Y-67609348D01*
X107385012Y-67696465D01*
X107395508Y-67745345D01*
X107397835Y-67753390D01*
X107424069Y-67766987D01*
X107487260Y-67795729D01*
X107578378Y-67835785D01*
X107688398Y-67883324D01*
X107808290Y-67934515D01*
X107929028Y-67985526D01*
X108041584Y-68032526D01*
X108136929Y-68071684D01*
X108206038Y-68099169D01*
X108239881Y-68111149D01*
X108241360Y-68111372D01*
X108268058Y-68097791D01*
X108329495Y-68059715D01*
X108419566Y-68001147D01*
X108532165Y-67926088D01*
X108661185Y-67838540D01*
X108735294Y-67787647D01*
X108871178Y-67694909D01*
X108994546Y-67612541D01*
X109099158Y-67544561D01*
X109178772Y-67494988D01*
X109227148Y-67467842D01*
X109237993Y-67463921D01*
X109263235Y-67480775D01*
X109317131Y-67527368D01*
X109393642Y-67597749D01*
X109486732Y-67685965D01*
X109590360Y-67786065D01*
X109698491Y-67892098D01*
X109805085Y-67998111D01*
X109904105Y-68098152D01*
X109989513Y-68186270D01*
X110055270Y-68256513D01*
X110095339Y-68302928D01*
X110104902Y-68318456D01*
X110091455Y-68343739D01*
X110053680Y-68404211D01*
X109995420Y-68493992D01*
X109920521Y-68607203D01*
X109832830Y-68737964D01*
X109766022Y-68836600D01*
X109427143Y-69334957D01*
X109598390Y-69750371D01*
X109769637Y-70165784D01*
X110366828Y-70278366D01*
X110964020Y-70390949D01*
X110964020Y-71633952D01*
X110366828Y-71746535D01*
%TO.C,LOGO1*%
G36*
X106194738Y-114612580D02*
G01*
X106179885Y-114616175D01*
X106150842Y-114620212D01*
X106112928Y-114623999D01*
X106097599Y-114625207D01*
X106047187Y-114630110D01*
X105993513Y-114637247D01*
X105947419Y-114645158D01*
X105943590Y-114645946D01*
X105874483Y-114660484D01*
X105773329Y-114577898D01*
X105735721Y-114547987D01*
X105703500Y-114523852D01*
X105679612Y-114507590D01*
X105667004Y-114501297D01*
X105665972Y-114501515D01*
X105655379Y-114500060D01*
X105638381Y-114487965D01*
X105637827Y-114487457D01*
X105618564Y-114473056D01*
X105587998Y-114453770D01*
X105552300Y-114433462D01*
X105547500Y-114430893D01*
X105509866Y-114410038D01*
X105474832Y-114389132D01*
X105449508Y-114372433D01*
X105448018Y-114371333D01*
X105426841Y-114356552D01*
X105412624Y-114348546D01*
X105410767Y-114348077D01*
X105399526Y-114344213D01*
X105375551Y-114334020D01*
X105343738Y-114319589D01*
X105339289Y-114317513D01*
X105285207Y-114292309D01*
X105245317Y-114274086D01*
X105216161Y-114261447D01*
X105194280Y-114252993D01*
X105176217Y-114247327D01*
X105158512Y-114243050D01*
X105151343Y-114241536D01*
X105081646Y-114226789D01*
X105025089Y-114214111D01*
X104983394Y-114203912D01*
X104958284Y-114196603D01*
X104952294Y-114194046D01*
X104935270Y-114189495D01*
X104902116Y-114185626D01*
X104856233Y-114182534D01*
X104801020Y-114180317D01*
X104739877Y-114179069D01*
X104676204Y-114178887D01*
X104613400Y-114179867D01*
X104554866Y-114182104D01*
X104546154Y-114182583D01*
X104476563Y-114187044D01*
X104420756Y-114192013D01*
X104372985Y-114198438D01*
X104327498Y-114207268D01*
X104278548Y-114219450D01*
X104220385Y-114235934D01*
X104217455Y-114236793D01*
X104178584Y-114247588D01*
X104145243Y-114255741D01*
X104123130Y-114259892D01*
X104119494Y-114260154D01*
X104096793Y-114265575D01*
X104081847Y-114273391D01*
X104063134Y-114282957D01*
X104032257Y-114295525D01*
X103995755Y-114308442D01*
X103994193Y-114308954D01*
X103967165Y-114318152D01*
X103941800Y-114327898D01*
X103914737Y-114339801D01*
X103882614Y-114355470D01*
X103842071Y-114376516D01*
X103789746Y-114404547D01*
X103753230Y-114424338D01*
X103678030Y-114470944D01*
X103595697Y-114532491D01*
X103508771Y-114606945D01*
X103422651Y-114689382D01*
X103360030Y-114754248D01*
X103311028Y-114809279D01*
X103273857Y-114856655D01*
X103246731Y-114898559D01*
X103238083Y-114914692D01*
X103218540Y-114949496D01*
X103196276Y-114983565D01*
X103189398Y-114992846D01*
X103141132Y-115064305D01*
X103110717Y-115131376D01*
X103109961Y-115133704D01*
X103097211Y-115167378D01*
X103082271Y-115199006D01*
X103080559Y-115202089D01*
X103067603Y-115229026D01*
X103053438Y-115264597D01*
X103046296Y-115285247D01*
X103033277Y-115321150D01*
X103018918Y-115354289D01*
X103011622Y-115368286D01*
X103000999Y-115393503D01*
X102990497Y-115429917D01*
X102982933Y-115466654D01*
X102975121Y-115509174D01*
X102965978Y-115551103D01*
X102958710Y-115579000D01*
X102952136Y-115608937D01*
X102945852Y-115651018D01*
X102940893Y-115697861D01*
X102939545Y-115715769D01*
X102937788Y-115765179D01*
X102937887Y-115826271D01*
X102939610Y-115894950D01*
X102942725Y-115967119D01*
X102947000Y-116038685D01*
X102952203Y-116105552D01*
X102958104Y-116163625D01*
X102964469Y-116208809D01*
X102968572Y-116228654D01*
X102982281Y-116278512D01*
X102999757Y-116336205D01*
X103019681Y-116397940D01*
X103040731Y-116459923D01*
X103061589Y-116518360D01*
X103080932Y-116569459D01*
X103097442Y-116609425D01*
X103109797Y-116634467D01*
X103109884Y-116634612D01*
X103126951Y-116664991D01*
X103140171Y-116692463D01*
X103144162Y-116702997D01*
X103154859Y-116727685D01*
X103163972Y-116741538D01*
X103174923Y-116757470D01*
X103191183Y-116784615D01*
X103207655Y-116814206D01*
X103251833Y-116884695D01*
X103311083Y-116961074D01*
X103382921Y-117040653D01*
X103464865Y-117120741D01*
X103554433Y-117198647D01*
X103585149Y-117223347D01*
X103646385Y-117271274D01*
X103694937Y-117308382D01*
X103733172Y-117336310D01*
X103763456Y-117356700D01*
X103788158Y-117371189D01*
X103809644Y-117381418D01*
X103818346Y-117384863D01*
X103851637Y-117399830D01*
X103882695Y-117417608D01*
X103886731Y-117420377D01*
X103907785Y-117432048D01*
X103942300Y-117447613D01*
X103985170Y-117464885D01*
X104023500Y-117478972D01*
X104068055Y-117495040D01*
X104107263Y-117509976D01*
X104136556Y-117521988D01*
X104150500Y-117528718D01*
X104171137Y-117536810D01*
X104202629Y-117544382D01*
X104223573Y-117547795D01*
X104262491Y-117554543D01*
X104300407Y-117563664D01*
X104315166Y-117568264D01*
X104349907Y-117576791D01*
X104389324Y-117581417D01*
X104399386Y-117581692D01*
X104434898Y-117584029D01*
X104467777Y-117589873D01*
X104476008Y-117592311D01*
X104494681Y-117595998D01*
X104525332Y-117597775D01*
X104569847Y-117597638D01*
X104630111Y-117595583D01*
X104704601Y-117591798D01*
X104793070Y-117586497D01*
X104865565Y-117581197D01*
X104925643Y-117575338D01*
X104976861Y-117568362D01*
X105022774Y-117559709D01*
X105066940Y-117548820D01*
X105112914Y-117535137D01*
X105156267Y-117520826D01*
X105202009Y-117505542D01*
X105241889Y-117492702D01*
X105271805Y-117483594D01*
X105287658Y-117479505D01*
X105288151Y-117479438D01*
X105301630Y-117476910D01*
X105318877Y-117471211D01*
X105343536Y-117460840D01*
X105379251Y-117444293D01*
X105415616Y-117426862D01*
X105450201Y-117410178D01*
X105477945Y-117396823D01*
X105494206Y-117389029D01*
X105496212Y-117388082D01*
X105498584Y-117396187D01*
X105500635Y-117420780D01*
X105502233Y-117458811D01*
X105503243Y-117507229D01*
X105503539Y-117554908D01*
X105503539Y-117725138D01*
X105462020Y-117737297D01*
X105431387Y-117747762D01*
X105406009Y-117758916D01*
X105400962Y-117761785D01*
X105378944Y-117772724D01*
X105349170Y-117784203D01*
X105342346Y-117786442D01*
X105315408Y-117796861D01*
X105296379Y-117807647D01*
X105293500Y-117810310D01*
X105277282Y-117820554D01*
X105245936Y-117833247D01*
X105203533Y-117847199D01*
X105154141Y-117861216D01*
X105101830Y-117874106D01*
X105050669Y-117884678D01*
X105024846Y-117889019D01*
X104982277Y-117894411D01*
X104926911Y-117899866D01*
X104862447Y-117905170D01*
X104792588Y-117910110D01*
X104721031Y-117914473D01*
X104651479Y-117918045D01*
X104587630Y-117920614D01*
X104533185Y-117921967D01*
X104491845Y-117921890D01*
X104472341Y-117920838D01*
X104414662Y-117914256D01*
X104357828Y-117906521D01*
X104306471Y-117898369D01*
X104265224Y-117890537D01*
X104238720Y-117883761D01*
X104238423Y-117883659D01*
X104214418Y-117876965D01*
X104178486Y-117868782D01*
X104137982Y-117860772D01*
X104133887Y-117860030D01*
X104094581Y-117851727D01*
X104060369Y-117842278D01*
X104037927Y-117833560D01*
X104036194Y-117832561D01*
X104018662Y-117824182D01*
X103986893Y-117811331D01*
X103945202Y-117795675D01*
X103897901Y-117778879D01*
X103891616Y-117776716D01*
X103843021Y-117759198D01*
X103798703Y-117741660D01*
X103763291Y-117726038D01*
X103741411Y-117714266D01*
X103740193Y-117713409D01*
X103713299Y-117696550D01*
X103687846Y-117684768D01*
X103686462Y-117684316D01*
X103673385Y-117679203D01*
X103656114Y-117670217D01*
X103632055Y-117655760D01*
X103598616Y-117634235D01*
X103553206Y-117604047D01*
X103521187Y-117582496D01*
X103487102Y-117557916D01*
X103442523Y-117523511D01*
X103391431Y-117482580D01*
X103337809Y-117438421D01*
X103285636Y-117394332D01*
X103238895Y-117353611D01*
X103201567Y-117319557D01*
X103188572Y-117306957D01*
X103150473Y-117266878D01*
X103108366Y-117219279D01*
X103065065Y-117167687D01*
X103023382Y-117115632D01*
X102986132Y-117066641D01*
X102956127Y-117024242D01*
X102936183Y-116991965D01*
X102933965Y-116987677D01*
X102914569Y-116952599D01*
X102892569Y-116918412D01*
X102884644Y-116907615D01*
X102866159Y-116880409D01*
X102852865Y-116854765D01*
X102850799Y-116849000D01*
X102842881Y-116828620D01*
X102828648Y-116797264D01*
X102810966Y-116761202D01*
X102808231Y-116755850D01*
X102792793Y-116721912D01*
X102773290Y-116673123D01*
X102751090Y-116613400D01*
X102727562Y-116546660D01*
X102704072Y-116476821D01*
X102681990Y-116407799D01*
X102662682Y-116343511D01*
X102656109Y-116320241D01*
X102646957Y-116276654D01*
X102638648Y-116217199D01*
X102631359Y-116145533D01*
X102625267Y-116065315D01*
X102620552Y-115980202D01*
X102617390Y-115893854D01*
X102615959Y-115809927D01*
X102616437Y-115732081D01*
X102619002Y-115663973D01*
X102622232Y-115623102D01*
X102628073Y-115577272D01*
X102635541Y-115533092D01*
X102643268Y-115498357D01*
X102645345Y-115491218D01*
X102655879Y-115452431D01*
X102664405Y-115411673D01*
X102665770Y-115403154D01*
X102674017Y-115358957D01*
X102685517Y-115312883D01*
X102698463Y-115271147D01*
X102711044Y-115239965D01*
X102715680Y-115231669D01*
X102725943Y-115211647D01*
X102738851Y-115180702D01*
X102748411Y-115154633D01*
X102768728Y-115100855D01*
X102794154Y-115041456D01*
X102822417Y-114981062D01*
X102851246Y-114924301D01*
X102878368Y-114875799D01*
X102901512Y-114840183D01*
X102905162Y-114835395D01*
X102925279Y-114807028D01*
X102948244Y-114770478D01*
X102963832Y-114743189D01*
X102984556Y-114709009D01*
X103013017Y-114667397D01*
X103044134Y-114625667D01*
X103054663Y-114612447D01*
X103096485Y-114563642D01*
X103146341Y-114509668D01*
X103201176Y-114453458D01*
X103257933Y-114397948D01*
X103313554Y-114346072D01*
X103364984Y-114300763D01*
X103409166Y-114264958D01*
X103437346Y-114245059D01*
X103464807Y-114226597D01*
X103495217Y-114204649D01*
X103500846Y-114200392D01*
X103534785Y-114177378D01*
X103582242Y-114149147D01*
X103638706Y-114118016D01*
X103699670Y-114086302D01*
X103760623Y-114056325D01*
X103817056Y-114030400D01*
X103864460Y-114010847D01*
X103881165Y-114004903D01*
X103919996Y-113991045D01*
X103956537Y-113976304D01*
X103979394Y-113965615D01*
X104006037Y-113953784D01*
X104028172Y-113947740D01*
X104031200Y-113947538D01*
X104048394Y-113944851D01*
X104080479Y-113937457D01*
X104123663Y-113926360D01*
X104174150Y-113912563D01*
X104228147Y-113897068D01*
X104272616Y-113883727D01*
X104312166Y-113875178D01*
X104367626Y-113868222D01*
X104435630Y-113862865D01*
X104512809Y-113859112D01*
X104595796Y-113856967D01*
X104681223Y-113856436D01*
X104765723Y-113857522D01*
X104845928Y-113860232D01*
X104918471Y-113864569D01*
X104979985Y-113870538D01*
X105027100Y-113878145D01*
X105044385Y-113882620D01*
X105075884Y-113891580D01*
X105117964Y-113902292D01*
X105162066Y-113912586D01*
X105166500Y-113913562D01*
X105237659Y-113930315D01*
X105296075Y-113946547D01*
X105339391Y-113961550D01*
X105361885Y-113972372D01*
X105384767Y-113983676D01*
X105413738Y-113994707D01*
X105415616Y-113995313D01*
X105444771Y-114006322D01*
X105480333Y-114022045D01*
X105497868Y-114030594D01*
X105526409Y-114044191D01*
X105548479Y-114053094D01*
X105556483Y-114055094D01*
X105569572Y-114060829D01*
X105591725Y-114075433D01*
X105607936Y-114087706D01*
X105638600Y-114109436D01*
X105677876Y-114133754D01*
X105712812Y-114153039D01*
X105735653Y-114166637D01*
X105768337Y-114188594D01*
X105808161Y-114216838D01*
X105852419Y-114249298D01*
X105898408Y-114283902D01*
X105943423Y-114318580D01*
X105984759Y-114351259D01*
X106019714Y-114379868D01*
X106045582Y-114402336D01*
X106059659Y-114416591D01*
X106061422Y-114420065D01*
X106066863Y-114429579D01*
X106082379Y-114450956D01*
X106105578Y-114481017D01*
X106133723Y-114516158D01*
X106168015Y-114559860D01*
X106188846Y-114590239D01*
X106196544Y-114607815D01*
X106194738Y-114612580D01*
G37*
X106194738Y-114612580D02*
X106179885Y-114616175D01*
X106150842Y-114620212D01*
X106112928Y-114623999D01*
X106097599Y-114625207D01*
X106047187Y-114630110D01*
X105993513Y-114637247D01*
X105947419Y-114645158D01*
X105943590Y-114645946D01*
X105874483Y-114660484D01*
X105773329Y-114577898D01*
X105735721Y-114547987D01*
X105703500Y-114523852D01*
X105679612Y-114507590D01*
X105667004Y-114501297D01*
X105665972Y-114501515D01*
X105655379Y-114500060D01*
X105638381Y-114487965D01*
X105637827Y-114487457D01*
X105618564Y-114473056D01*
X105587998Y-114453770D01*
X105552300Y-114433462D01*
X105547500Y-114430893D01*
X105509866Y-114410038D01*
X105474832Y-114389132D01*
X105449508Y-114372433D01*
X105448018Y-114371333D01*
X105426841Y-114356552D01*
X105412624Y-114348546D01*
X105410767Y-114348077D01*
X105399526Y-114344213D01*
X105375551Y-114334020D01*
X105343738Y-114319589D01*
X105339289Y-114317513D01*
X105285207Y-114292309D01*
X105245317Y-114274086D01*
X105216161Y-114261447D01*
X105194280Y-114252993D01*
X105176217Y-114247327D01*
X105158512Y-114243050D01*
X105151343Y-114241536D01*
X105081646Y-114226789D01*
X105025089Y-114214111D01*
X104983394Y-114203912D01*
X104958284Y-114196603D01*
X104952294Y-114194046D01*
X104935270Y-114189495D01*
X104902116Y-114185626D01*
X104856233Y-114182534D01*
X104801020Y-114180317D01*
X104739877Y-114179069D01*
X104676204Y-114178887D01*
X104613400Y-114179867D01*
X104554866Y-114182104D01*
X104546154Y-114182583D01*
X104476563Y-114187044D01*
X104420756Y-114192013D01*
X104372985Y-114198438D01*
X104327498Y-114207268D01*
X104278548Y-114219450D01*
X104220385Y-114235934D01*
X104217455Y-114236793D01*
X104178584Y-114247588D01*
X104145243Y-114255741D01*
X104123130Y-114259892D01*
X104119494Y-114260154D01*
X104096793Y-114265575D01*
X104081847Y-114273391D01*
X104063134Y-114282957D01*
X104032257Y-114295525D01*
X103995755Y-114308442D01*
X103994193Y-114308954D01*
X103967165Y-114318152D01*
X103941800Y-114327898D01*
X103914737Y-114339801D01*
X103882614Y-114355470D01*
X103842071Y-114376516D01*
X103789746Y-114404547D01*
X103753230Y-114424338D01*
X103678030Y-114470944D01*
X103595697Y-114532491D01*
X103508771Y-114606945D01*
X103422651Y-114689382D01*
X103360030Y-114754248D01*
X103311028Y-114809279D01*
X103273857Y-114856655D01*
X103246731Y-114898559D01*
X103238083Y-114914692D01*
X103218540Y-114949496D01*
X103196276Y-114983565D01*
X103189398Y-114992846D01*
X103141132Y-115064305D01*
X103110717Y-115131376D01*
X103109961Y-115133704D01*
X103097211Y-115167378D01*
X103082271Y-115199006D01*
X103080559Y-115202089D01*
X103067603Y-115229026D01*
X103053438Y-115264597D01*
X103046296Y-115285247D01*
X103033277Y-115321150D01*
X103018918Y-115354289D01*
X103011622Y-115368286D01*
X103000999Y-115393503D01*
X102990497Y-115429917D01*
X102982933Y-115466654D01*
X102975121Y-115509174D01*
X102965978Y-115551103D01*
X102958710Y-115579000D01*
X102952136Y-115608937D01*
X102945852Y-115651018D01*
X102940893Y-115697861D01*
X102939545Y-115715769D01*
X102937788Y-115765179D01*
X102937887Y-115826271D01*
X102939610Y-115894950D01*
X102942725Y-115967119D01*
X102947000Y-116038685D01*
X102952203Y-116105552D01*
X102958104Y-116163625D01*
X102964469Y-116208809D01*
X102968572Y-116228654D01*
X102982281Y-116278512D01*
X102999757Y-116336205D01*
X103019681Y-116397940D01*
X103040731Y-116459923D01*
X103061589Y-116518360D01*
X103080932Y-116569459D01*
X103097442Y-116609425D01*
X103109797Y-116634467D01*
X103109884Y-116634612D01*
X103126951Y-116664991D01*
X103140171Y-116692463D01*
X103144162Y-116702997D01*
X103154859Y-116727685D01*
X103163972Y-116741538D01*
X103174923Y-116757470D01*
X103191183Y-116784615D01*
X103207655Y-116814206D01*
X103251833Y-116884695D01*
X103311083Y-116961074D01*
X103382921Y-117040653D01*
X103464865Y-117120741D01*
X103554433Y-117198647D01*
X103585149Y-117223347D01*
X103646385Y-117271274D01*
X103694937Y-117308382D01*
X103733172Y-117336310D01*
X103763456Y-117356700D01*
X103788158Y-117371189D01*
X103809644Y-117381418D01*
X103818346Y-117384863D01*
X103851637Y-117399830D01*
X103882695Y-117417608D01*
X103886731Y-117420377D01*
X103907785Y-117432048D01*
X103942300Y-117447613D01*
X103985170Y-117464885D01*
X104023500Y-117478972D01*
X104068055Y-117495040D01*
X104107263Y-117509976D01*
X104136556Y-117521988D01*
X104150500Y-117528718D01*
X104171137Y-117536810D01*
X104202629Y-117544382D01*
X104223573Y-117547795D01*
X104262491Y-117554543D01*
X104300407Y-117563664D01*
X104315166Y-117568264D01*
X104349907Y-117576791D01*
X104389324Y-117581417D01*
X104399386Y-117581692D01*
X104434898Y-117584029D01*
X104467777Y-117589873D01*
X104476008Y-117592311D01*
X104494681Y-117595998D01*
X104525332Y-117597775D01*
X104569847Y-117597638D01*
X104630111Y-117595583D01*
X104704601Y-117591798D01*
X104793070Y-117586497D01*
X104865565Y-117581197D01*
X104925643Y-117575338D01*
X104976861Y-117568362D01*
X105022774Y-117559709D01*
X105066940Y-117548820D01*
X105112914Y-117535137D01*
X105156267Y-117520826D01*
X105202009Y-117505542D01*
X105241889Y-117492702D01*
X105271805Y-117483594D01*
X105287658Y-117479505D01*
X105288151Y-117479438D01*
X105301630Y-117476910D01*
X105318877Y-117471211D01*
X105343536Y-117460840D01*
X105379251Y-117444293D01*
X105415616Y-117426862D01*
X105450201Y-117410178D01*
X105477945Y-117396823D01*
X105494206Y-117389029D01*
X105496212Y-117388082D01*
X105498584Y-117396187D01*
X105500635Y-117420780D01*
X105502233Y-117458811D01*
X105503243Y-117507229D01*
X105503539Y-117554908D01*
X105503539Y-117725138D01*
X105462020Y-117737297D01*
X105431387Y-117747762D01*
X105406009Y-117758916D01*
X105400962Y-117761785D01*
X105378944Y-117772724D01*
X105349170Y-117784203D01*
X105342346Y-117786442D01*
X105315408Y-117796861D01*
X105296379Y-117807647D01*
X105293500Y-117810310D01*
X105277282Y-117820554D01*
X105245936Y-117833247D01*
X105203533Y-117847199D01*
X105154141Y-117861216D01*
X105101830Y-117874106D01*
X105050669Y-117884678D01*
X105024846Y-117889019D01*
X104982277Y-117894411D01*
X104926911Y-117899866D01*
X104862447Y-117905170D01*
X104792588Y-117910110D01*
X104721031Y-117914473D01*
X104651479Y-117918045D01*
X104587630Y-117920614D01*
X104533185Y-117921967D01*
X104491845Y-117921890D01*
X104472341Y-117920838D01*
X104414662Y-117914256D01*
X104357828Y-117906521D01*
X104306471Y-117898369D01*
X104265224Y-117890537D01*
X104238720Y-117883761D01*
X104238423Y-117883659D01*
X104214418Y-117876965D01*
X104178486Y-117868782D01*
X104137982Y-117860772D01*
X104133887Y-117860030D01*
X104094581Y-117851727D01*
X104060369Y-117842278D01*
X104037927Y-117833560D01*
X104036194Y-117832561D01*
X104018662Y-117824182D01*
X103986893Y-117811331D01*
X103945202Y-117795675D01*
X103897901Y-117778879D01*
X103891616Y-117776716D01*
X103843021Y-117759198D01*
X103798703Y-117741660D01*
X103763291Y-117726038D01*
X103741411Y-117714266D01*
X103740193Y-117713409D01*
X103713299Y-117696550D01*
X103687846Y-117684768D01*
X103686462Y-117684316D01*
X103673385Y-117679203D01*
X103656114Y-117670217D01*
X103632055Y-117655760D01*
X103598616Y-117634235D01*
X103553206Y-117604047D01*
X103521187Y-117582496D01*
X103487102Y-117557916D01*
X103442523Y-117523511D01*
X103391431Y-117482580D01*
X103337809Y-117438421D01*
X103285636Y-117394332D01*
X103238895Y-117353611D01*
X103201567Y-117319557D01*
X103188572Y-117306957D01*
X103150473Y-117266878D01*
X103108366Y-117219279D01*
X103065065Y-117167687D01*
X103023382Y-117115632D01*
X102986132Y-117066641D01*
X102956127Y-117024242D01*
X102936183Y-116991965D01*
X102933965Y-116987677D01*
X102914569Y-116952599D01*
X102892569Y-116918412D01*
X102884644Y-116907615D01*
X102866159Y-116880409D01*
X102852865Y-116854765D01*
X102850799Y-116849000D01*
X102842881Y-116828620D01*
X102828648Y-116797264D01*
X102810966Y-116761202D01*
X102808231Y-116755850D01*
X102792793Y-116721912D01*
X102773290Y-116673123D01*
X102751090Y-116613400D01*
X102727562Y-116546660D01*
X102704072Y-116476821D01*
X102681990Y-116407799D01*
X102662682Y-116343511D01*
X102656109Y-116320241D01*
X102646957Y-116276654D01*
X102638648Y-116217199D01*
X102631359Y-116145533D01*
X102625267Y-116065315D01*
X102620552Y-115980202D01*
X102617390Y-115893854D01*
X102615959Y-115809927D01*
X102616437Y-115732081D01*
X102619002Y-115663973D01*
X102622232Y-115623102D01*
X102628073Y-115577272D01*
X102635541Y-115533092D01*
X102643268Y-115498357D01*
X102645345Y-115491218D01*
X102655879Y-115452431D01*
X102664405Y-115411673D01*
X102665770Y-115403154D01*
X102674017Y-115358957D01*
X102685517Y-115312883D01*
X102698463Y-115271147D01*
X102711044Y-115239965D01*
X102715680Y-115231669D01*
X102725943Y-115211647D01*
X102738851Y-115180702D01*
X102748411Y-115154633D01*
X102768728Y-115100855D01*
X102794154Y-115041456D01*
X102822417Y-114981062D01*
X102851246Y-114924301D01*
X102878368Y-114875799D01*
X102901512Y-114840183D01*
X102905162Y-114835395D01*
X102925279Y-114807028D01*
X102948244Y-114770478D01*
X102963832Y-114743189D01*
X102984556Y-114709009D01*
X103013017Y-114667397D01*
X103044134Y-114625667D01*
X103054663Y-114612447D01*
X103096485Y-114563642D01*
X103146341Y-114509668D01*
X103201176Y-114453458D01*
X103257933Y-114397948D01*
X103313554Y-114346072D01*
X103364984Y-114300763D01*
X103409166Y-114264958D01*
X103437346Y-114245059D01*
X103464807Y-114226597D01*
X103495217Y-114204649D01*
X103500846Y-114200392D01*
X103534785Y-114177378D01*
X103582242Y-114149147D01*
X103638706Y-114118016D01*
X103699670Y-114086302D01*
X103760623Y-114056325D01*
X103817056Y-114030400D01*
X103864460Y-114010847D01*
X103881165Y-114004903D01*
X103919996Y-113991045D01*
X103956537Y-113976304D01*
X103979394Y-113965615D01*
X104006037Y-113953784D01*
X104028172Y-113947740D01*
X104031200Y-113947538D01*
X104048394Y-113944851D01*
X104080479Y-113937457D01*
X104123663Y-113926360D01*
X104174150Y-113912563D01*
X104228147Y-113897068D01*
X104272616Y-113883727D01*
X104312166Y-113875178D01*
X104367626Y-113868222D01*
X104435630Y-113862865D01*
X104512809Y-113859112D01*
X104595796Y-113856967D01*
X104681223Y-113856436D01*
X104765723Y-113857522D01*
X104845928Y-113860232D01*
X104918471Y-113864569D01*
X104979985Y-113870538D01*
X105027100Y-113878145D01*
X105044385Y-113882620D01*
X105075884Y-113891580D01*
X105117964Y-113902292D01*
X105162066Y-113912586D01*
X105166500Y-113913562D01*
X105237659Y-113930315D01*
X105296075Y-113946547D01*
X105339391Y-113961550D01*
X105361885Y-113972372D01*
X105384767Y-113983676D01*
X105413738Y-113994707D01*
X105415616Y-113995313D01*
X105444771Y-114006322D01*
X105480333Y-114022045D01*
X105497868Y-114030594D01*
X105526409Y-114044191D01*
X105548479Y-114053094D01*
X105556483Y-114055094D01*
X105569572Y-114060829D01*
X105591725Y-114075433D01*
X105607936Y-114087706D01*
X105638600Y-114109436D01*
X105677876Y-114133754D01*
X105712812Y-114153039D01*
X105735653Y-114166637D01*
X105768337Y-114188594D01*
X105808161Y-114216838D01*
X105852419Y-114249298D01*
X105898408Y-114283902D01*
X105943423Y-114318580D01*
X105984759Y-114351259D01*
X106019714Y-114379868D01*
X106045582Y-114402336D01*
X106059659Y-114416591D01*
X106061422Y-114420065D01*
X106066863Y-114429579D01*
X106082379Y-114450956D01*
X106105578Y-114481017D01*
X106133723Y-114516158D01*
X106168015Y-114559860D01*
X106188846Y-114590239D01*
X106196544Y-114607815D01*
X106194738Y-114612580D01*
G36*
X105907308Y-121940303D02*
G01*
X105871162Y-121968776D01*
X105835338Y-121995835D01*
X105806439Y-122016517D01*
X105801500Y-122019827D01*
X105763911Y-122045387D01*
X105740888Y-122063432D01*
X105729983Y-122076046D01*
X105728231Y-122082209D01*
X105720063Y-122090506D01*
X105698256Y-122104595D01*
X105666855Y-122121963D01*
X105652520Y-122129262D01*
X105612780Y-122149522D01*
X105575383Y-122169440D01*
X105547154Y-122185361D01*
X105542616Y-122188110D01*
X105509165Y-122205707D01*
X105472974Y-122220477D01*
X105469346Y-122221666D01*
X105439366Y-122232548D01*
X105414570Y-122243857D01*
X105410731Y-122246054D01*
X105385059Y-122258473D01*
X105344603Y-122274093D01*
X105293596Y-122291620D01*
X105236268Y-122309763D01*
X105176852Y-122327229D01*
X105119578Y-122342725D01*
X105068678Y-122354958D01*
X105029731Y-122362435D01*
X104985998Y-122368037D01*
X104929622Y-122373682D01*
X104864297Y-122379154D01*
X104793718Y-122384236D01*
X104721578Y-122388710D01*
X104651570Y-122392360D01*
X104587388Y-122394970D01*
X104532726Y-122396322D01*
X104491279Y-122396200D01*
X104472341Y-122395145D01*
X104414662Y-122388563D01*
X104357828Y-122380828D01*
X104306471Y-122372677D01*
X104265224Y-122364845D01*
X104238720Y-122358068D01*
X104238423Y-122357967D01*
X104214418Y-122351273D01*
X104178486Y-122343090D01*
X104137982Y-122335079D01*
X104133887Y-122334338D01*
X104094581Y-122326035D01*
X104060369Y-122316586D01*
X104037927Y-122307868D01*
X104036194Y-122306869D01*
X104018662Y-122298490D01*
X103986893Y-122285639D01*
X103945202Y-122269982D01*
X103897901Y-122253186D01*
X103891616Y-122251023D01*
X103843021Y-122233505D01*
X103798703Y-122215968D01*
X103763291Y-122200346D01*
X103741411Y-122188573D01*
X103740193Y-122187717D01*
X103713299Y-122170858D01*
X103687846Y-122159076D01*
X103686462Y-122158624D01*
X103673385Y-122153511D01*
X103656114Y-122144524D01*
X103632055Y-122130067D01*
X103598616Y-122108543D01*
X103553206Y-122078354D01*
X103521187Y-122056803D01*
X103487102Y-122032223D01*
X103442523Y-121997819D01*
X103391431Y-121956888D01*
X103337809Y-121912728D01*
X103285636Y-121868639D01*
X103238895Y-121827919D01*
X103201567Y-121793864D01*
X103188572Y-121781264D01*
X103150473Y-121741186D01*
X103108366Y-121693586D01*
X103065065Y-121641995D01*
X103023382Y-121589940D01*
X102986132Y-121540949D01*
X102956127Y-121498550D01*
X102936183Y-121466273D01*
X102933965Y-121461985D01*
X102914569Y-121426906D01*
X102892569Y-121392720D01*
X102884644Y-121381923D01*
X102866159Y-121354717D01*
X102852865Y-121329073D01*
X102850799Y-121323307D01*
X102842881Y-121302927D01*
X102828648Y-121271571D01*
X102810966Y-121235510D01*
X102808231Y-121230157D01*
X102792793Y-121196219D01*
X102773290Y-121147431D01*
X102751090Y-121087708D01*
X102727562Y-121020968D01*
X102704072Y-120951128D01*
X102681990Y-120882106D01*
X102662682Y-120817818D01*
X102656109Y-120794548D01*
X102646957Y-120750962D01*
X102638648Y-120691507D01*
X102631359Y-120619841D01*
X102625267Y-120539623D01*
X102620552Y-120454510D01*
X102617390Y-120368161D01*
X102615959Y-120284235D01*
X102616437Y-120206388D01*
X102619002Y-120138281D01*
X102622232Y-120097410D01*
X102628073Y-120051580D01*
X102635541Y-120007400D01*
X102643268Y-119972665D01*
X102645345Y-119965525D01*
X102655879Y-119926739D01*
X102664405Y-119885981D01*
X102665770Y-119877461D01*
X102674017Y-119833265D01*
X102685517Y-119787191D01*
X102698463Y-119745455D01*
X102711044Y-119714273D01*
X102715680Y-119705977D01*
X102725943Y-119685954D01*
X102738851Y-119655009D01*
X102748411Y-119628941D01*
X102768728Y-119575163D01*
X102794154Y-119515763D01*
X102822417Y-119455370D01*
X102851246Y-119398609D01*
X102878368Y-119350107D01*
X102901512Y-119314491D01*
X102905162Y-119309703D01*
X102925279Y-119281336D01*
X102948244Y-119244785D01*
X102963832Y-119217496D01*
X102984556Y-119183317D01*
X103013017Y-119141705D01*
X103044134Y-119099975D01*
X103054663Y-119086754D01*
X103096485Y-119037950D01*
X103146341Y-118983976D01*
X103201176Y-118927766D01*
X103257933Y-118872256D01*
X103313554Y-118820379D01*
X103364984Y-118775071D01*
X103409166Y-118739265D01*
X103437346Y-118719367D01*
X103464807Y-118700905D01*
X103495217Y-118678957D01*
X103500846Y-118674699D01*
X103534785Y-118651686D01*
X103582242Y-118623455D01*
X103638706Y-118592324D01*
X103699670Y-118560610D01*
X103760623Y-118530632D01*
X103817056Y-118504708D01*
X103864460Y-118485155D01*
X103881165Y-118479210D01*
X103919996Y-118465353D01*
X103956537Y-118450611D01*
X103979394Y-118439923D01*
X104006037Y-118428092D01*
X104028172Y-118422048D01*
X104031200Y-118421846D01*
X104048394Y-118419158D01*
X104080479Y-118411765D01*
X104123663Y-118400668D01*
X104174150Y-118386871D01*
X104228147Y-118371376D01*
X104272616Y-118358034D01*
X104308750Y-118350261D01*
X104360225Y-118343769D01*
X104423904Y-118338574D01*
X104496649Y-118334694D01*
X104575323Y-118332147D01*
X104656788Y-118330949D01*
X104737907Y-118331118D01*
X104815543Y-118332671D01*
X104886557Y-118335625D01*
X104947813Y-118339998D01*
X104996172Y-118345806D01*
X105028498Y-118353068D01*
X105030715Y-118353869D01*
X105059733Y-118363206D01*
X105093647Y-118371900D01*
X105098116Y-118372866D01*
X105168955Y-118388024D01*
X105221992Y-118400094D01*
X105258653Y-118409441D01*
X105280368Y-118416425D01*
X105288408Y-118421129D01*
X105299339Y-118429013D01*
X105322194Y-118441599D01*
X105350915Y-118455945D01*
X105379444Y-118469110D01*
X105401724Y-118478153D01*
X105410604Y-118480461D01*
X105423245Y-118484508D01*
X105446635Y-118494795D01*
X105460950Y-118501731D01*
X105503539Y-118523001D01*
X105503539Y-118692231D01*
X105503189Y-118747277D01*
X105502218Y-118794838D01*
X105500746Y-118831774D01*
X105498892Y-118854940D01*
X105497134Y-118861461D01*
X105486024Y-118856046D01*
X105466057Y-118842518D01*
X105458709Y-118837038D01*
X105436811Y-118821627D01*
X105421236Y-118812969D01*
X105418710Y-118812308D01*
X105406425Y-118808084D01*
X105382179Y-118797354D01*
X105353678Y-118783645D01*
X105322366Y-118769733D01*
X105296870Y-118761370D01*
X105283641Y-118760271D01*
X105266423Y-118759135D01*
X105247886Y-118750701D01*
X105233447Y-118742707D01*
X105214522Y-118735089D01*
X105187693Y-118726825D01*
X105149541Y-118716893D01*
X105096649Y-118704271D01*
X105078577Y-118700080D01*
X105034062Y-118689620D01*
X104987877Y-118678487D01*
X104956462Y-118670707D01*
X104906080Y-118661668D01*
X104839612Y-118655477D01*
X104760318Y-118652242D01*
X104671457Y-118652070D01*
X104576289Y-118655069D01*
X104541270Y-118656937D01*
X104472279Y-118661492D01*
X104416851Y-118666624D01*
X104369015Y-118673332D01*
X104322801Y-118682614D01*
X104272237Y-118695469D01*
X104217455Y-118711100D01*
X104178584Y-118721896D01*
X104145243Y-118730049D01*
X104123130Y-118734199D01*
X104119494Y-118734461D01*
X104096793Y-118739883D01*
X104081847Y-118747699D01*
X104063134Y-118757265D01*
X104032257Y-118769832D01*
X103995755Y-118782750D01*
X103994193Y-118783262D01*
X103967165Y-118792460D01*
X103941800Y-118802206D01*
X103914737Y-118814108D01*
X103882614Y-118829778D01*
X103842071Y-118850823D01*
X103789746Y-118878854D01*
X103753230Y-118898645D01*
X103678030Y-118945251D01*
X103595697Y-119006799D01*
X103508771Y-119081252D01*
X103422651Y-119163689D01*
X103360030Y-119228556D01*
X103311028Y-119283587D01*
X103273857Y-119330963D01*
X103246731Y-119372866D01*
X103238083Y-119389000D01*
X103218540Y-119423804D01*
X103196276Y-119457873D01*
X103189398Y-119467154D01*
X103141132Y-119538613D01*
X103110717Y-119605684D01*
X103109961Y-119608012D01*
X103097211Y-119641686D01*
X103082271Y-119673313D01*
X103080559Y-119676396D01*
X103067603Y-119703334D01*
X103053438Y-119738905D01*
X103046296Y-119759555D01*
X103033277Y-119795457D01*
X103018918Y-119828596D01*
X103011622Y-119842594D01*
X103000999Y-119867810D01*
X102990497Y-119904224D01*
X102982933Y-119940961D01*
X102975121Y-119983481D01*
X102965978Y-120025411D01*
X102958710Y-120053307D01*
X102952136Y-120083245D01*
X102945852Y-120125326D01*
X102940893Y-120172169D01*
X102939545Y-120190077D01*
X102937788Y-120239487D01*
X102937887Y-120300579D01*
X102939610Y-120369257D01*
X102942725Y-120441427D01*
X102947000Y-120512992D01*
X102952203Y-120579859D01*
X102958104Y-120637933D01*
X102964469Y-120683117D01*
X102968572Y-120702961D01*
X102982281Y-120752820D01*
X102999757Y-120810513D01*
X103019681Y-120872248D01*
X103040731Y-120934230D01*
X103061589Y-120992667D01*
X103080932Y-121043766D01*
X103097442Y-121083733D01*
X103109797Y-121108775D01*
X103109884Y-121108920D01*
X103126951Y-121139299D01*
X103140171Y-121166770D01*
X103144162Y-121177305D01*
X103154859Y-121201992D01*
X103163972Y-121215846D01*
X103174923Y-121231778D01*
X103191183Y-121258923D01*
X103207655Y-121288514D01*
X103251833Y-121359003D01*
X103311083Y-121435382D01*
X103382921Y-121514960D01*
X103464865Y-121595048D01*
X103554433Y-121672955D01*
X103585149Y-121697655D01*
X103646385Y-121745581D01*
X103694937Y-121782689D01*
X103733172Y-121810618D01*
X103763456Y-121831007D01*
X103788158Y-121845497D01*
X103809644Y-121855725D01*
X103818346Y-121859171D01*
X103851637Y-121874137D01*
X103882695Y-121891916D01*
X103886731Y-121894685D01*
X103907785Y-121906356D01*
X103942300Y-121921921D01*
X103985170Y-121939193D01*
X104023500Y-121953279D01*
X104068055Y-121969348D01*
X104107263Y-121984283D01*
X104136556Y-121996296D01*
X104150500Y-122003026D01*
X104171137Y-122011118D01*
X104202629Y-122018689D01*
X104223573Y-122022103D01*
X104262491Y-122028851D01*
X104300407Y-122037972D01*
X104315166Y-122042571D01*
X104349907Y-122051099D01*
X104389324Y-122055725D01*
X104399386Y-122056000D01*
X104434898Y-122058337D01*
X104467777Y-122064180D01*
X104476008Y-122066619D01*
X104495546Y-122069411D01*
X104531135Y-122070655D01*
X104579363Y-122070500D01*
X104636816Y-122069096D01*
X104700082Y-122066593D01*
X104765749Y-122063141D01*
X104830402Y-122058888D01*
X104890630Y-122053986D01*
X104943019Y-122048584D01*
X104971116Y-122044895D01*
X105006567Y-122037763D01*
X105054086Y-122025591D01*
X105108607Y-122009959D01*
X105165068Y-121992444D01*
X105218404Y-121974625D01*
X105263553Y-121958080D01*
X105295449Y-121944387D01*
X105298385Y-121942885D01*
X105330276Y-121927353D01*
X105365652Y-121912042D01*
X105398663Y-121899274D01*
X105423458Y-121891367D01*
X105431930Y-121889923D01*
X105449167Y-121884960D01*
X105477835Y-121871858D01*
X105513094Y-121853290D01*
X105550104Y-121831935D01*
X105584024Y-121810467D01*
X105610014Y-121791562D01*
X105610378Y-121791263D01*
X105638070Y-121770828D01*
X105657222Y-121764126D01*
X105672316Y-121770329D01*
X105680047Y-121778374D01*
X105703010Y-121797108D01*
X105740210Y-121817656D01*
X105786744Y-121837903D01*
X105837707Y-121855738D01*
X105888197Y-121869046D01*
X105892491Y-121869937D01*
X105974039Y-121886447D01*
X105907308Y-121940303D01*
G37*
X105907308Y-121940303D02*
X105871162Y-121968776D01*
X105835338Y-121995835D01*
X105806439Y-122016517D01*
X105801500Y-122019827D01*
X105763911Y-122045387D01*
X105740888Y-122063432D01*
X105729983Y-122076046D01*
X105728231Y-122082209D01*
X105720063Y-122090506D01*
X105698256Y-122104595D01*
X105666855Y-122121963D01*
X105652520Y-122129262D01*
X105612780Y-122149522D01*
X105575383Y-122169440D01*
X105547154Y-122185361D01*
X105542616Y-122188110D01*
X105509165Y-122205707D01*
X105472974Y-122220477D01*
X105469346Y-122221666D01*
X105439366Y-122232548D01*
X105414570Y-122243857D01*
X105410731Y-122246054D01*
X105385059Y-122258473D01*
X105344603Y-122274093D01*
X105293596Y-122291620D01*
X105236268Y-122309763D01*
X105176852Y-122327229D01*
X105119578Y-122342725D01*
X105068678Y-122354958D01*
X105029731Y-122362435D01*
X104985998Y-122368037D01*
X104929622Y-122373682D01*
X104864297Y-122379154D01*
X104793718Y-122384236D01*
X104721578Y-122388710D01*
X104651570Y-122392360D01*
X104587388Y-122394970D01*
X104532726Y-122396322D01*
X104491279Y-122396200D01*
X104472341Y-122395145D01*
X104414662Y-122388563D01*
X104357828Y-122380828D01*
X104306471Y-122372677D01*
X104265224Y-122364845D01*
X104238720Y-122358068D01*
X104238423Y-122357967D01*
X104214418Y-122351273D01*
X104178486Y-122343090D01*
X104137982Y-122335079D01*
X104133887Y-122334338D01*
X104094581Y-122326035D01*
X104060369Y-122316586D01*
X104037927Y-122307868D01*
X104036194Y-122306869D01*
X104018662Y-122298490D01*
X103986893Y-122285639D01*
X103945202Y-122269982D01*
X103897901Y-122253186D01*
X103891616Y-122251023D01*
X103843021Y-122233505D01*
X103798703Y-122215968D01*
X103763291Y-122200346D01*
X103741411Y-122188573D01*
X103740193Y-122187717D01*
X103713299Y-122170858D01*
X103687846Y-122159076D01*
X103686462Y-122158624D01*
X103673385Y-122153511D01*
X103656114Y-122144524D01*
X103632055Y-122130067D01*
X103598616Y-122108543D01*
X103553206Y-122078354D01*
X103521187Y-122056803D01*
X103487102Y-122032223D01*
X103442523Y-121997819D01*
X103391431Y-121956888D01*
X103337809Y-121912728D01*
X103285636Y-121868639D01*
X103238895Y-121827919D01*
X103201567Y-121793864D01*
X103188572Y-121781264D01*
X103150473Y-121741186D01*
X103108366Y-121693586D01*
X103065065Y-121641995D01*
X103023382Y-121589940D01*
X102986132Y-121540949D01*
X102956127Y-121498550D01*
X102936183Y-121466273D01*
X102933965Y-121461985D01*
X102914569Y-121426906D01*
X102892569Y-121392720D01*
X102884644Y-121381923D01*
X102866159Y-121354717D01*
X102852865Y-121329073D01*
X102850799Y-121323307D01*
X102842881Y-121302927D01*
X102828648Y-121271571D01*
X102810966Y-121235510D01*
X102808231Y-121230157D01*
X102792793Y-121196219D01*
X102773290Y-121147431D01*
X102751090Y-121087708D01*
X102727562Y-121020968D01*
X102704072Y-120951128D01*
X102681990Y-120882106D01*
X102662682Y-120817818D01*
X102656109Y-120794548D01*
X102646957Y-120750962D01*
X102638648Y-120691507D01*
X102631359Y-120619841D01*
X102625267Y-120539623D01*
X102620552Y-120454510D01*
X102617390Y-120368161D01*
X102615959Y-120284235D01*
X102616437Y-120206388D01*
X102619002Y-120138281D01*
X102622232Y-120097410D01*
X102628073Y-120051580D01*
X102635541Y-120007400D01*
X102643268Y-119972665D01*
X102645345Y-119965525D01*
X102655879Y-119926739D01*
X102664405Y-119885981D01*
X102665770Y-119877461D01*
X102674017Y-119833265D01*
X102685517Y-119787191D01*
X102698463Y-119745455D01*
X102711044Y-119714273D01*
X102715680Y-119705977D01*
X102725943Y-119685954D01*
X102738851Y-119655009D01*
X102748411Y-119628941D01*
X102768728Y-119575163D01*
X102794154Y-119515763D01*
X102822417Y-119455370D01*
X102851246Y-119398609D01*
X102878368Y-119350107D01*
X102901512Y-119314491D01*
X102905162Y-119309703D01*
X102925279Y-119281336D01*
X102948244Y-119244785D01*
X102963832Y-119217496D01*
X102984556Y-119183317D01*
X103013017Y-119141705D01*
X103044134Y-119099975D01*
X103054663Y-119086754D01*
X103096485Y-119037950D01*
X103146341Y-118983976D01*
X103201176Y-118927766D01*
X103257933Y-118872256D01*
X103313554Y-118820379D01*
X103364984Y-118775071D01*
X103409166Y-118739265D01*
X103437346Y-118719367D01*
X103464807Y-118700905D01*
X103495217Y-118678957D01*
X103500846Y-118674699D01*
X103534785Y-118651686D01*
X103582242Y-118623455D01*
X103638706Y-118592324D01*
X103699670Y-118560610D01*
X103760623Y-118530632D01*
X103817056Y-118504708D01*
X103864460Y-118485155D01*
X103881165Y-118479210D01*
X103919996Y-118465353D01*
X103956537Y-118450611D01*
X103979394Y-118439923D01*
X104006037Y-118428092D01*
X104028172Y-118422048D01*
X104031200Y-118421846D01*
X104048394Y-118419158D01*
X104080479Y-118411765D01*
X104123663Y-118400668D01*
X104174150Y-118386871D01*
X104228147Y-118371376D01*
X104272616Y-118358034D01*
X104308750Y-118350261D01*
X104360225Y-118343769D01*
X104423904Y-118338574D01*
X104496649Y-118334694D01*
X104575323Y-118332147D01*
X104656788Y-118330949D01*
X104737907Y-118331118D01*
X104815543Y-118332671D01*
X104886557Y-118335625D01*
X104947813Y-118339998D01*
X104996172Y-118345806D01*
X105028498Y-118353068D01*
X105030715Y-118353869D01*
X105059733Y-118363206D01*
X105093647Y-118371900D01*
X105098116Y-118372866D01*
X105168955Y-118388024D01*
X105221992Y-118400094D01*
X105258653Y-118409441D01*
X105280368Y-118416425D01*
X105288408Y-118421129D01*
X105299339Y-118429013D01*
X105322194Y-118441599D01*
X105350915Y-118455945D01*
X105379444Y-118469110D01*
X105401724Y-118478153D01*
X105410604Y-118480461D01*
X105423245Y-118484508D01*
X105446635Y-118494795D01*
X105460950Y-118501731D01*
X105503539Y-118523001D01*
X105503539Y-118692231D01*
X105503189Y-118747277D01*
X105502218Y-118794838D01*
X105500746Y-118831774D01*
X105498892Y-118854940D01*
X105497134Y-118861461D01*
X105486024Y-118856046D01*
X105466057Y-118842518D01*
X105458709Y-118837038D01*
X105436811Y-118821627D01*
X105421236Y-118812969D01*
X105418710Y-118812308D01*
X105406425Y-118808084D01*
X105382179Y-118797354D01*
X105353678Y-118783645D01*
X105322366Y-118769733D01*
X105296870Y-118761370D01*
X105283641Y-118760271D01*
X105266423Y-118759135D01*
X105247886Y-118750701D01*
X105233447Y-118742707D01*
X105214522Y-118735089D01*
X105187693Y-118726825D01*
X105149541Y-118716893D01*
X105096649Y-118704271D01*
X105078577Y-118700080D01*
X105034062Y-118689620D01*
X104987877Y-118678487D01*
X104956462Y-118670707D01*
X104906080Y-118661668D01*
X104839612Y-118655477D01*
X104760318Y-118652242D01*
X104671457Y-118652070D01*
X104576289Y-118655069D01*
X104541270Y-118656937D01*
X104472279Y-118661492D01*
X104416851Y-118666624D01*
X104369015Y-118673332D01*
X104322801Y-118682614D01*
X104272237Y-118695469D01*
X104217455Y-118711100D01*
X104178584Y-118721896D01*
X104145243Y-118730049D01*
X104123130Y-118734199D01*
X104119494Y-118734461D01*
X104096793Y-118739883D01*
X104081847Y-118747699D01*
X104063134Y-118757265D01*
X104032257Y-118769832D01*
X103995755Y-118782750D01*
X103994193Y-118783262D01*
X103967165Y-118792460D01*
X103941800Y-118802206D01*
X103914737Y-118814108D01*
X103882614Y-118829778D01*
X103842071Y-118850823D01*
X103789746Y-118878854D01*
X103753230Y-118898645D01*
X103678030Y-118945251D01*
X103595697Y-119006799D01*
X103508771Y-119081252D01*
X103422651Y-119163689D01*
X103360030Y-119228556D01*
X103311028Y-119283587D01*
X103273857Y-119330963D01*
X103246731Y-119372866D01*
X103238083Y-119389000D01*
X103218540Y-119423804D01*
X103196276Y-119457873D01*
X103189398Y-119467154D01*
X103141132Y-119538613D01*
X103110717Y-119605684D01*
X103109961Y-119608012D01*
X103097211Y-119641686D01*
X103082271Y-119673313D01*
X103080559Y-119676396D01*
X103067603Y-119703334D01*
X103053438Y-119738905D01*
X103046296Y-119759555D01*
X103033277Y-119795457D01*
X103018918Y-119828596D01*
X103011622Y-119842594D01*
X103000999Y-119867810D01*
X102990497Y-119904224D01*
X102982933Y-119940961D01*
X102975121Y-119983481D01*
X102965978Y-120025411D01*
X102958710Y-120053307D01*
X102952136Y-120083245D01*
X102945852Y-120125326D01*
X102940893Y-120172169D01*
X102939545Y-120190077D01*
X102937788Y-120239487D01*
X102937887Y-120300579D01*
X102939610Y-120369257D01*
X102942725Y-120441427D01*
X102947000Y-120512992D01*
X102952203Y-120579859D01*
X102958104Y-120637933D01*
X102964469Y-120683117D01*
X102968572Y-120702961D01*
X102982281Y-120752820D01*
X102999757Y-120810513D01*
X103019681Y-120872248D01*
X103040731Y-120934230D01*
X103061589Y-120992667D01*
X103080932Y-121043766D01*
X103097442Y-121083733D01*
X103109797Y-121108775D01*
X103109884Y-121108920D01*
X103126951Y-121139299D01*
X103140171Y-121166770D01*
X103144162Y-121177305D01*
X103154859Y-121201992D01*
X103163972Y-121215846D01*
X103174923Y-121231778D01*
X103191183Y-121258923D01*
X103207655Y-121288514D01*
X103251833Y-121359003D01*
X103311083Y-121435382D01*
X103382921Y-121514960D01*
X103464865Y-121595048D01*
X103554433Y-121672955D01*
X103585149Y-121697655D01*
X103646385Y-121745581D01*
X103694937Y-121782689D01*
X103733172Y-121810618D01*
X103763456Y-121831007D01*
X103788158Y-121845497D01*
X103809644Y-121855725D01*
X103818346Y-121859171D01*
X103851637Y-121874137D01*
X103882695Y-121891916D01*
X103886731Y-121894685D01*
X103907785Y-121906356D01*
X103942300Y-121921921D01*
X103985170Y-121939193D01*
X104023500Y-121953279D01*
X104068055Y-121969348D01*
X104107263Y-121984283D01*
X104136556Y-121996296D01*
X104150500Y-122003026D01*
X104171137Y-122011118D01*
X104202629Y-122018689D01*
X104223573Y-122022103D01*
X104262491Y-122028851D01*
X104300407Y-122037972D01*
X104315166Y-122042571D01*
X104349907Y-122051099D01*
X104389324Y-122055725D01*
X104399386Y-122056000D01*
X104434898Y-122058337D01*
X104467777Y-122064180D01*
X104476008Y-122066619D01*
X104495546Y-122069411D01*
X104531135Y-122070655D01*
X104579363Y-122070500D01*
X104636816Y-122069096D01*
X104700082Y-122066593D01*
X104765749Y-122063141D01*
X104830402Y-122058888D01*
X104890630Y-122053986D01*
X104943019Y-122048584D01*
X104971116Y-122044895D01*
X105006567Y-122037763D01*
X105054086Y-122025591D01*
X105108607Y-122009959D01*
X105165068Y-121992444D01*
X105218404Y-121974625D01*
X105263553Y-121958080D01*
X105295449Y-121944387D01*
X105298385Y-121942885D01*
X105330276Y-121927353D01*
X105365652Y-121912042D01*
X105398663Y-121899274D01*
X105423458Y-121891367D01*
X105431930Y-121889923D01*
X105449167Y-121884960D01*
X105477835Y-121871858D01*
X105513094Y-121853290D01*
X105550104Y-121831935D01*
X105584024Y-121810467D01*
X105610014Y-121791562D01*
X105610378Y-121791263D01*
X105638070Y-121770828D01*
X105657222Y-121764126D01*
X105672316Y-121770329D01*
X105680047Y-121778374D01*
X105703010Y-121797108D01*
X105740210Y-121817656D01*
X105786744Y-121837903D01*
X105837707Y-121855738D01*
X105888197Y-121869046D01*
X105892491Y-121869937D01*
X105974039Y-121886447D01*
X105907308Y-121940303D01*
G36*
X107991380Y-120839730D02*
G01*
X107988275Y-120904718D01*
X107983744Y-120972258D01*
X107978301Y-121035948D01*
X107972459Y-121089385D01*
X107969837Y-121108384D01*
X107961281Y-121160985D01*
X107950799Y-121219556D01*
X107939215Y-121280072D01*
X107927354Y-121338506D01*
X107916038Y-121390832D01*
X107906091Y-121433026D01*
X107898337Y-121461061D01*
X107896731Y-121465670D01*
X107887715Y-121489384D01*
X107447901Y-121489384D01*
X107468625Y-121438096D01*
X107517097Y-121304886D01*
X107555204Y-121171940D01*
X107582442Y-121042184D01*
X107598306Y-120918542D01*
X107602290Y-120803940D01*
X107594764Y-120707143D01*
X107579528Y-120629672D01*
X107558041Y-120568884D01*
X107529061Y-120522580D01*
X107491346Y-120488556D01*
X107462270Y-120472310D01*
X107405486Y-120455273D01*
X107351656Y-120456840D01*
X107302426Y-120476121D01*
X107259441Y-120512225D01*
X107224348Y-120564260D01*
X107204696Y-120611682D01*
X107196111Y-120641316D01*
X107184752Y-120685748D01*
X107171663Y-120740614D01*
X107157886Y-120801551D01*
X107145492Y-120859269D01*
X107124227Y-120958206D01*
X107104936Y-121041053D01*
X107086656Y-121111039D01*
X107068426Y-121171390D01*
X107049282Y-121225334D01*
X107028262Y-121276097D01*
X107008559Y-121318423D01*
X106962625Y-121401274D01*
X106912264Y-121467508D01*
X106854331Y-121520000D01*
X106785681Y-121561629D01*
X106707778Y-121593699D01*
X106675339Y-121604251D01*
X106646599Y-121611549D01*
X106616625Y-121616193D01*
X106580484Y-121618785D01*
X106533246Y-121619925D01*
X106490231Y-121620182D01*
X106383953Y-121616737D01*
X106292710Y-121605115D01*
X106213322Y-121584209D01*
X106142608Y-121552912D01*
X106077388Y-121510115D01*
X106014483Y-121454711D01*
X106014133Y-121454365D01*
X105953060Y-121383299D01*
X105903445Y-121301608D01*
X105864541Y-121207517D01*
X105835600Y-121099251D01*
X105817215Y-120986269D01*
X105810798Y-120910503D01*
X105807987Y-120822031D01*
X105808716Y-120727336D01*
X105812920Y-120632903D01*
X105820533Y-120545215D01*
X105821785Y-120534518D01*
X105841965Y-120404390D01*
X105871289Y-120266869D01*
X105907832Y-120130660D01*
X105919518Y-120092608D01*
X105953617Y-119984923D01*
X106410718Y-119984923D01*
X106363515Y-120085057D01*
X106312658Y-120202474D01*
X106271379Y-120317633D01*
X106239526Y-120429355D01*
X106216949Y-120536460D01*
X106203494Y-120637770D01*
X106199012Y-120732105D01*
X106203349Y-120818286D01*
X106216356Y-120895132D01*
X106237881Y-120961465D01*
X106267771Y-121016105D01*
X106305876Y-121057873D01*
X106352044Y-121085590D01*
X106406124Y-121098075D01*
X106467964Y-121094149D01*
X106492370Y-121088416D01*
X106522811Y-121077770D01*
X106549381Y-121062807D01*
X106572911Y-121041781D01*
X106594233Y-121012945D01*
X106614177Y-120974554D01*
X106633576Y-120924861D01*
X106653260Y-120862122D01*
X106674060Y-120784589D01*
X106696808Y-120690517D01*
X106710769Y-120629692D01*
X106726473Y-120563432D01*
X106743263Y-120497908D01*
X106759892Y-120437632D01*
X106775110Y-120387118D01*
X106787668Y-120350880D01*
X106788459Y-120348885D01*
X106838360Y-120244718D01*
X106897771Y-120157527D01*
X106967108Y-120087051D01*
X107046781Y-120033027D01*
X107137205Y-119995196D01*
X107238792Y-119973296D01*
X107351955Y-119967065D01*
X107389897Y-119968297D01*
X107503670Y-119982477D01*
X107606388Y-120012601D01*
X107697763Y-120058485D01*
X107777511Y-120119944D01*
X107845344Y-120196792D01*
X107900976Y-120288846D01*
X107907534Y-120302423D01*
X107940224Y-120381252D01*
X107964591Y-120462434D01*
X107981178Y-120549443D01*
X107990527Y-120645757D01*
X107993181Y-120754851D01*
X107991380Y-120839730D01*
G37*
X107991380Y-120839730D02*
X107988275Y-120904718D01*
X107983744Y-120972258D01*
X107978301Y-121035948D01*
X107972459Y-121089385D01*
X107969837Y-121108384D01*
X107961281Y-121160985D01*
X107950799Y-121219556D01*
X107939215Y-121280072D01*
X107927354Y-121338506D01*
X107916038Y-121390832D01*
X107906091Y-121433026D01*
X107898337Y-121461061D01*
X107896731Y-121465670D01*
X107887715Y-121489384D01*
X107447901Y-121489384D01*
X107468625Y-121438096D01*
X107517097Y-121304886D01*
X107555204Y-121171940D01*
X107582442Y-121042184D01*
X107598306Y-120918542D01*
X107602290Y-120803940D01*
X107594764Y-120707143D01*
X107579528Y-120629672D01*
X107558041Y-120568884D01*
X107529061Y-120522580D01*
X107491346Y-120488556D01*
X107462270Y-120472310D01*
X107405486Y-120455273D01*
X107351656Y-120456840D01*
X107302426Y-120476121D01*
X107259441Y-120512225D01*
X107224348Y-120564260D01*
X107204696Y-120611682D01*
X107196111Y-120641316D01*
X107184752Y-120685748D01*
X107171663Y-120740614D01*
X107157886Y-120801551D01*
X107145492Y-120859269D01*
X107124227Y-120958206D01*
X107104936Y-121041053D01*
X107086656Y-121111039D01*
X107068426Y-121171390D01*
X107049282Y-121225334D01*
X107028262Y-121276097D01*
X107008559Y-121318423D01*
X106962625Y-121401274D01*
X106912264Y-121467508D01*
X106854331Y-121520000D01*
X106785681Y-121561629D01*
X106707778Y-121593699D01*
X106675339Y-121604251D01*
X106646599Y-121611549D01*
X106616625Y-121616193D01*
X106580484Y-121618785D01*
X106533246Y-121619925D01*
X106490231Y-121620182D01*
X106383953Y-121616737D01*
X106292710Y-121605115D01*
X106213322Y-121584209D01*
X106142608Y-121552912D01*
X106077388Y-121510115D01*
X106014483Y-121454711D01*
X106014133Y-121454365D01*
X105953060Y-121383299D01*
X105903445Y-121301608D01*
X105864541Y-121207517D01*
X105835600Y-121099251D01*
X105817215Y-120986269D01*
X105810798Y-120910503D01*
X105807987Y-120822031D01*
X105808716Y-120727336D01*
X105812920Y-120632903D01*
X105820533Y-120545215D01*
X105821785Y-120534518D01*
X105841965Y-120404390D01*
X105871289Y-120266869D01*
X105907832Y-120130660D01*
X105919518Y-120092608D01*
X105953617Y-119984923D01*
X106410718Y-119984923D01*
X106363515Y-120085057D01*
X106312658Y-120202474D01*
X106271379Y-120317633D01*
X106239526Y-120429355D01*
X106216949Y-120536460D01*
X106203494Y-120637770D01*
X106199012Y-120732105D01*
X106203349Y-120818286D01*
X106216356Y-120895132D01*
X106237881Y-120961465D01*
X106267771Y-121016105D01*
X106305876Y-121057873D01*
X106352044Y-121085590D01*
X106406124Y-121098075D01*
X106467964Y-121094149D01*
X106492370Y-121088416D01*
X106522811Y-121077770D01*
X106549381Y-121062807D01*
X106572911Y-121041781D01*
X106594233Y-121012945D01*
X106614177Y-120974554D01*
X106633576Y-120924861D01*
X106653260Y-120862122D01*
X106674060Y-120784589D01*
X106696808Y-120690517D01*
X106710769Y-120629692D01*
X106726473Y-120563432D01*
X106743263Y-120497908D01*
X106759892Y-120437632D01*
X106775110Y-120387118D01*
X106787668Y-120350880D01*
X106788459Y-120348885D01*
X106838360Y-120244718D01*
X106897771Y-120157527D01*
X106967108Y-120087051D01*
X107046781Y-120033027D01*
X107137205Y-119995196D01*
X107238792Y-119973296D01*
X107351955Y-119967065D01*
X107389897Y-119968297D01*
X107503670Y-119982477D01*
X107606388Y-120012601D01*
X107697763Y-120058485D01*
X107777511Y-120119944D01*
X107845344Y-120196792D01*
X107900976Y-120288846D01*
X107907534Y-120302423D01*
X107940224Y-120381252D01*
X107964591Y-120462434D01*
X107981178Y-120549443D01*
X107990527Y-120645757D01*
X107993181Y-120754851D01*
X107991380Y-120839730D01*
G36*
X105845462Y-117259307D02*
G01*
X105845462Y-116741657D01*
X106609713Y-116739155D01*
X107373964Y-116736654D01*
X106246000Y-116259354D01*
X106246322Y-115916038D01*
X106321873Y-115883686D01*
X106345355Y-115873670D01*
X106384838Y-115856874D01*
X106438333Y-115834143D01*
X106503850Y-115806322D01*
X106579401Y-115774255D01*
X106662996Y-115738786D01*
X106752647Y-115700759D01*
X106846363Y-115661020D01*
X106885706Y-115644340D01*
X107373988Y-115437346D01*
X105845462Y-115432342D01*
X105845462Y-114914692D01*
X107955863Y-114914692D01*
X107953297Y-115262860D01*
X107950731Y-115611029D01*
X107391865Y-115846506D01*
X107293565Y-115888074D01*
X107200990Y-115927513D01*
X107115649Y-115964161D01*
X107039049Y-115997357D01*
X106972698Y-116026438D01*
X106918103Y-116050743D01*
X106876773Y-116069612D01*
X106850214Y-116082381D01*
X106839935Y-116088391D01*
X106839903Y-116088682D01*
X106849897Y-116093584D01*
X106876328Y-116105408D01*
X106917632Y-116123481D01*
X106972244Y-116147130D01*
X107038599Y-116175682D01*
X107115133Y-116208464D01*
X107200281Y-116244802D01*
X107292478Y-116284024D01*
X107390161Y-116325457D01*
X107398770Y-116329103D01*
X107950731Y-116562824D01*
X107953297Y-116911066D01*
X107955863Y-117259307D01*
X105845462Y-117259307D01*
G37*
X105845462Y-117259307D02*
X105845462Y-116741657D01*
X106609713Y-116739155D01*
X107373964Y-116736654D01*
X106246000Y-116259354D01*
X106246322Y-115916038D01*
X106321873Y-115883686D01*
X106345355Y-115873670D01*
X106384838Y-115856874D01*
X106438333Y-115834143D01*
X106503850Y-115806322D01*
X106579401Y-115774255D01*
X106662996Y-115738786D01*
X106752647Y-115700759D01*
X106846363Y-115661020D01*
X106885706Y-115644340D01*
X107373988Y-115437346D01*
X105845462Y-115432342D01*
X105845462Y-114914692D01*
X107955863Y-114914692D01*
X107953297Y-115262860D01*
X107950731Y-115611029D01*
X107391865Y-115846506D01*
X107293565Y-115888074D01*
X107200990Y-115927513D01*
X107115649Y-115964161D01*
X107039049Y-115997357D01*
X106972698Y-116026438D01*
X106918103Y-116050743D01*
X106876773Y-116069612D01*
X106850214Y-116082381D01*
X106839935Y-116088391D01*
X106839903Y-116088682D01*
X106849897Y-116093584D01*
X106876328Y-116105408D01*
X106917632Y-116123481D01*
X106972244Y-116147130D01*
X107038599Y-116175682D01*
X107115133Y-116208464D01*
X107200281Y-116244802D01*
X107292478Y-116284024D01*
X107390161Y-116325457D01*
X107398770Y-116329103D01*
X107950731Y-116562824D01*
X107953297Y-116911066D01*
X107955863Y-117259307D01*
X105845462Y-117259307D01*
G36*
X107955399Y-118405423D02*
G01*
X107954670Y-118518359D01*
X107953307Y-118615471D01*
X107951189Y-118698614D01*
X107948197Y-118769643D01*
X107944209Y-118830414D01*
X107939106Y-118882781D01*
X107932765Y-118928600D01*
X107925068Y-118969725D01*
X107915892Y-119008013D01*
X107905641Y-119043629D01*
X107866016Y-119145055D01*
X107814503Y-119230976D01*
X107751107Y-119301388D01*
X107675831Y-119356289D01*
X107588678Y-119395676D01*
X107489652Y-119419546D01*
X107378757Y-119427898D01*
X107372316Y-119427907D01*
X107265566Y-119420406D01*
X107170744Y-119398046D01*
X107086485Y-119360290D01*
X107011425Y-119306596D01*
X106974002Y-119270537D01*
X106944927Y-119236134D01*
X106915251Y-119194993D01*
X106887544Y-119151436D01*
X106864377Y-119109783D01*
X106848320Y-119074356D01*
X106841942Y-119049475D01*
X106841923Y-119048494D01*
X106838275Y-119036999D01*
X106830019Y-119040025D01*
X106821190Y-119054570D01*
X106817484Y-119066688D01*
X106798942Y-119113913D01*
X106764157Y-119165594D01*
X106715238Y-119219479D01*
X106654296Y-119273319D01*
X106583439Y-119324862D01*
X106563500Y-119337705D01*
X106542236Y-119349772D01*
X106505794Y-119369025D01*
X106456635Y-119394247D01*
X106397219Y-119424219D01*
X106330008Y-119457723D01*
X106257462Y-119493541D01*
X106182042Y-119530455D01*
X106106208Y-119567246D01*
X106032421Y-119602698D01*
X105963143Y-119635590D01*
X105935827Y-119648422D01*
X105845462Y-119690713D01*
X105845462Y-119114418D01*
X106150750Y-118964658D01*
X106225148Y-118927752D01*
X106296297Y-118891684D01*
X106361679Y-118857790D01*
X106418771Y-118827405D01*
X106465054Y-118801866D01*
X106498007Y-118782507D01*
X106511795Y-118773347D01*
X106560852Y-118730813D01*
X106597476Y-118684119D01*
X106622969Y-118630087D01*
X106638631Y-118565539D01*
X106645763Y-118487298D01*
X106646539Y-118444216D01*
X106646539Y-118343692D01*
X105845462Y-118343692D01*
X105845462Y-117796615D01*
X107564846Y-117796615D01*
X107564846Y-118343692D01*
X107015591Y-118343692D01*
X107020404Y-118517096D01*
X107022975Y-118584459D01*
X107026583Y-118642825D01*
X107030970Y-118689083D01*
X107035878Y-118720119D01*
X107037861Y-118727378D01*
X107063746Y-118777222D01*
X107102735Y-118820958D01*
X107149200Y-118852653D01*
X107161969Y-118858250D01*
X107202456Y-118869422D01*
X107253854Y-118875084D01*
X107296883Y-118876115D01*
X107341952Y-118875409D01*
X107374389Y-118872370D01*
X107401077Y-118865613D01*
X107428900Y-118853756D01*
X107442856Y-118846781D01*
X107479533Y-118824008D01*
X107508513Y-118795881D01*
X107530563Y-118760117D01*
X107546452Y-118714432D01*
X107556948Y-118656543D01*
X107562817Y-118584167D01*
X107564828Y-118495022D01*
X107564846Y-118484012D01*
X107564846Y-118343692D01*
X107564846Y-117796615D01*
X107955616Y-117796615D01*
X107955616Y-118274807D01*
X107955399Y-118405423D01*
G37*
X107955399Y-118405423D02*
X107954670Y-118518359D01*
X107953307Y-118615471D01*
X107951189Y-118698614D01*
X107948197Y-118769643D01*
X107944209Y-118830414D01*
X107939106Y-118882781D01*
X107932765Y-118928600D01*
X107925068Y-118969725D01*
X107915892Y-119008013D01*
X107905641Y-119043629D01*
X107866016Y-119145055D01*
X107814503Y-119230976D01*
X107751107Y-119301388D01*
X107675831Y-119356289D01*
X107588678Y-119395676D01*
X107489652Y-119419546D01*
X107378757Y-119427898D01*
X107372316Y-119427907D01*
X107265566Y-119420406D01*
X107170744Y-119398046D01*
X107086485Y-119360290D01*
X107011425Y-119306596D01*
X106974002Y-119270537D01*
X106944927Y-119236134D01*
X106915251Y-119194993D01*
X106887544Y-119151436D01*
X106864377Y-119109783D01*
X106848320Y-119074356D01*
X106841942Y-119049475D01*
X106841923Y-119048494D01*
X106838275Y-119036999D01*
X106830019Y-119040025D01*
X106821190Y-119054570D01*
X106817484Y-119066688D01*
X106798942Y-119113913D01*
X106764157Y-119165594D01*
X106715238Y-119219479D01*
X106654296Y-119273319D01*
X106583439Y-119324862D01*
X106563500Y-119337705D01*
X106542236Y-119349772D01*
X106505794Y-119369025D01*
X106456635Y-119394247D01*
X106397219Y-119424219D01*
X106330008Y-119457723D01*
X106257462Y-119493541D01*
X106182042Y-119530455D01*
X106106208Y-119567246D01*
X106032421Y-119602698D01*
X105963143Y-119635590D01*
X105935827Y-119648422D01*
X105845462Y-119690713D01*
X105845462Y-119114418D01*
X106150750Y-118964658D01*
X106225148Y-118927752D01*
X106296297Y-118891684D01*
X106361679Y-118857790D01*
X106418771Y-118827405D01*
X106465054Y-118801866D01*
X106498007Y-118782507D01*
X106511795Y-118773347D01*
X106560852Y-118730813D01*
X106597476Y-118684119D01*
X106622969Y-118630087D01*
X106638631Y-118565539D01*
X106645763Y-118487298D01*
X106646539Y-118444216D01*
X106646539Y-118343692D01*
X105845462Y-118343692D01*
X105845462Y-117796615D01*
X107564846Y-117796615D01*
X107564846Y-118343692D01*
X107015591Y-118343692D01*
X107020404Y-118517096D01*
X107022975Y-118584459D01*
X107026583Y-118642825D01*
X107030970Y-118689083D01*
X107035878Y-118720119D01*
X107037861Y-118727378D01*
X107063746Y-118777222D01*
X107102735Y-118820958D01*
X107149200Y-118852653D01*
X107161969Y-118858250D01*
X107202456Y-118869422D01*
X107253854Y-118875084D01*
X107296883Y-118876115D01*
X107341952Y-118875409D01*
X107374389Y-118872370D01*
X107401077Y-118865613D01*
X107428900Y-118853756D01*
X107442856Y-118846781D01*
X107479533Y-118824008D01*
X107508513Y-118795881D01*
X107530563Y-118760117D01*
X107546452Y-118714432D01*
X107556948Y-118656543D01*
X107562817Y-118584167D01*
X107564828Y-118495022D01*
X107564846Y-118484012D01*
X107564846Y-118343692D01*
X107564846Y-117796615D01*
X107955616Y-117796615D01*
X107955616Y-118274807D01*
X107955399Y-118405423D01*
G36*
X111133646Y-115993330D02*
G01*
X111130219Y-116072642D01*
X111124824Y-116143960D01*
X111117459Y-116203932D01*
X111108118Y-116249205D01*
X111103677Y-116262846D01*
X111097902Y-116283724D01*
X111090836Y-116317629D01*
X111083764Y-116358220D01*
X111081900Y-116370307D01*
X111073072Y-116416381D01*
X111061105Y-116462072D01*
X111048359Y-116498567D01*
X111046377Y-116503023D01*
X111030793Y-116542037D01*
X111017861Y-116583817D01*
X111013947Y-116600716D01*
X111005277Y-116630058D01*
X110989492Y-116670105D01*
X110969185Y-116714603D01*
X110955540Y-116741538D01*
X110929300Y-116791476D01*
X110900930Y-116846002D01*
X110875094Y-116896135D01*
X110865932Y-116914092D01*
X110840903Y-116958030D01*
X110808185Y-117008177D01*
X110773271Y-117056315D01*
X110758182Y-117075284D01*
X110722448Y-117118607D01*
X110680586Y-117169415D01*
X110638870Y-117220092D01*
X110615559Y-117248436D01*
X110575961Y-117292454D01*
X110524687Y-117343384D01*
X110466272Y-117397226D01*
X110405251Y-117449986D01*
X110346157Y-117497663D01*
X110293526Y-117536263D01*
X110275808Y-117547944D01*
X110248396Y-117566412D01*
X110218024Y-117588434D01*
X110212308Y-117592784D01*
X110189280Y-117608267D01*
X110154104Y-117629288D01*
X110112147Y-117652724D01*
X110080751Y-117669341D01*
X110040645Y-117690267D01*
X110006633Y-117708448D01*
X109982698Y-117721726D01*
X109973289Y-117727517D01*
X109958056Y-117735281D01*
X109932508Y-117744873D01*
X109924116Y-117747585D01*
X109894111Y-117758330D01*
X109869309Y-117769569D01*
X109865500Y-117771747D01*
X109839828Y-117784166D01*
X109799373Y-117799785D01*
X109748365Y-117817313D01*
X109691038Y-117835455D01*
X109631621Y-117852921D01*
X109574347Y-117868417D01*
X109523447Y-117880651D01*
X109484500Y-117888127D01*
X109440767Y-117893729D01*
X109384391Y-117899375D01*
X109319067Y-117904847D01*
X109248487Y-117909928D01*
X109176347Y-117914402D01*
X109106339Y-117918053D01*
X109042157Y-117920662D01*
X108987496Y-117922014D01*
X108946048Y-117921892D01*
X108927110Y-117920838D01*
X108858693Y-117912893D01*
X108793512Y-117903526D01*
X108736336Y-117893521D01*
X108691934Y-117883666D01*
X108678539Y-117879854D01*
X108640230Y-117869746D01*
X108597900Y-117861278D01*
X108585731Y-117859430D01*
X108556375Y-117853080D01*
X108521065Y-117842087D01*
X108485118Y-117828563D01*
X108453849Y-117814619D01*
X108432577Y-117802367D01*
X108426588Y-117796217D01*
X108416715Y-117790449D01*
X108392254Y-117780229D01*
X108357200Y-117767145D01*
X108326454Y-117756437D01*
X108229154Y-117723500D01*
X108229154Y-117554904D01*
X108229342Y-117499967D01*
X108229863Y-117452520D01*
X108230653Y-117415711D01*
X108231649Y-117392690D01*
X108232581Y-117386307D01*
X108251520Y-117390752D01*
X108279557Y-117401829D01*
X108309016Y-117416157D01*
X108331731Y-117429994D01*
X108358357Y-117446485D01*
X108387073Y-117459873D01*
X108411954Y-117467860D01*
X108427071Y-117468146D01*
X108428126Y-117467387D01*
X108438996Y-117468137D01*
X108463049Y-117474524D01*
X108495361Y-117484840D01*
X108531009Y-117497377D01*
X108565071Y-117510425D01*
X108592624Y-117522277D01*
X108605270Y-117528866D01*
X108625906Y-117536874D01*
X108657397Y-117544392D01*
X108678342Y-117547795D01*
X108717260Y-117554543D01*
X108755176Y-117563664D01*
X108769935Y-117568264D01*
X108804677Y-117576791D01*
X108844093Y-117581417D01*
X108854155Y-117581692D01*
X108889667Y-117584029D01*
X108922547Y-117589873D01*
X108930778Y-117592311D01*
X108950319Y-117595104D01*
X108985912Y-117596349D01*
X109034141Y-117596193D01*
X109091594Y-117594789D01*
X109154856Y-117592285D01*
X109220515Y-117588831D01*
X109285155Y-117584578D01*
X109345365Y-117579675D01*
X109397729Y-117574271D01*
X109425885Y-117570571D01*
X109491170Y-117557030D01*
X109568601Y-117534647D01*
X109653919Y-117505194D01*
X109742866Y-117470441D01*
X109831182Y-117432157D01*
X109914608Y-117392114D01*
X109988884Y-117352080D01*
X110049752Y-117313828D01*
X110058396Y-117307676D01*
X110155993Y-117234320D01*
X110238073Y-117167273D01*
X110306832Y-117104599D01*
X110364467Y-117044361D01*
X110387178Y-117017753D01*
X110421580Y-116976139D01*
X110455676Y-116935278D01*
X110485320Y-116900118D01*
X110504855Y-116877334D01*
X110532265Y-116840601D01*
X110566190Y-116785923D01*
X110606404Y-116713690D01*
X110652682Y-116624297D01*
X110672146Y-116585230D01*
X110689285Y-116545896D01*
X110704111Y-116504062D01*
X110710065Y-116482654D01*
X110721009Y-116444262D01*
X110734885Y-116406144D01*
X110739892Y-116394730D01*
X110749855Y-116367394D01*
X110760797Y-116327599D01*
X110770910Y-116282227D01*
X110774531Y-116262846D01*
X110782939Y-116214782D01*
X110791337Y-116166892D01*
X110798311Y-116127232D01*
X110800239Y-116116307D01*
X110807615Y-116059723D01*
X110812693Y-115990267D01*
X110815333Y-115914486D01*
X110815391Y-115838927D01*
X110812728Y-115770136D01*
X110808688Y-115725538D01*
X110799778Y-115659530D01*
X110790237Y-115602728D01*
X110778462Y-115547094D01*
X110762848Y-115484586D01*
X110754122Y-115452000D01*
X110742181Y-115407737D01*
X110730721Y-115364755D01*
X110721827Y-115330896D01*
X110720308Y-115325000D01*
X110706517Y-115282422D01*
X110684737Y-115228223D01*
X110657357Y-115167331D01*
X110626768Y-115104678D01*
X110595361Y-115045194D01*
X110565526Y-114993809D01*
X110543899Y-114961159D01*
X110471961Y-114864452D01*
X110406763Y-114782291D01*
X110345884Y-114711965D01*
X110286903Y-114650765D01*
X110227398Y-114595978D01*
X110189024Y-114563918D01*
X110141381Y-114526701D01*
X110092815Y-114490840D01*
X110048005Y-114459656D01*
X110011630Y-114436468D01*
X110000791Y-114430337D01*
X109963455Y-114409507D01*
X109928661Y-114388600D01*
X109903658Y-114371979D01*
X109902787Y-114371333D01*
X109881611Y-114356552D01*
X109867393Y-114348546D01*
X109865537Y-114348077D01*
X109854295Y-114344213D01*
X109830320Y-114334020D01*
X109798508Y-114319589D01*
X109794058Y-114317513D01*
X109739976Y-114292309D01*
X109700087Y-114274086D01*
X109670930Y-114261447D01*
X109649050Y-114252993D01*
X109630986Y-114247327D01*
X109613281Y-114243050D01*
X109606112Y-114241536D01*
X109536415Y-114226789D01*
X109479858Y-114214111D01*
X109438163Y-114203912D01*
X109413053Y-114196603D01*
X109407063Y-114194046D01*
X109390039Y-114189495D01*
X109356886Y-114185626D01*
X109311003Y-114182534D01*
X109255789Y-114180317D01*
X109194646Y-114179069D01*
X109130973Y-114178887D01*
X109068169Y-114179867D01*
X109009636Y-114182104D01*
X109000923Y-114182583D01*
X108931332Y-114187044D01*
X108875526Y-114192013D01*
X108827754Y-114198438D01*
X108782267Y-114207268D01*
X108733317Y-114219450D01*
X108675154Y-114235934D01*
X108672224Y-114236793D01*
X108633354Y-114247588D01*
X108600012Y-114255741D01*
X108577899Y-114259892D01*
X108574263Y-114260154D01*
X108551563Y-114265575D01*
X108536616Y-114273391D01*
X108517903Y-114282957D01*
X108487026Y-114295525D01*
X108450524Y-114308442D01*
X108448962Y-114308954D01*
X108403516Y-114325699D01*
X108355227Y-114346416D01*
X108321962Y-114362774D01*
X108261138Y-114395561D01*
X108214986Y-114420754D01*
X108180893Y-114439871D01*
X108156247Y-114454433D01*
X108138439Y-114465959D01*
X108124855Y-114475968D01*
X108118501Y-114481157D01*
X108096335Y-114496623D01*
X108078029Y-114504223D01*
X108076097Y-114504384D01*
X108061062Y-114510764D01*
X108034891Y-114528372D01*
X108000548Y-114554908D01*
X107960995Y-114588075D01*
X107919198Y-114625575D01*
X107915976Y-114628572D01*
X107892993Y-114648058D01*
X107875866Y-114655540D01*
X107857512Y-114653652D01*
X107852476Y-114652202D01*
X107812533Y-114642459D01*
X107758727Y-114632830D01*
X107696717Y-114624182D01*
X107632165Y-114617380D01*
X107616135Y-114616057D01*
X107579244Y-114612392D01*
X107551231Y-114608074D01*
X107536637Y-114603861D01*
X107535539Y-114602587D01*
X107541955Y-114593111D01*
X107559385Y-114572809D01*
X107585101Y-114544748D01*
X107613695Y-114514752D01*
X107644137Y-114482293D01*
X107668151Y-114454639D01*
X107683205Y-114434854D01*
X107686942Y-114426197D01*
X107691989Y-114417092D01*
X107709554Y-114398485D01*
X107736763Y-114372912D01*
X107770743Y-114342908D01*
X107808620Y-114311005D01*
X107847519Y-114279740D01*
X107884567Y-114251646D01*
X107886300Y-114250384D01*
X107917733Y-114227520D01*
X107947452Y-114205860D01*
X107961583Y-114195539D01*
X107996078Y-114172918D01*
X108043944Y-114145069D01*
X108100549Y-114114349D01*
X108161261Y-114083118D01*
X108221445Y-114053736D01*
X108276469Y-114028561D01*
X108321700Y-114009953D01*
X108335934Y-114004903D01*
X108374765Y-113991045D01*
X108411307Y-113976304D01*
X108434163Y-113965615D01*
X108460806Y-113953784D01*
X108482942Y-113947740D01*
X108485969Y-113947538D01*
X108503163Y-113944851D01*
X108535248Y-113937457D01*
X108578432Y-113926360D01*
X108628919Y-113912563D01*
X108682916Y-113897068D01*
X108727385Y-113883727D01*
X108766935Y-113875178D01*
X108822396Y-113868222D01*
X108890399Y-113862865D01*
X108967578Y-113859112D01*
X109050565Y-113856967D01*
X109135992Y-113856436D01*
X109220492Y-113857522D01*
X109300698Y-113860232D01*
X109373241Y-113864569D01*
X109434754Y-113870538D01*
X109481870Y-113878145D01*
X109499154Y-113882620D01*
X109530653Y-113891580D01*
X109572734Y-113902292D01*
X109616836Y-113912586D01*
X109621270Y-113913562D01*
X109692428Y-113930315D01*
X109750844Y-113946547D01*
X109794160Y-113961550D01*
X109816654Y-113972372D01*
X109839537Y-113983676D01*
X109868507Y-113994707D01*
X109870385Y-113995313D01*
X109899540Y-114006322D01*
X109935102Y-114022045D01*
X109952637Y-114030594D01*
X109981178Y-114044191D01*
X110003248Y-114053094D01*
X110011252Y-114055094D01*
X110024341Y-114060829D01*
X110046494Y-114075433D01*
X110062705Y-114087706D01*
X110093282Y-114109369D01*
X110132544Y-114133678D01*
X110168038Y-114153273D01*
X110196197Y-114169983D01*
X110235724Y-114196562D01*
X110282961Y-114230390D01*
X110334249Y-114268848D01*
X110385931Y-114309315D01*
X110386026Y-114309391D01*
X110442950Y-114355564D01*
X110488302Y-114394073D01*
X110526157Y-114428957D01*
X110560590Y-114464250D01*
X110595676Y-114503992D01*
X110635491Y-114552218D01*
X110652574Y-114573441D01*
X110689943Y-114620392D01*
X110724213Y-114664055D01*
X110753020Y-114701371D01*
X110774000Y-114729282D01*
X110784172Y-114743730D01*
X110802687Y-114771195D01*
X110824664Y-114801609D01*
X110828916Y-114807230D01*
X110846930Y-114833540D01*
X110868904Y-114869480D01*
X110889812Y-114906779D01*
X110908028Y-114941028D01*
X110923613Y-114970313D01*
X110933454Y-114988785D01*
X110934005Y-114989818D01*
X110959150Y-115039863D01*
X110981886Y-115092106D01*
X111003470Y-115150126D01*
X111025162Y-115217502D01*
X111048218Y-115297814D01*
X111067232Y-115368961D01*
X111079101Y-115413502D01*
X111090295Y-115453933D01*
X111099219Y-115484567D01*
X111102849Y-115495961D01*
X111113093Y-115537352D01*
X111121395Y-115594217D01*
X111127751Y-115663205D01*
X111132158Y-115740963D01*
X111134612Y-115824138D01*
X111135109Y-115909378D01*
X111133646Y-115993330D01*
G37*
X111133646Y-115993330D02*
X111130219Y-116072642D01*
X111124824Y-116143960D01*
X111117459Y-116203932D01*
X111108118Y-116249205D01*
X111103677Y-116262846D01*
X111097902Y-116283724D01*
X111090836Y-116317629D01*
X111083764Y-116358220D01*
X111081900Y-116370307D01*
X111073072Y-116416381D01*
X111061105Y-116462072D01*
X111048359Y-116498567D01*
X111046377Y-116503023D01*
X111030793Y-116542037D01*
X111017861Y-116583817D01*
X111013947Y-116600716D01*
X111005277Y-116630058D01*
X110989492Y-116670105D01*
X110969185Y-116714603D01*
X110955540Y-116741538D01*
X110929300Y-116791476D01*
X110900930Y-116846002D01*
X110875094Y-116896135D01*
X110865932Y-116914092D01*
X110840903Y-116958030D01*
X110808185Y-117008177D01*
X110773271Y-117056315D01*
X110758182Y-117075284D01*
X110722448Y-117118607D01*
X110680586Y-117169415D01*
X110638870Y-117220092D01*
X110615559Y-117248436D01*
X110575961Y-117292454D01*
X110524687Y-117343384D01*
X110466272Y-117397226D01*
X110405251Y-117449986D01*
X110346157Y-117497663D01*
X110293526Y-117536263D01*
X110275808Y-117547944D01*
X110248396Y-117566412D01*
X110218024Y-117588434D01*
X110212308Y-117592784D01*
X110189280Y-117608267D01*
X110154104Y-117629288D01*
X110112147Y-117652724D01*
X110080751Y-117669341D01*
X110040645Y-117690267D01*
X110006633Y-117708448D01*
X109982698Y-117721726D01*
X109973289Y-117727517D01*
X109958056Y-117735281D01*
X109932508Y-117744873D01*
X109924116Y-117747585D01*
X109894111Y-117758330D01*
X109869309Y-117769569D01*
X109865500Y-117771747D01*
X109839828Y-117784166D01*
X109799373Y-117799785D01*
X109748365Y-117817313D01*
X109691038Y-117835455D01*
X109631621Y-117852921D01*
X109574347Y-117868417D01*
X109523447Y-117880651D01*
X109484500Y-117888127D01*
X109440767Y-117893729D01*
X109384391Y-117899375D01*
X109319067Y-117904847D01*
X109248487Y-117909928D01*
X109176347Y-117914402D01*
X109106339Y-117918053D01*
X109042157Y-117920662D01*
X108987496Y-117922014D01*
X108946048Y-117921892D01*
X108927110Y-117920838D01*
X108858693Y-117912893D01*
X108793512Y-117903526D01*
X108736336Y-117893521D01*
X108691934Y-117883666D01*
X108678539Y-117879854D01*
X108640230Y-117869746D01*
X108597900Y-117861278D01*
X108585731Y-117859430D01*
X108556375Y-117853080D01*
X108521065Y-117842087D01*
X108485118Y-117828563D01*
X108453849Y-117814619D01*
X108432577Y-117802367D01*
X108426588Y-117796217D01*
X108416715Y-117790449D01*
X108392254Y-117780229D01*
X108357200Y-117767145D01*
X108326454Y-117756437D01*
X108229154Y-117723500D01*
X108229154Y-117554904D01*
X108229342Y-117499967D01*
X108229863Y-117452520D01*
X108230653Y-117415711D01*
X108231649Y-117392690D01*
X108232581Y-117386307D01*
X108251520Y-117390752D01*
X108279557Y-117401829D01*
X108309016Y-117416157D01*
X108331731Y-117429994D01*
X108358357Y-117446485D01*
X108387073Y-117459873D01*
X108411954Y-117467860D01*
X108427071Y-117468146D01*
X108428126Y-117467387D01*
X108438996Y-117468137D01*
X108463049Y-117474524D01*
X108495361Y-117484840D01*
X108531009Y-117497377D01*
X108565071Y-117510425D01*
X108592624Y-117522277D01*
X108605270Y-117528866D01*
X108625906Y-117536874D01*
X108657397Y-117544392D01*
X108678342Y-117547795D01*
X108717260Y-117554543D01*
X108755176Y-117563664D01*
X108769935Y-117568264D01*
X108804677Y-117576791D01*
X108844093Y-117581417D01*
X108854155Y-117581692D01*
X108889667Y-117584029D01*
X108922547Y-117589873D01*
X108930778Y-117592311D01*
X108950319Y-117595104D01*
X108985912Y-117596349D01*
X109034141Y-117596193D01*
X109091594Y-117594789D01*
X109154856Y-117592285D01*
X109220515Y-117588831D01*
X109285155Y-117584578D01*
X109345365Y-117579675D01*
X109397729Y-117574271D01*
X109425885Y-117570571D01*
X109491170Y-117557030D01*
X109568601Y-117534647D01*
X109653919Y-117505194D01*
X109742866Y-117470441D01*
X109831182Y-117432157D01*
X109914608Y-117392114D01*
X109988884Y-117352080D01*
X110049752Y-117313828D01*
X110058396Y-117307676D01*
X110155993Y-117234320D01*
X110238073Y-117167273D01*
X110306832Y-117104599D01*
X110364467Y-117044361D01*
X110387178Y-117017753D01*
X110421580Y-116976139D01*
X110455676Y-116935278D01*
X110485320Y-116900118D01*
X110504855Y-116877334D01*
X110532265Y-116840601D01*
X110566190Y-116785923D01*
X110606404Y-116713690D01*
X110652682Y-116624297D01*
X110672146Y-116585230D01*
X110689285Y-116545896D01*
X110704111Y-116504062D01*
X110710065Y-116482654D01*
X110721009Y-116444262D01*
X110734885Y-116406144D01*
X110739892Y-116394730D01*
X110749855Y-116367394D01*
X110760797Y-116327599D01*
X110770910Y-116282227D01*
X110774531Y-116262846D01*
X110782939Y-116214782D01*
X110791337Y-116166892D01*
X110798311Y-116127232D01*
X110800239Y-116116307D01*
X110807615Y-116059723D01*
X110812693Y-115990267D01*
X110815333Y-115914486D01*
X110815391Y-115838927D01*
X110812728Y-115770136D01*
X110808688Y-115725538D01*
X110799778Y-115659530D01*
X110790237Y-115602728D01*
X110778462Y-115547094D01*
X110762848Y-115484586D01*
X110754122Y-115452000D01*
X110742181Y-115407737D01*
X110730721Y-115364755D01*
X110721827Y-115330896D01*
X110720308Y-115325000D01*
X110706517Y-115282422D01*
X110684737Y-115228223D01*
X110657357Y-115167331D01*
X110626768Y-115104678D01*
X110595361Y-115045194D01*
X110565526Y-114993809D01*
X110543899Y-114961159D01*
X110471961Y-114864452D01*
X110406763Y-114782291D01*
X110345884Y-114711965D01*
X110286903Y-114650765D01*
X110227398Y-114595978D01*
X110189024Y-114563918D01*
X110141381Y-114526701D01*
X110092815Y-114490840D01*
X110048005Y-114459656D01*
X110011630Y-114436468D01*
X110000791Y-114430337D01*
X109963455Y-114409507D01*
X109928661Y-114388600D01*
X109903658Y-114371979D01*
X109902787Y-114371333D01*
X109881611Y-114356552D01*
X109867393Y-114348546D01*
X109865537Y-114348077D01*
X109854295Y-114344213D01*
X109830320Y-114334020D01*
X109798508Y-114319589D01*
X109794058Y-114317513D01*
X109739976Y-114292309D01*
X109700087Y-114274086D01*
X109670930Y-114261447D01*
X109649050Y-114252993D01*
X109630986Y-114247327D01*
X109613281Y-114243050D01*
X109606112Y-114241536D01*
X109536415Y-114226789D01*
X109479858Y-114214111D01*
X109438163Y-114203912D01*
X109413053Y-114196603D01*
X109407063Y-114194046D01*
X109390039Y-114189495D01*
X109356886Y-114185626D01*
X109311003Y-114182534D01*
X109255789Y-114180317D01*
X109194646Y-114179069D01*
X109130973Y-114178887D01*
X109068169Y-114179867D01*
X109009636Y-114182104D01*
X109000923Y-114182583D01*
X108931332Y-114187044D01*
X108875526Y-114192013D01*
X108827754Y-114198438D01*
X108782267Y-114207268D01*
X108733317Y-114219450D01*
X108675154Y-114235934D01*
X108672224Y-114236793D01*
X108633354Y-114247588D01*
X108600012Y-114255741D01*
X108577899Y-114259892D01*
X108574263Y-114260154D01*
X108551563Y-114265575D01*
X108536616Y-114273391D01*
X108517903Y-114282957D01*
X108487026Y-114295525D01*
X108450524Y-114308442D01*
X108448962Y-114308954D01*
X108403516Y-114325699D01*
X108355227Y-114346416D01*
X108321962Y-114362774D01*
X108261138Y-114395561D01*
X108214986Y-114420754D01*
X108180893Y-114439871D01*
X108156247Y-114454433D01*
X108138439Y-114465959D01*
X108124855Y-114475968D01*
X108118501Y-114481157D01*
X108096335Y-114496623D01*
X108078029Y-114504223D01*
X108076097Y-114504384D01*
X108061062Y-114510764D01*
X108034891Y-114528372D01*
X108000548Y-114554908D01*
X107960995Y-114588075D01*
X107919198Y-114625575D01*
X107915976Y-114628572D01*
X107892993Y-114648058D01*
X107875866Y-114655540D01*
X107857512Y-114653652D01*
X107852476Y-114652202D01*
X107812533Y-114642459D01*
X107758727Y-114632830D01*
X107696717Y-114624182D01*
X107632165Y-114617380D01*
X107616135Y-114616057D01*
X107579244Y-114612392D01*
X107551231Y-114608074D01*
X107536637Y-114603861D01*
X107535539Y-114602587D01*
X107541955Y-114593111D01*
X107559385Y-114572809D01*
X107585101Y-114544748D01*
X107613695Y-114514752D01*
X107644137Y-114482293D01*
X107668151Y-114454639D01*
X107683205Y-114434854D01*
X107686942Y-114426197D01*
X107691989Y-114417092D01*
X107709554Y-114398485D01*
X107736763Y-114372912D01*
X107770743Y-114342908D01*
X107808620Y-114311005D01*
X107847519Y-114279740D01*
X107884567Y-114251646D01*
X107886300Y-114250384D01*
X107917733Y-114227520D01*
X107947452Y-114205860D01*
X107961583Y-114195539D01*
X107996078Y-114172918D01*
X108043944Y-114145069D01*
X108100549Y-114114349D01*
X108161261Y-114083118D01*
X108221445Y-114053736D01*
X108276469Y-114028561D01*
X108321700Y-114009953D01*
X108335934Y-114004903D01*
X108374765Y-113991045D01*
X108411307Y-113976304D01*
X108434163Y-113965615D01*
X108460806Y-113953784D01*
X108482942Y-113947740D01*
X108485969Y-113947538D01*
X108503163Y-113944851D01*
X108535248Y-113937457D01*
X108578432Y-113926360D01*
X108628919Y-113912563D01*
X108682916Y-113897068D01*
X108727385Y-113883727D01*
X108766935Y-113875178D01*
X108822396Y-113868222D01*
X108890399Y-113862865D01*
X108967578Y-113859112D01*
X109050565Y-113856967D01*
X109135992Y-113856436D01*
X109220492Y-113857522D01*
X109300698Y-113860232D01*
X109373241Y-113864569D01*
X109434754Y-113870538D01*
X109481870Y-113878145D01*
X109499154Y-113882620D01*
X109530653Y-113891580D01*
X109572734Y-113902292D01*
X109616836Y-113912586D01*
X109621270Y-113913562D01*
X109692428Y-113930315D01*
X109750844Y-113946547D01*
X109794160Y-113961550D01*
X109816654Y-113972372D01*
X109839537Y-113983676D01*
X109868507Y-113994707D01*
X109870385Y-113995313D01*
X109899540Y-114006322D01*
X109935102Y-114022045D01*
X109952637Y-114030594D01*
X109981178Y-114044191D01*
X110003248Y-114053094D01*
X110011252Y-114055094D01*
X110024341Y-114060829D01*
X110046494Y-114075433D01*
X110062705Y-114087706D01*
X110093282Y-114109369D01*
X110132544Y-114133678D01*
X110168038Y-114153273D01*
X110196197Y-114169983D01*
X110235724Y-114196562D01*
X110282961Y-114230390D01*
X110334249Y-114268848D01*
X110385931Y-114309315D01*
X110386026Y-114309391D01*
X110442950Y-114355564D01*
X110488302Y-114394073D01*
X110526157Y-114428957D01*
X110560590Y-114464250D01*
X110595676Y-114503992D01*
X110635491Y-114552218D01*
X110652574Y-114573441D01*
X110689943Y-114620392D01*
X110724213Y-114664055D01*
X110753020Y-114701371D01*
X110774000Y-114729282D01*
X110784172Y-114743730D01*
X110802687Y-114771195D01*
X110824664Y-114801609D01*
X110828916Y-114807230D01*
X110846930Y-114833540D01*
X110868904Y-114869480D01*
X110889812Y-114906779D01*
X110908028Y-114941028D01*
X110923613Y-114970313D01*
X110933454Y-114988785D01*
X110934005Y-114989818D01*
X110959150Y-115039863D01*
X110981886Y-115092106D01*
X111003470Y-115150126D01*
X111025162Y-115217502D01*
X111048218Y-115297814D01*
X111067232Y-115368961D01*
X111079101Y-115413502D01*
X111090295Y-115453933D01*
X111099219Y-115484567D01*
X111102849Y-115495961D01*
X111113093Y-115537352D01*
X111121395Y-115594217D01*
X111127751Y-115663205D01*
X111132158Y-115740963D01*
X111134612Y-115824138D01*
X111135109Y-115909378D01*
X111133646Y-115993330D01*
G36*
X111133646Y-120467638D02*
G01*
X111130219Y-120546949D01*
X111124824Y-120618267D01*
X111117459Y-120678239D01*
X111108118Y-120723513D01*
X111103677Y-120737154D01*
X111097902Y-120758032D01*
X111090836Y-120791937D01*
X111083764Y-120832528D01*
X111081900Y-120844615D01*
X111073072Y-120890689D01*
X111061105Y-120936380D01*
X111048359Y-120972875D01*
X111046377Y-120977331D01*
X111030793Y-121016345D01*
X111017861Y-121058124D01*
X111013947Y-121075023D01*
X111005277Y-121104366D01*
X110989492Y-121144412D01*
X110969185Y-121188911D01*
X110955540Y-121215846D01*
X110929300Y-121265784D01*
X110900930Y-121320310D01*
X110875094Y-121370443D01*
X110865932Y-121388399D01*
X110840903Y-121432338D01*
X110808185Y-121482485D01*
X110773271Y-121530623D01*
X110758182Y-121549592D01*
X110722448Y-121592915D01*
X110680586Y-121643723D01*
X110638870Y-121694400D01*
X110615559Y-121722743D01*
X110575961Y-121766762D01*
X110524687Y-121817691D01*
X110466272Y-121871534D01*
X110405251Y-121924293D01*
X110346157Y-121971971D01*
X110293526Y-122010571D01*
X110275808Y-122022252D01*
X110248396Y-122040720D01*
X110218024Y-122062741D01*
X110212308Y-122067091D01*
X110189280Y-122082574D01*
X110154104Y-122103595D01*
X110112147Y-122127031D01*
X110080751Y-122143648D01*
X110040645Y-122164575D01*
X110006633Y-122182755D01*
X109982698Y-122196033D01*
X109973289Y-122201824D01*
X109958056Y-122209588D01*
X109932508Y-122219181D01*
X109924116Y-122221892D01*
X109894111Y-122232638D01*
X109869309Y-122243877D01*
X109865500Y-122246054D01*
X109839828Y-122258473D01*
X109799373Y-122274093D01*
X109748365Y-122291620D01*
X109691038Y-122309763D01*
X109631621Y-122327229D01*
X109574347Y-122342725D01*
X109523447Y-122354958D01*
X109484500Y-122362435D01*
X109440767Y-122368037D01*
X109384391Y-122373682D01*
X109319067Y-122379154D01*
X109248487Y-122384236D01*
X109176347Y-122388710D01*
X109106339Y-122392360D01*
X109042157Y-122394970D01*
X108987496Y-122396322D01*
X108946048Y-122396200D01*
X108927110Y-122395145D01*
X108869432Y-122388563D01*
X108812597Y-122380828D01*
X108761240Y-122372677D01*
X108719993Y-122364845D01*
X108693489Y-122358068D01*
X108693193Y-122357967D01*
X108669188Y-122351273D01*
X108633255Y-122343090D01*
X108592751Y-122335079D01*
X108588656Y-122334338D01*
X108549350Y-122326035D01*
X108515138Y-122316586D01*
X108492696Y-122307868D01*
X108490964Y-122306869D01*
X108473431Y-122298490D01*
X108441662Y-122285639D01*
X108399971Y-122269982D01*
X108352670Y-122253186D01*
X108346385Y-122251023D01*
X108297790Y-122233505D01*
X108253472Y-122215968D01*
X108218060Y-122200346D01*
X108196181Y-122188573D01*
X108194962Y-122187717D01*
X108168068Y-122170858D01*
X108142616Y-122159076D01*
X108141231Y-122158624D01*
X108117088Y-122148397D01*
X108088436Y-122132540D01*
X108059851Y-122114151D01*
X108035906Y-122096331D01*
X108021178Y-122082179D01*
X108018968Y-122075777D01*
X108015354Y-122065565D01*
X107998870Y-122053277D01*
X107997454Y-122052527D01*
X107981464Y-122042209D01*
X107954307Y-122022703D01*
X107920012Y-121997100D01*
X107882606Y-121968496D01*
X107846118Y-121939982D01*
X107814577Y-121914652D01*
X107792011Y-121895600D01*
X107786586Y-121890610D01*
X107791165Y-121885045D01*
X107810737Y-121877798D01*
X107840317Y-121870601D01*
X107887034Y-121857387D01*
X107937384Y-121837061D01*
X107985528Y-121812557D01*
X108025624Y-121786812D01*
X108049725Y-121765332D01*
X108071102Y-121740454D01*
X108098840Y-121761743D01*
X108160549Y-121807774D01*
X108209506Y-121841161D01*
X108247134Y-121862710D01*
X108274854Y-121873226D01*
X108294088Y-121873514D01*
X108295412Y-121873081D01*
X108310595Y-121875597D01*
X108332862Y-121887467D01*
X108339373Y-121892058D01*
X108361374Y-121904834D01*
X108396734Y-121921315D01*
X108440219Y-121939194D01*
X108478270Y-121953279D01*
X108522824Y-121969348D01*
X108562032Y-121984283D01*
X108591325Y-121996296D01*
X108605270Y-122003026D01*
X108625907Y-122011118D01*
X108657399Y-122018689D01*
X108678342Y-122022103D01*
X108717260Y-122028851D01*
X108755176Y-122037972D01*
X108769935Y-122042571D01*
X108804677Y-122051099D01*
X108844093Y-122055725D01*
X108854155Y-122056000D01*
X108889667Y-122058337D01*
X108922547Y-122064180D01*
X108930778Y-122066619D01*
X108950319Y-122069412D01*
X108985912Y-122070656D01*
X109034141Y-122070501D01*
X109091594Y-122069097D01*
X109154856Y-122066593D01*
X109220515Y-122063139D01*
X109285155Y-122058885D01*
X109345365Y-122053982D01*
X109397729Y-122048579D01*
X109425885Y-122044878D01*
X109491170Y-122031337D01*
X109568601Y-122008955D01*
X109653919Y-121979502D01*
X109742866Y-121944749D01*
X109831182Y-121906465D01*
X109914608Y-121866421D01*
X109988884Y-121826388D01*
X110049752Y-121788135D01*
X110058396Y-121781984D01*
X110155993Y-121708628D01*
X110238073Y-121641581D01*
X110306832Y-121578907D01*
X110364467Y-121518669D01*
X110387178Y-121492060D01*
X110421580Y-121450447D01*
X110455676Y-121409585D01*
X110485320Y-121374425D01*
X110504855Y-121351642D01*
X110532265Y-121314909D01*
X110566190Y-121260230D01*
X110606404Y-121187998D01*
X110652682Y-121098604D01*
X110672146Y-121059538D01*
X110689285Y-121020204D01*
X110704111Y-120978370D01*
X110710065Y-120956961D01*
X110721009Y-120918570D01*
X110734885Y-120880452D01*
X110739892Y-120869038D01*
X110749855Y-120841702D01*
X110760797Y-120801907D01*
X110770910Y-120756535D01*
X110774531Y-120737154D01*
X110782939Y-120689089D01*
X110791337Y-120641200D01*
X110798311Y-120601539D01*
X110800239Y-120590615D01*
X110807615Y-120534031D01*
X110812693Y-120464575D01*
X110815333Y-120388794D01*
X110815391Y-120313234D01*
X110812728Y-120244443D01*
X110808688Y-120199846D01*
X110799778Y-120133837D01*
X110790237Y-120077036D01*
X110778462Y-120021402D01*
X110762848Y-119958894D01*
X110754122Y-119926307D01*
X110742181Y-119882045D01*
X110730721Y-119839063D01*
X110721827Y-119805204D01*
X110720308Y-119799307D01*
X110706517Y-119756730D01*
X110684737Y-119702530D01*
X110657357Y-119641639D01*
X110626768Y-119578986D01*
X110595361Y-119519502D01*
X110565526Y-119468117D01*
X110543899Y-119435467D01*
X110471961Y-119338760D01*
X110406763Y-119256599D01*
X110345884Y-119186273D01*
X110286903Y-119125072D01*
X110227398Y-119070286D01*
X110189024Y-119038226D01*
X110141381Y-119001009D01*
X110092815Y-118965148D01*
X110048005Y-118933963D01*
X110011630Y-118910776D01*
X110000791Y-118904644D01*
X109963455Y-118883815D01*
X109928661Y-118862908D01*
X109903658Y-118846287D01*
X109902787Y-118845641D01*
X109881611Y-118830860D01*
X109867393Y-118822854D01*
X109865537Y-118822384D01*
X109854295Y-118818521D01*
X109830320Y-118808327D01*
X109798508Y-118793896D01*
X109794058Y-118791821D01*
X109739976Y-118766617D01*
X109700087Y-118748394D01*
X109670930Y-118735754D01*
X109649050Y-118727301D01*
X109630986Y-118721634D01*
X109613281Y-118717358D01*
X109606112Y-118715844D01*
X109536415Y-118701097D01*
X109479858Y-118688418D01*
X109438163Y-118678219D01*
X109413053Y-118670911D01*
X109407063Y-118668353D01*
X109390039Y-118663802D01*
X109356886Y-118659933D01*
X109311003Y-118656842D01*
X109255789Y-118654624D01*
X109194646Y-118653377D01*
X109130973Y-118653195D01*
X109068169Y-118654174D01*
X109009636Y-118656412D01*
X109000923Y-118656891D01*
X108931332Y-118661352D01*
X108875526Y-118666320D01*
X108827754Y-118672746D01*
X108782267Y-118681575D01*
X108733317Y-118693758D01*
X108675154Y-118710241D01*
X108672224Y-118711100D01*
X108633354Y-118721896D01*
X108600012Y-118730049D01*
X108577899Y-118734199D01*
X108574263Y-118734461D01*
X108551573Y-118739890D01*
X108536616Y-118747725D01*
X108504798Y-118763907D01*
X108462802Y-118777946D01*
X108419969Y-118786846D01*
X108411679Y-118787788D01*
X108387982Y-118793824D01*
X108353752Y-118807199D01*
X108315310Y-118825358D01*
X108304120Y-118831239D01*
X108229154Y-118871661D01*
X108229154Y-118706492D01*
X108229078Y-118643529D01*
X108229922Y-118596999D01*
X108233297Y-118563806D01*
X108240812Y-118540856D01*
X108254078Y-118525055D01*
X108274705Y-118513309D01*
X108304302Y-118502523D01*
X108341500Y-118490574D01*
X108377312Y-118477222D01*
X108406864Y-118463098D01*
X108424055Y-118451141D01*
X108424539Y-118450583D01*
X108444759Y-118435588D01*
X108468500Y-118426796D01*
X108495450Y-118420586D01*
X108535640Y-118410510D01*
X108583519Y-118398041D01*
X108633534Y-118384652D01*
X108680131Y-118371817D01*
X108717757Y-118361010D01*
X108727385Y-118358100D01*
X108766848Y-118349536D01*
X108822242Y-118342566D01*
X108890199Y-118337196D01*
X108967349Y-118333430D01*
X109050323Y-118331275D01*
X109135752Y-118330735D01*
X109220267Y-118331814D01*
X109300499Y-118334519D01*
X109373079Y-118338855D01*
X109434637Y-118344826D01*
X109481804Y-118352437D01*
X109499154Y-118356927D01*
X109530653Y-118365888D01*
X109572734Y-118376599D01*
X109616836Y-118386894D01*
X109621270Y-118387869D01*
X109692428Y-118404622D01*
X109750844Y-118420855D01*
X109794160Y-118435857D01*
X109816654Y-118446680D01*
X109839537Y-118457984D01*
X109868507Y-118469015D01*
X109870385Y-118469621D01*
X109899540Y-118480630D01*
X109935102Y-118496353D01*
X109952637Y-118504902D01*
X109981178Y-118518499D01*
X110003248Y-118527401D01*
X110011252Y-118529402D01*
X110024341Y-118535137D01*
X110046494Y-118549741D01*
X110062705Y-118562014D01*
X110093282Y-118583677D01*
X110132544Y-118607985D01*
X110168038Y-118627580D01*
X110196197Y-118644290D01*
X110235724Y-118670869D01*
X110282961Y-118704698D01*
X110334249Y-118743156D01*
X110385931Y-118783623D01*
X110386026Y-118783699D01*
X110442950Y-118829872D01*
X110488302Y-118868381D01*
X110526157Y-118903264D01*
X110560590Y-118938558D01*
X110595676Y-118978300D01*
X110635491Y-119026526D01*
X110652574Y-119047749D01*
X110689943Y-119094699D01*
X110724213Y-119138362D01*
X110753020Y-119175679D01*
X110774000Y-119203590D01*
X110784172Y-119218038D01*
X110802687Y-119245503D01*
X110824664Y-119275917D01*
X110828916Y-119281538D01*
X110846930Y-119307848D01*
X110868904Y-119343788D01*
X110889812Y-119381087D01*
X110908028Y-119415336D01*
X110923613Y-119444621D01*
X110933454Y-119463093D01*
X110934005Y-119464126D01*
X110959150Y-119514171D01*
X110981886Y-119566414D01*
X111003470Y-119624433D01*
X111025162Y-119691810D01*
X111048218Y-119772122D01*
X111067232Y-119843269D01*
X111079101Y-119887810D01*
X111090295Y-119928241D01*
X111099219Y-119958875D01*
X111102849Y-119970269D01*
X111113093Y-120011659D01*
X111121395Y-120068525D01*
X111127751Y-120137513D01*
X111132158Y-120215271D01*
X111134612Y-120298446D01*
X111135109Y-120383686D01*
X111133646Y-120467638D01*
G37*
X111133646Y-120467638D02*
X111130219Y-120546949D01*
X111124824Y-120618267D01*
X111117459Y-120678239D01*
X111108118Y-120723513D01*
X111103677Y-120737154D01*
X111097902Y-120758032D01*
X111090836Y-120791937D01*
X111083764Y-120832528D01*
X111081900Y-120844615D01*
X111073072Y-120890689D01*
X111061105Y-120936380D01*
X111048359Y-120972875D01*
X111046377Y-120977331D01*
X111030793Y-121016345D01*
X111017861Y-121058124D01*
X111013947Y-121075023D01*
X111005277Y-121104366D01*
X110989492Y-121144412D01*
X110969185Y-121188911D01*
X110955540Y-121215846D01*
X110929300Y-121265784D01*
X110900930Y-121320310D01*
X110875094Y-121370443D01*
X110865932Y-121388399D01*
X110840903Y-121432338D01*
X110808185Y-121482485D01*
X110773271Y-121530623D01*
X110758182Y-121549592D01*
X110722448Y-121592915D01*
X110680586Y-121643723D01*
X110638870Y-121694400D01*
X110615559Y-121722743D01*
X110575961Y-121766762D01*
X110524687Y-121817691D01*
X110466272Y-121871534D01*
X110405251Y-121924293D01*
X110346157Y-121971971D01*
X110293526Y-122010571D01*
X110275808Y-122022252D01*
X110248396Y-122040720D01*
X110218024Y-122062741D01*
X110212308Y-122067091D01*
X110189280Y-122082574D01*
X110154104Y-122103595D01*
X110112147Y-122127031D01*
X110080751Y-122143648D01*
X110040645Y-122164575D01*
X110006633Y-122182755D01*
X109982698Y-122196033D01*
X109973289Y-122201824D01*
X109958056Y-122209588D01*
X109932508Y-122219181D01*
X109924116Y-122221892D01*
X109894111Y-122232638D01*
X109869309Y-122243877D01*
X109865500Y-122246054D01*
X109839828Y-122258473D01*
X109799373Y-122274093D01*
X109748365Y-122291620D01*
X109691038Y-122309763D01*
X109631621Y-122327229D01*
X109574347Y-122342725D01*
X109523447Y-122354958D01*
X109484500Y-122362435D01*
X109440767Y-122368037D01*
X109384391Y-122373682D01*
X109319067Y-122379154D01*
X109248487Y-122384236D01*
X109176347Y-122388710D01*
X109106339Y-122392360D01*
X109042157Y-122394970D01*
X108987496Y-122396322D01*
X108946048Y-122396200D01*
X108927110Y-122395145D01*
X108869432Y-122388563D01*
X108812597Y-122380828D01*
X108761240Y-122372677D01*
X108719993Y-122364845D01*
X108693489Y-122358068D01*
X108693193Y-122357967D01*
X108669188Y-122351273D01*
X108633255Y-122343090D01*
X108592751Y-122335079D01*
X108588656Y-122334338D01*
X108549350Y-122326035D01*
X108515138Y-122316586D01*
X108492696Y-122307868D01*
X108490964Y-122306869D01*
X108473431Y-122298490D01*
X108441662Y-122285639D01*
X108399971Y-122269982D01*
X108352670Y-122253186D01*
X108346385Y-122251023D01*
X108297790Y-122233505D01*
X108253472Y-122215968D01*
X108218060Y-122200346D01*
X108196181Y-122188573D01*
X108194962Y-122187717D01*
X108168068Y-122170858D01*
X108142616Y-122159076D01*
X108141231Y-122158624D01*
X108117088Y-122148397D01*
X108088436Y-122132540D01*
X108059851Y-122114151D01*
X108035906Y-122096331D01*
X108021178Y-122082179D01*
X108018968Y-122075777D01*
X108015354Y-122065565D01*
X107998870Y-122053277D01*
X107997454Y-122052527D01*
X107981464Y-122042209D01*
X107954307Y-122022703D01*
X107920012Y-121997100D01*
X107882606Y-121968496D01*
X107846118Y-121939982D01*
X107814577Y-121914652D01*
X107792011Y-121895600D01*
X107786586Y-121890610D01*
X107791165Y-121885045D01*
X107810737Y-121877798D01*
X107840317Y-121870601D01*
X107887034Y-121857387D01*
X107937384Y-121837061D01*
X107985528Y-121812557D01*
X108025624Y-121786812D01*
X108049725Y-121765332D01*
X108071102Y-121740454D01*
X108098840Y-121761743D01*
X108160549Y-121807774D01*
X108209506Y-121841161D01*
X108247134Y-121862710D01*
X108274854Y-121873226D01*
X108294088Y-121873514D01*
X108295412Y-121873081D01*
X108310595Y-121875597D01*
X108332862Y-121887467D01*
X108339373Y-121892058D01*
X108361374Y-121904834D01*
X108396734Y-121921315D01*
X108440219Y-121939194D01*
X108478270Y-121953279D01*
X108522824Y-121969348D01*
X108562032Y-121984283D01*
X108591325Y-121996296D01*
X108605270Y-122003026D01*
X108625907Y-122011118D01*
X108657399Y-122018689D01*
X108678342Y-122022103D01*
X108717260Y-122028851D01*
X108755176Y-122037972D01*
X108769935Y-122042571D01*
X108804677Y-122051099D01*
X108844093Y-122055725D01*
X108854155Y-122056000D01*
X108889667Y-122058337D01*
X108922547Y-122064180D01*
X108930778Y-122066619D01*
X108950319Y-122069412D01*
X108985912Y-122070656D01*
X109034141Y-122070501D01*
X109091594Y-122069097D01*
X109154856Y-122066593D01*
X109220515Y-122063139D01*
X109285155Y-122058885D01*
X109345365Y-122053982D01*
X109397729Y-122048579D01*
X109425885Y-122044878D01*
X109491170Y-122031337D01*
X109568601Y-122008955D01*
X109653919Y-121979502D01*
X109742866Y-121944749D01*
X109831182Y-121906465D01*
X109914608Y-121866421D01*
X109988884Y-121826388D01*
X110049752Y-121788135D01*
X110058396Y-121781984D01*
X110155993Y-121708628D01*
X110238073Y-121641581D01*
X110306832Y-121578907D01*
X110364467Y-121518669D01*
X110387178Y-121492060D01*
X110421580Y-121450447D01*
X110455676Y-121409585D01*
X110485320Y-121374425D01*
X110504855Y-121351642D01*
X110532265Y-121314909D01*
X110566190Y-121260230D01*
X110606404Y-121187998D01*
X110652682Y-121098604D01*
X110672146Y-121059538D01*
X110689285Y-121020204D01*
X110704111Y-120978370D01*
X110710065Y-120956961D01*
X110721009Y-120918570D01*
X110734885Y-120880452D01*
X110739892Y-120869038D01*
X110749855Y-120841702D01*
X110760797Y-120801907D01*
X110770910Y-120756535D01*
X110774531Y-120737154D01*
X110782939Y-120689089D01*
X110791337Y-120641200D01*
X110798311Y-120601539D01*
X110800239Y-120590615D01*
X110807615Y-120534031D01*
X110812693Y-120464575D01*
X110815333Y-120388794D01*
X110815391Y-120313234D01*
X110812728Y-120244443D01*
X110808688Y-120199846D01*
X110799778Y-120133837D01*
X110790237Y-120077036D01*
X110778462Y-120021402D01*
X110762848Y-119958894D01*
X110754122Y-119926307D01*
X110742181Y-119882045D01*
X110730721Y-119839063D01*
X110721827Y-119805204D01*
X110720308Y-119799307D01*
X110706517Y-119756730D01*
X110684737Y-119702530D01*
X110657357Y-119641639D01*
X110626768Y-119578986D01*
X110595361Y-119519502D01*
X110565526Y-119468117D01*
X110543899Y-119435467D01*
X110471961Y-119338760D01*
X110406763Y-119256599D01*
X110345884Y-119186273D01*
X110286903Y-119125072D01*
X110227398Y-119070286D01*
X110189024Y-119038226D01*
X110141381Y-119001009D01*
X110092815Y-118965148D01*
X110048005Y-118933963D01*
X110011630Y-118910776D01*
X110000791Y-118904644D01*
X109963455Y-118883815D01*
X109928661Y-118862908D01*
X109903658Y-118846287D01*
X109902787Y-118845641D01*
X109881611Y-118830860D01*
X109867393Y-118822854D01*
X109865537Y-118822384D01*
X109854295Y-118818521D01*
X109830320Y-118808327D01*
X109798508Y-118793896D01*
X109794058Y-118791821D01*
X109739976Y-118766617D01*
X109700087Y-118748394D01*
X109670930Y-118735754D01*
X109649050Y-118727301D01*
X109630986Y-118721634D01*
X109613281Y-118717358D01*
X109606112Y-118715844D01*
X109536415Y-118701097D01*
X109479858Y-118688418D01*
X109438163Y-118678219D01*
X109413053Y-118670911D01*
X109407063Y-118668353D01*
X109390039Y-118663802D01*
X109356886Y-118659933D01*
X109311003Y-118656842D01*
X109255789Y-118654624D01*
X109194646Y-118653377D01*
X109130973Y-118653195D01*
X109068169Y-118654174D01*
X109009636Y-118656412D01*
X109000923Y-118656891D01*
X108931332Y-118661352D01*
X108875526Y-118666320D01*
X108827754Y-118672746D01*
X108782267Y-118681575D01*
X108733317Y-118693758D01*
X108675154Y-118710241D01*
X108672224Y-118711100D01*
X108633354Y-118721896D01*
X108600012Y-118730049D01*
X108577899Y-118734199D01*
X108574263Y-118734461D01*
X108551573Y-118739890D01*
X108536616Y-118747725D01*
X108504798Y-118763907D01*
X108462802Y-118777946D01*
X108419969Y-118786846D01*
X108411679Y-118787788D01*
X108387982Y-118793824D01*
X108353752Y-118807199D01*
X108315310Y-118825358D01*
X108304120Y-118831239D01*
X108229154Y-118871661D01*
X108229154Y-118706492D01*
X108229078Y-118643529D01*
X108229922Y-118596999D01*
X108233297Y-118563806D01*
X108240812Y-118540856D01*
X108254078Y-118525055D01*
X108274705Y-118513309D01*
X108304302Y-118502523D01*
X108341500Y-118490574D01*
X108377312Y-118477222D01*
X108406864Y-118463098D01*
X108424055Y-118451141D01*
X108424539Y-118450583D01*
X108444759Y-118435588D01*
X108468500Y-118426796D01*
X108495450Y-118420586D01*
X108535640Y-118410510D01*
X108583519Y-118398041D01*
X108633534Y-118384652D01*
X108680131Y-118371817D01*
X108717757Y-118361010D01*
X108727385Y-118358100D01*
X108766848Y-118349536D01*
X108822242Y-118342566D01*
X108890199Y-118337196D01*
X108967349Y-118333430D01*
X109050323Y-118331275D01*
X109135752Y-118330735D01*
X109220267Y-118331814D01*
X109300499Y-118334519D01*
X109373079Y-118338855D01*
X109434637Y-118344826D01*
X109481804Y-118352437D01*
X109499154Y-118356927D01*
X109530653Y-118365888D01*
X109572734Y-118376599D01*
X109616836Y-118386894D01*
X109621270Y-118387869D01*
X109692428Y-118404622D01*
X109750844Y-118420855D01*
X109794160Y-118435857D01*
X109816654Y-118446680D01*
X109839537Y-118457984D01*
X109868507Y-118469015D01*
X109870385Y-118469621D01*
X109899540Y-118480630D01*
X109935102Y-118496353D01*
X109952637Y-118504902D01*
X109981178Y-118518499D01*
X110003248Y-118527401D01*
X110011252Y-118529402D01*
X110024341Y-118535137D01*
X110046494Y-118549741D01*
X110062705Y-118562014D01*
X110093282Y-118583677D01*
X110132544Y-118607985D01*
X110168038Y-118627580D01*
X110196197Y-118644290D01*
X110235724Y-118670869D01*
X110282961Y-118704698D01*
X110334249Y-118743156D01*
X110385931Y-118783623D01*
X110386026Y-118783699D01*
X110442950Y-118829872D01*
X110488302Y-118868381D01*
X110526157Y-118903264D01*
X110560590Y-118938558D01*
X110595676Y-118978300D01*
X110635491Y-119026526D01*
X110652574Y-119047749D01*
X110689943Y-119094699D01*
X110724213Y-119138362D01*
X110753020Y-119175679D01*
X110774000Y-119203590D01*
X110784172Y-119218038D01*
X110802687Y-119245503D01*
X110824664Y-119275917D01*
X110828916Y-119281538D01*
X110846930Y-119307848D01*
X110868904Y-119343788D01*
X110889812Y-119381087D01*
X110908028Y-119415336D01*
X110923613Y-119444621D01*
X110933454Y-119463093D01*
X110934005Y-119464126D01*
X110959150Y-119514171D01*
X110981886Y-119566414D01*
X111003470Y-119624433D01*
X111025162Y-119691810D01*
X111048218Y-119772122D01*
X111067232Y-119843269D01*
X111079101Y-119887810D01*
X111090295Y-119928241D01*
X111099219Y-119958875D01*
X111102849Y-119970269D01*
X111113093Y-120011659D01*
X111121395Y-120068525D01*
X111127751Y-120137513D01*
X111132158Y-120215271D01*
X111134612Y-120298446D01*
X111135109Y-120383686D01*
X111133646Y-120467638D01*
D10*
%TO.C,U1*%
X108950000Y-92450000D02*
X109450000Y-92450000D01*
X108950000Y-92450000D02*
X108950000Y-92950000D01*
X108950000Y-97550000D02*
X108950000Y-97050000D01*
X108950000Y-97550000D02*
X109450000Y-97550000D01*
X114050000Y-97550000D02*
X113550000Y-97550000D01*
X114050000Y-97550000D02*
X114050000Y-97050000D01*
X114050000Y-92450000D02*
X114050000Y-92950000D01*
X114050000Y-92450000D02*
X113550000Y-92450000D01*
D14*
X108600000Y-92750000D02*
G75*
G03*
X108600000Y-92750000I0J0D01*
G01*
D10*
%TO.C,R2*%
X102150000Y-96150000D02*
X104850000Y-96150000D01*
X102150000Y-97350000D02*
X104850000Y-97350000D01*
X102150000Y-96150000D02*
X102150000Y-97350000D01*
X104850000Y-96150000D02*
X104850000Y-97350000D01*
%TO.C,R1*%
X102150000Y-92650000D02*
X104850000Y-92650000D01*
X102150000Y-93850000D02*
X104850000Y-93850000D01*
X102150000Y-92650000D02*
X102150000Y-93850000D01*
X104850000Y-92650000D02*
X104850000Y-93850000D01*
%TO.C,LD2*%
X101850000Y-97350000D02*
X99150000Y-97350000D01*
X99150000Y-97350000D02*
X99150000Y-96150000D01*
X101850000Y-97350000D02*
X101850000Y-96150000D01*
X101850000Y-96150000D02*
X99150000Y-96150000D01*
X100250000Y-97100000D02*
X100250000Y-96400000D01*
X100250000Y-96400000D02*
X100650000Y-96750000D01*
X100650000Y-96750000D02*
X100250000Y-97100000D01*
%TO.C,LD1*%
X101850000Y-93850000D02*
X99150000Y-93850000D01*
X99150000Y-93850000D02*
X99150000Y-92650000D01*
X101850000Y-93850000D02*
X101850000Y-92650000D01*
X101850000Y-92650000D02*
X99150000Y-92650000D01*
X100250000Y-93600000D02*
X100250000Y-92900000D01*
X100250000Y-92900000D02*
X100650000Y-93250000D01*
X100650000Y-93250000D02*
X100250000Y-93600000D01*
D12*
%TO.C,J1*%
X97090000Y-109910000D02*
X97090000Y-102090000D01*
X106410000Y-103890000D02*
X106840000Y-103890000D01*
X97090000Y-109910000D02*
X99040000Y-109910000D01*
X101260000Y-109910000D02*
X104490000Y-109910000D01*
X106410000Y-108110000D02*
X106410000Y-109190000D01*
X106410000Y-102810000D02*
X106410000Y-103890000D01*
X101260000Y-102090000D02*
X104490000Y-102090000D01*
X97090000Y-102090000D02*
X99040000Y-102090000D01*
D10*
%TO.C,C3*%
X115150000Y-96400000D02*
X117850000Y-96400000D01*
X117850000Y-96400000D02*
X117850000Y-97600000D01*
X115150000Y-97600000D02*
X117850000Y-97600000D01*
X115150000Y-96400000D02*
X115150000Y-97600000D01*
%TO.C,C2*%
X115150000Y-94900000D02*
X117850000Y-94900000D01*
X117850000Y-94900000D02*
X117850000Y-96100000D01*
X115150000Y-96100000D02*
X117850000Y-96100000D01*
X115150000Y-94900000D02*
X115150000Y-96100000D01*
%TO.C,C1*%
X107850000Y-93850000D02*
X105150000Y-93850000D01*
X105150000Y-93850000D02*
X105150000Y-92650000D01*
X107850000Y-92650000D02*
X105150000Y-92650000D01*
X107850000Y-93850000D02*
X107850000Y-92650000D01*
%TO.C,J2*%
X112616666Y-84233333D02*
X113116666Y-84233333D01*
X113216666Y-84266666D01*
X113283333Y-84333333D01*
X113316666Y-84433333D01*
X113316666Y-84500000D01*
X112683333Y-83933333D02*
X112650000Y-83900000D01*
X112616666Y-83833333D01*
X112616666Y-83666666D01*
X112650000Y-83600000D01*
X112683333Y-83566666D01*
X112750000Y-83533333D01*
X112816666Y-83533333D01*
X112916666Y-83566666D01*
X113316666Y-83966666D01*
X113316666Y-83533333D01*
%TO.C,MODULE1*%
X117750000Y-84316666D02*
X117750000Y-83616666D01*
X117983333Y-84116666D01*
X118216666Y-83616666D01*
X118216666Y-84316666D01*
X118683333Y-83616666D02*
X118816666Y-83616666D01*
X118883333Y-83650000D01*
X118950000Y-83716666D01*
X118983333Y-83850000D01*
X118983333Y-84083333D01*
X118950000Y-84216666D01*
X118883333Y-84283333D01*
X118816666Y-84316666D01*
X118683333Y-84316666D01*
X118616666Y-84283333D01*
X118550000Y-84216666D01*
X118516666Y-84083333D01*
X118516666Y-83850000D01*
X118550000Y-83716666D01*
X118616666Y-83650000D01*
X118683333Y-83616666D01*
X119283333Y-84316666D02*
X119283333Y-83616666D01*
X119450000Y-83616666D01*
X119550000Y-83650000D01*
X119616666Y-83716666D01*
X119650000Y-83783333D01*
X119683333Y-83916666D01*
X119683333Y-84016666D01*
X119650000Y-84150000D01*
X119616666Y-84216666D01*
X119550000Y-84283333D01*
X119450000Y-84316666D01*
X119283333Y-84316666D01*
X119983333Y-83616666D02*
X119983333Y-84183333D01*
X120016666Y-84250000D01*
X120050000Y-84283333D01*
X120116666Y-84316666D01*
X120250000Y-84316666D01*
X120316666Y-84283333D01*
X120350000Y-84250000D01*
X120383333Y-84183333D01*
X120383333Y-83616666D01*
X121050000Y-84316666D02*
X120716666Y-84316666D01*
X120716666Y-83616666D01*
X121283333Y-83950000D02*
X121516666Y-83950000D01*
X121616666Y-84316666D02*
X121283333Y-84316666D01*
X121283333Y-83616666D01*
X121616666Y-83616666D01*
X122283333Y-84316666D02*
X121883333Y-84316666D01*
X122083333Y-84316666D02*
X122083333Y-83616666D01*
X122016666Y-83716666D01*
X121950000Y-83783333D01*
X121883333Y-83816666D01*
D11*
X122607142Y-89452380D02*
X122940476Y-90452380D01*
X123273809Y-89452380D01*
X123940476Y-89928571D02*
X124083333Y-89976190D01*
X124130952Y-90023809D01*
X124178571Y-90119047D01*
X124178571Y-90261904D01*
X124130952Y-90357142D01*
X124083333Y-90404761D01*
X123988095Y-90452380D01*
X123607142Y-90452380D01*
X123607142Y-89452380D01*
X123940476Y-89452380D01*
X124035714Y-89500000D01*
X124083333Y-89547619D01*
X124130952Y-89642857D01*
X124130952Y-89738095D01*
X124083333Y-89833333D01*
X124035714Y-89880952D01*
X123940476Y-89928571D01*
X123607142Y-89928571D01*
X124559523Y-90166666D02*
X125035714Y-90166666D01*
X124464285Y-90452380D02*
X124797619Y-89452380D01*
X125130952Y-90452380D01*
X125321428Y-89452380D02*
X125892857Y-89452380D01*
X125607142Y-90452380D02*
X125607142Y-89452380D01*
X123333333Y-96452380D02*
X123000000Y-95976190D01*
X122761904Y-96452380D02*
X122761904Y-95452380D01*
X123142857Y-95452380D01*
X123238095Y-95500000D01*
X123285714Y-95547619D01*
X123333333Y-95642857D01*
X123333333Y-95785714D01*
X123285714Y-95880952D01*
X123238095Y-95928571D01*
X123142857Y-95976190D01*
X122761904Y-95976190D01*
X123666666Y-95452380D02*
X124333333Y-96452380D01*
X124333333Y-95452380D02*
X123666666Y-96452380D01*
X122738095Y-93452380D02*
X123309523Y-93452380D01*
X123023809Y-94452380D02*
X123023809Y-93452380D01*
X123547619Y-93452380D02*
X124214285Y-94452380D01*
X124214285Y-93452380D02*
X123547619Y-94452380D01*
X123238095Y-85500000D02*
X123142857Y-85452380D01*
X123000000Y-85452380D01*
X122857142Y-85500000D01*
X122761904Y-85595238D01*
X122714285Y-85690476D01*
X122666666Y-85880952D01*
X122666666Y-86023809D01*
X122714285Y-86214285D01*
X122761904Y-86309523D01*
X122857142Y-86404761D01*
X123000000Y-86452380D01*
X123095238Y-86452380D01*
X123238095Y-86404761D01*
X123285714Y-86357142D01*
X123285714Y-86023809D01*
X123095238Y-86023809D01*
X123714285Y-86452380D02*
X123714285Y-85452380D01*
X124285714Y-86452380D01*
X124285714Y-85452380D01*
X124761904Y-86452380D02*
X124761904Y-85452380D01*
X125000000Y-85452380D01*
X125142857Y-85500000D01*
X125238095Y-85595238D01*
X125285714Y-85690476D01*
X125333333Y-85880952D01*
X125333333Y-86023809D01*
X125285714Y-86214285D01*
X125238095Y-86309523D01*
X125142857Y-86404761D01*
X125000000Y-86452380D01*
X124761904Y-86452380D01*
X123238095Y-97500000D02*
X123142857Y-97452380D01*
X123000000Y-97452380D01*
X122857142Y-97500000D01*
X122761904Y-97595238D01*
X122714285Y-97690476D01*
X122666666Y-97880952D01*
X122666666Y-98023809D01*
X122714285Y-98214285D01*
X122761904Y-98309523D01*
X122857142Y-98404761D01*
X123000000Y-98452380D01*
X123095238Y-98452380D01*
X123238095Y-98404761D01*
X123285714Y-98357142D01*
X123285714Y-98023809D01*
X123095238Y-98023809D01*
X123714285Y-98452380D02*
X123714285Y-97452380D01*
X124285714Y-98452380D01*
X124285714Y-97452380D01*
X124761904Y-98452380D02*
X124761904Y-97452380D01*
X125000000Y-97452380D01*
X125142857Y-97500000D01*
X125238095Y-97595238D01*
X125285714Y-97690476D01*
X125333333Y-97880952D01*
X125333333Y-98023809D01*
X125285714Y-98214285D01*
X125238095Y-98309523D01*
X125142857Y-98404761D01*
X125000000Y-98452380D01*
X124761904Y-98452380D01*
X123238095Y-103500000D02*
X123142857Y-103452380D01*
X123000000Y-103452380D01*
X122857142Y-103500000D01*
X122761904Y-103595238D01*
X122714285Y-103690476D01*
X122666666Y-103880952D01*
X122666666Y-104023809D01*
X122714285Y-104214285D01*
X122761904Y-104309523D01*
X122857142Y-104404761D01*
X123000000Y-104452380D01*
X123095238Y-104452380D01*
X123238095Y-104404761D01*
X123285714Y-104357142D01*
X123285714Y-104023809D01*
X123095238Y-104023809D01*
X123714285Y-104452380D02*
X123714285Y-103452380D01*
X124285714Y-104452380D01*
X124285714Y-103452380D01*
X124761904Y-104452380D02*
X124761904Y-103452380D01*
X125000000Y-103452380D01*
X125142857Y-103500000D01*
X125238095Y-103595238D01*
X125285714Y-103690476D01*
X125333333Y-103880952D01*
X125333333Y-104023809D01*
X125285714Y-104214285D01*
X125238095Y-104309523D01*
X125142857Y-104404761D01*
X125000000Y-104452380D01*
X124761904Y-104452380D01*
X123238095Y-91500000D02*
X123142857Y-91452380D01*
X123000000Y-91452380D01*
X122857142Y-91500000D01*
X122761904Y-91595238D01*
X122714285Y-91690476D01*
X122666666Y-91880952D01*
X122666666Y-92023809D01*
X122714285Y-92214285D01*
X122761904Y-92309523D01*
X122857142Y-92404761D01*
X123000000Y-92452380D01*
X123095238Y-92452380D01*
X123238095Y-92404761D01*
X123285714Y-92357142D01*
X123285714Y-92023809D01*
X123095238Y-92023809D01*
X123714285Y-92452380D02*
X123714285Y-91452380D01*
X124285714Y-92452380D01*
X124285714Y-91452380D01*
X124761904Y-92452380D02*
X124761904Y-91452380D01*
X125000000Y-91452380D01*
X125142857Y-91500000D01*
X125238095Y-91595238D01*
X125285714Y-91690476D01*
X125333333Y-91880952D01*
X125333333Y-92023809D01*
X125285714Y-92214285D01*
X125238095Y-92309523D01*
X125142857Y-92404761D01*
X125000000Y-92452380D01*
X124761904Y-92452380D01*
X122666666Y-101452380D02*
X123000000Y-102452380D01*
X123333333Y-101452380D01*
X124238095Y-102357142D02*
X124190476Y-102404761D01*
X124047619Y-102452380D01*
X123952380Y-102452380D01*
X123809523Y-102404761D01*
X123714285Y-102309523D01*
X123666666Y-102214285D01*
X123619047Y-102023809D01*
X123619047Y-101880952D01*
X123666666Y-101690476D01*
X123714285Y-101595238D01*
X123809523Y-101500000D01*
X123952380Y-101452380D01*
X124047619Y-101452380D01*
X124190476Y-101500000D01*
X124238095Y-101547619D01*
X125238095Y-102357142D02*
X125190476Y-102404761D01*
X125047619Y-102452380D01*
X124952380Y-102452380D01*
X124809523Y-102404761D01*
X124714285Y-102309523D01*
X124666666Y-102214285D01*
X124619047Y-102023809D01*
X124619047Y-101880952D01*
X124666666Y-101690476D01*
X124714285Y-101595238D01*
X124809523Y-101500000D01*
X124952380Y-101452380D01*
X125047619Y-101452380D01*
X125190476Y-101500000D01*
X125238095Y-101547619D01*
X122666666Y-99452380D02*
X123000000Y-100452380D01*
X123333333Y-99452380D01*
X124238095Y-100357142D02*
X124190476Y-100404761D01*
X124047619Y-100452380D01*
X123952380Y-100452380D01*
X123809523Y-100404761D01*
X123714285Y-100309523D01*
X123666666Y-100214285D01*
X123619047Y-100023809D01*
X123619047Y-99880952D01*
X123666666Y-99690476D01*
X123714285Y-99595238D01*
X123809523Y-99500000D01*
X123952380Y-99452380D01*
X124047619Y-99452380D01*
X124190476Y-99500000D01*
X124238095Y-99547619D01*
X125238095Y-100357142D02*
X125190476Y-100404761D01*
X125047619Y-100452380D01*
X124952380Y-100452380D01*
X124809523Y-100404761D01*
X124714285Y-100309523D01*
X124666666Y-100214285D01*
X124619047Y-100023809D01*
X124619047Y-99880952D01*
X124666666Y-99690476D01*
X124714285Y-99595238D01*
X124809523Y-99500000D01*
X124952380Y-99452380D01*
X125047619Y-99452380D01*
X125190476Y-99500000D01*
X125238095Y-99547619D01*
X122607142Y-87452380D02*
X122940476Y-88452380D01*
X123273809Y-87452380D01*
X123940476Y-87928571D02*
X124083333Y-87976190D01*
X124130952Y-88023809D01*
X124178571Y-88119047D01*
X124178571Y-88261904D01*
X124130952Y-88357142D01*
X124083333Y-88404761D01*
X123988095Y-88452380D01*
X123607142Y-88452380D01*
X123607142Y-87452380D01*
X123940476Y-87452380D01*
X124035714Y-87500000D01*
X124083333Y-87547619D01*
X124130952Y-87642857D01*
X124130952Y-87738095D01*
X124083333Y-87833333D01*
X124035714Y-87880952D01*
X123940476Y-87928571D01*
X123607142Y-87928571D01*
X124559523Y-88166666D02*
X125035714Y-88166666D01*
X124464285Y-88452380D02*
X124797619Y-87452380D01*
X125130952Y-88452380D01*
X125321428Y-87452380D02*
X125892857Y-87452380D01*
X125607142Y-88452380D02*
X125607142Y-87452380D01*
%TO.C,U1*%
D10*
X110966666Y-91066666D02*
X110966666Y-91633333D01*
X111000000Y-91700000D01*
X111033333Y-91733333D01*
X111100000Y-91766666D01*
X111233333Y-91766666D01*
X111300000Y-91733333D01*
X111333333Y-91700000D01*
X111366666Y-91633333D01*
X111366666Y-91066666D01*
X112066666Y-91766666D02*
X111666666Y-91766666D01*
X111866666Y-91766666D02*
X111866666Y-91066666D01*
X111800000Y-91166666D01*
X111733333Y-91233333D01*
X111666666Y-91266666D01*
%TO.C,R2*%
X103383333Y-98316666D02*
X103150000Y-97983333D01*
X102983333Y-98316666D02*
X102983333Y-97616666D01*
X103250000Y-97616666D01*
X103316666Y-97650000D01*
X103350000Y-97683333D01*
X103383333Y-97750000D01*
X103383333Y-97850000D01*
X103350000Y-97916666D01*
X103316666Y-97950000D01*
X103250000Y-97983333D01*
X102983333Y-97983333D01*
X103650000Y-97683333D02*
X103683333Y-97650000D01*
X103750000Y-97616666D01*
X103916666Y-97616666D01*
X103983333Y-97650000D01*
X104016666Y-97683333D01*
X104050000Y-97750000D01*
X104050000Y-97816666D01*
X104016666Y-97916666D01*
X103616666Y-98316666D01*
X104050000Y-98316666D01*
%TO.C,R1*%
X103420833Y-92316666D02*
X103187500Y-91983333D01*
X103020833Y-92316666D02*
X103020833Y-91616666D01*
X103287500Y-91616666D01*
X103354166Y-91650000D01*
X103387500Y-91683333D01*
X103420833Y-91750000D01*
X103420833Y-91850000D01*
X103387500Y-91916666D01*
X103354166Y-91950000D01*
X103287500Y-91983333D01*
X103020833Y-91983333D01*
X104087500Y-92316666D02*
X103687500Y-92316666D01*
X103887500Y-92316666D02*
X103887500Y-91616666D01*
X103820833Y-91716666D01*
X103754166Y-91783333D01*
X103687500Y-91816666D01*
%TO.C,LD2*%
X100033333Y-98316666D02*
X99700000Y-98316666D01*
X99700000Y-97616666D01*
X100266666Y-98316666D02*
X100266666Y-97616666D01*
X100433333Y-97616666D01*
X100533333Y-97650000D01*
X100600000Y-97716666D01*
X100633333Y-97783333D01*
X100666666Y-97916666D01*
X100666666Y-98016666D01*
X100633333Y-98150000D01*
X100600000Y-98216666D01*
X100533333Y-98283333D01*
X100433333Y-98316666D01*
X100266666Y-98316666D01*
X100933333Y-97683333D02*
X100966666Y-97650000D01*
X101033333Y-97616666D01*
X101200000Y-97616666D01*
X101266666Y-97650000D01*
X101300000Y-97683333D01*
X101333333Y-97750000D01*
X101333333Y-97816666D01*
X101300000Y-97916666D01*
X100900000Y-98316666D01*
X101333333Y-98316666D01*
%TO.C,LD1*%
X100033333Y-92316666D02*
X99700000Y-92316666D01*
X99700000Y-91616666D01*
X100266666Y-92316666D02*
X100266666Y-91616666D01*
X100433333Y-91616666D01*
X100533333Y-91650000D01*
X100600000Y-91716666D01*
X100633333Y-91783333D01*
X100666666Y-91916666D01*
X100666666Y-92016666D01*
X100633333Y-92150000D01*
X100600000Y-92216666D01*
X100533333Y-92283333D01*
X100433333Y-92316666D01*
X100266666Y-92316666D01*
X101333333Y-92316666D02*
X100933333Y-92316666D01*
X101133333Y-92316666D02*
X101133333Y-91616666D01*
X101066666Y-91716666D01*
X101000000Y-91783333D01*
X100933333Y-91816666D01*
%TO.C,J1*%
X107616666Y-106233333D02*
X108116666Y-106233333D01*
X108216666Y-106266666D01*
X108283333Y-106333333D01*
X108316666Y-106433333D01*
X108316666Y-106500000D01*
X108316666Y-105533333D02*
X108316666Y-105933333D01*
X108316666Y-105733333D02*
X107616666Y-105733333D01*
X107716666Y-105800000D01*
X107783333Y-105866666D01*
X107816666Y-105933333D01*
%TO.C,C3*%
X116383333Y-98500000D02*
X116350000Y-98533333D01*
X116250000Y-98566666D01*
X116183333Y-98566666D01*
X116083333Y-98533333D01*
X116016666Y-98466666D01*
X115983333Y-98400000D01*
X115950000Y-98266666D01*
X115950000Y-98166666D01*
X115983333Y-98033333D01*
X116016666Y-97966666D01*
X116083333Y-97900000D01*
X116183333Y-97866666D01*
X116250000Y-97866666D01*
X116350000Y-97900000D01*
X116383333Y-97933333D01*
X116616666Y-97866666D02*
X117050000Y-97866666D01*
X116816666Y-98133333D01*
X116916666Y-98133333D01*
X116983333Y-98166666D01*
X117016666Y-98200000D01*
X117050000Y-98266666D01*
X117050000Y-98433333D01*
X117016666Y-98500000D01*
X116983333Y-98533333D01*
X116916666Y-98566666D01*
X116716666Y-98566666D01*
X116650000Y-98533333D01*
X116616666Y-98500000D01*
%TO.C,C2*%
X116383333Y-94500000D02*
X116350000Y-94533333D01*
X116250000Y-94566666D01*
X116183333Y-94566666D01*
X116083333Y-94533333D01*
X116016666Y-94466666D01*
X115983333Y-94400000D01*
X115950000Y-94266666D01*
X115950000Y-94166666D01*
X115983333Y-94033333D01*
X116016666Y-93966666D01*
X116083333Y-93900000D01*
X116183333Y-93866666D01*
X116250000Y-93866666D01*
X116350000Y-93900000D01*
X116383333Y-93933333D01*
X116650000Y-93933333D02*
X116683333Y-93900000D01*
X116750000Y-93866666D01*
X116916666Y-93866666D01*
X116983333Y-93900000D01*
X117016666Y-93933333D01*
X117050000Y-94000000D01*
X117050000Y-94066666D01*
X117016666Y-94166666D01*
X116616666Y-94566666D01*
X117050000Y-94566666D01*
%TO.C,C1*%
X106383333Y-92250000D02*
X106350000Y-92283333D01*
X106250000Y-92316666D01*
X106183333Y-92316666D01*
X106083333Y-92283333D01*
X106016666Y-92216666D01*
X105983333Y-92150000D01*
X105950000Y-92016666D01*
X105950000Y-91916666D01*
X105983333Y-91783333D01*
X106016666Y-91716666D01*
X106083333Y-91650000D01*
X106183333Y-91616666D01*
X106250000Y-91616666D01*
X106350000Y-91650000D01*
X106383333Y-91683333D01*
X107050000Y-92316666D02*
X106650000Y-92316666D01*
X106850000Y-92316666D02*
X106850000Y-91616666D01*
X106783333Y-91716666D01*
X106716666Y-91783333D01*
X106650000Y-91816666D01*
%TD*%
M02*
